G04 #@! TF.GenerationSoftware,KiCad,Pcbnew,(5.1.5)-3*
G04 #@! TF.CreationDate,2020-04-26T21:29:02+02:00*
G04 #@! TF.ProjectId,AGB_LIPO,4147425f-4c49-4504-9f2e-6b696361645f,rev?*
G04 #@! TF.SameCoordinates,Original*
G04 #@! TF.FileFunction,Soldermask,Top*
G04 #@! TF.FilePolarity,Negative*
%FSLAX46Y46*%
G04 Gerber Fmt 4.6, Leading zero omitted, Abs format (unit mm)*
G04 Created by KiCad (PCBNEW (5.1.5)-3) date 2020-04-26 21:29:02*
%MOMM*%
%LPD*%
G04 APERTURE LIST*
%ADD10C,0.100000*%
G04 APERTURE END LIST*
D10*
G36*
X125928500Y-41250000D02*
G01*
X119678500Y-41250000D01*
X119678500Y-36000000D01*
X125928500Y-36000000D01*
X125928500Y-41250000D01*
G37*
X125928500Y-41250000D02*
X119678500Y-41250000D01*
X119678500Y-36000000D01*
X125928500Y-36000000D01*
X125928500Y-41250000D01*
G36*
X125992000Y-25750000D02*
G01*
X119742000Y-25750000D01*
X119742000Y-20500000D01*
X125992000Y-20500000D01*
X125992000Y-25750000D01*
G37*
X125992000Y-25750000D02*
X119742000Y-25750000D01*
X119742000Y-20500000D01*
X125992000Y-20500000D01*
X125992000Y-25750000D01*
G36*
X78574012Y-38953427D02*
G01*
X78723312Y-38983124D01*
X78887284Y-39051044D01*
X79034854Y-39149647D01*
X79160353Y-39275146D01*
X79258956Y-39422716D01*
X79326876Y-39586688D01*
X79361500Y-39760759D01*
X79361500Y-39938241D01*
X79326876Y-40112312D01*
X79258956Y-40276284D01*
X79160353Y-40423854D01*
X79034854Y-40549353D01*
X78887284Y-40647956D01*
X78723312Y-40715876D01*
X78574012Y-40745573D01*
X78549242Y-40750500D01*
X78371758Y-40750500D01*
X78346988Y-40745573D01*
X78197688Y-40715876D01*
X78033716Y-40647956D01*
X77886146Y-40549353D01*
X77760647Y-40423854D01*
X77662044Y-40276284D01*
X77594124Y-40112312D01*
X77559500Y-39938241D01*
X77559500Y-39760759D01*
X77594124Y-39586688D01*
X77662044Y-39422716D01*
X77760647Y-39275146D01*
X77886146Y-39149647D01*
X78033716Y-39051044D01*
X78197688Y-38983124D01*
X78346988Y-38953427D01*
X78371758Y-38948500D01*
X78549242Y-38948500D01*
X78574012Y-38953427D01*
G37*
G36*
X79361500Y-38210500D02*
G01*
X77559500Y-38210500D01*
X77559500Y-36408500D01*
X79361500Y-36408500D01*
X79361500Y-38210500D01*
G37*
G36*
X93821000Y-36261000D02*
G01*
X92919000Y-36261000D01*
X92919000Y-35259000D01*
X93821000Y-35259000D01*
X93821000Y-36261000D01*
G37*
G36*
X91921000Y-36261000D02*
G01*
X91019000Y-36261000D01*
X91019000Y-35259000D01*
X91921000Y-35259000D01*
X91921000Y-36261000D01*
G37*
G36*
X79953642Y-33559781D02*
G01*
X80099414Y-33620162D01*
X80099416Y-33620163D01*
X80230608Y-33707822D01*
X80342178Y-33819392D01*
X80429837Y-33950584D01*
X80429838Y-33950586D01*
X80490219Y-34096358D01*
X80521000Y-34251107D01*
X80521000Y-34408893D01*
X80490219Y-34563642D01*
X80458076Y-34641242D01*
X80429837Y-34709416D01*
X80342178Y-34840608D01*
X80230608Y-34952178D01*
X80099416Y-35039837D01*
X80099415Y-35039838D01*
X80099414Y-35039838D01*
X79953642Y-35100219D01*
X79798893Y-35131000D01*
X79641107Y-35131000D01*
X79486358Y-35100219D01*
X79340586Y-35039838D01*
X79340585Y-35039838D01*
X79340584Y-35039837D01*
X79209392Y-34952178D01*
X79097822Y-34840608D01*
X79010163Y-34709416D01*
X78981924Y-34641242D01*
X78949781Y-34563642D01*
X78919000Y-34408893D01*
X78919000Y-34251107D01*
X78949781Y-34096358D01*
X79010162Y-33950586D01*
X79010163Y-33950584D01*
X79097822Y-33819392D01*
X79209392Y-33707822D01*
X79340584Y-33620163D01*
X79340586Y-33620162D01*
X79486358Y-33559781D01*
X79641107Y-33529000D01*
X79798893Y-33529000D01*
X79953642Y-33559781D01*
G37*
G36*
X88141000Y-35131000D02*
G01*
X86539000Y-35131000D01*
X86539000Y-33529000D01*
X88141000Y-33529000D01*
X88141000Y-35131000D01*
G37*
G36*
X89568721Y-33760174D02*
G01*
X89668995Y-33801709D01*
X89668996Y-33801710D01*
X89759242Y-33862010D01*
X89835990Y-33938758D01*
X89835991Y-33938760D01*
X89896291Y-34029005D01*
X89937826Y-34129279D01*
X89959000Y-34235730D01*
X89959000Y-34344270D01*
X89937826Y-34450721D01*
X89896291Y-34550995D01*
X89887840Y-34563643D01*
X89835990Y-34641242D01*
X89759242Y-34717990D01*
X89713812Y-34748345D01*
X89668995Y-34778291D01*
X89568721Y-34819826D01*
X89462270Y-34841000D01*
X89353730Y-34841000D01*
X89247279Y-34819826D01*
X89147005Y-34778291D01*
X89102188Y-34748345D01*
X89056758Y-34717990D01*
X88980010Y-34641242D01*
X88928160Y-34563643D01*
X88919709Y-34550995D01*
X88878174Y-34450721D01*
X88857000Y-34344270D01*
X88857000Y-34235730D01*
X88878174Y-34129279D01*
X88919709Y-34029005D01*
X88980009Y-33938760D01*
X88980010Y-33938758D01*
X89056758Y-33862010D01*
X89147004Y-33801710D01*
X89147005Y-33801709D01*
X89247279Y-33760174D01*
X89353730Y-33739000D01*
X89462270Y-33739000D01*
X89568721Y-33760174D01*
G37*
G36*
X92871000Y-34261000D02*
G01*
X91969000Y-34261000D01*
X91969000Y-33259000D01*
X92871000Y-33259000D01*
X92871000Y-34261000D01*
G37*
G36*
X79661000Y-32951000D02*
G01*
X78059000Y-32951000D01*
X78059000Y-30849000D01*
X79661000Y-30849000D01*
X79661000Y-32951000D01*
G37*
G36*
X81961000Y-32951000D02*
G01*
X80359000Y-32951000D01*
X80359000Y-30849000D01*
X81961000Y-30849000D01*
X81961000Y-32951000D01*
G37*
G36*
X84261000Y-32951000D02*
G01*
X82659000Y-32951000D01*
X82659000Y-30849000D01*
X84261000Y-30849000D01*
X84261000Y-32951000D01*
G37*
G36*
X117419059Y-30877860D02*
G01*
X117555732Y-30934472D01*
X117678735Y-31016660D01*
X117783340Y-31121265D01*
X117865528Y-31244268D01*
X117922140Y-31380941D01*
X117951000Y-31526033D01*
X117951000Y-31673967D01*
X117922140Y-31819059D01*
X117865528Y-31955732D01*
X117783340Y-32078735D01*
X117678735Y-32183340D01*
X117555732Y-32265528D01*
X117555731Y-32265529D01*
X117555730Y-32265529D01*
X117419059Y-32322140D01*
X117273968Y-32351000D01*
X117126032Y-32351000D01*
X116980941Y-32322140D01*
X116844270Y-32265529D01*
X116844269Y-32265529D01*
X116844268Y-32265528D01*
X116721265Y-32183340D01*
X116616660Y-32078735D01*
X116534472Y-31955732D01*
X116477860Y-31819059D01*
X116449000Y-31673967D01*
X116449000Y-31526033D01*
X116477860Y-31380941D01*
X116534472Y-31244268D01*
X116616660Y-31121265D01*
X116721265Y-31016660D01*
X116844268Y-30934472D01*
X116980941Y-30877860D01*
X117126032Y-30849000D01*
X117273968Y-30849000D01*
X117419059Y-30877860D01*
G37*
G36*
X117419059Y-28337860D02*
G01*
X117555732Y-28394472D01*
X117678735Y-28476660D01*
X117783340Y-28581265D01*
X117865528Y-28704268D01*
X117922140Y-28840941D01*
X117951000Y-28986033D01*
X117951000Y-29133967D01*
X117922140Y-29279059D01*
X117865528Y-29415732D01*
X117783340Y-29538735D01*
X117678735Y-29643340D01*
X117555732Y-29725528D01*
X117555731Y-29725529D01*
X117555730Y-29725529D01*
X117419059Y-29782140D01*
X117273968Y-29811000D01*
X117126032Y-29811000D01*
X116980941Y-29782140D01*
X116844270Y-29725529D01*
X116844269Y-29725529D01*
X116844268Y-29725528D01*
X116721265Y-29643340D01*
X116616660Y-29538735D01*
X116534472Y-29415732D01*
X116477860Y-29279059D01*
X116449000Y-29133967D01*
X116449000Y-28986033D01*
X116477860Y-28840941D01*
X116534472Y-28704268D01*
X116616660Y-28581265D01*
X116721265Y-28476660D01*
X116844268Y-28394472D01*
X116980941Y-28337860D01*
X117126032Y-28309000D01*
X117273968Y-28309000D01*
X117419059Y-28337860D01*
G37*
G36*
X110771000Y-27651000D02*
G01*
X107869000Y-27651000D01*
X107869000Y-24749000D01*
X110771000Y-24749000D01*
X110771000Y-27651000D01*
G37*
G36*
X103171000Y-27651000D02*
G01*
X100269000Y-27651000D01*
X100269000Y-24749000D01*
X103171000Y-24749000D01*
X103171000Y-27651000D01*
G37*
G36*
X114171000Y-27651000D02*
G01*
X111269000Y-27651000D01*
X111269000Y-24749000D01*
X114171000Y-24749000D01*
X114171000Y-27651000D01*
G37*
G36*
X99671000Y-27651000D02*
G01*
X96769000Y-27651000D01*
X96769000Y-24749000D01*
X99671000Y-24749000D01*
X99671000Y-27651000D01*
G37*
G36*
X83111000Y-26651000D02*
G01*
X79209000Y-26651000D01*
X79209000Y-24549000D01*
X83111000Y-24549000D01*
X83111000Y-26651000D01*
G37*
G36*
X80059059Y-21567860D02*
G01*
X80195732Y-21624472D01*
X80318735Y-21706660D01*
X80423340Y-21811265D01*
X80505528Y-21934268D01*
X80562140Y-22070941D01*
X80591000Y-22216033D01*
X80591000Y-22363967D01*
X80562140Y-22509059D01*
X80505528Y-22645732D01*
X80423340Y-22768735D01*
X80318735Y-22873340D01*
X80195732Y-22955528D01*
X80195731Y-22955529D01*
X80195730Y-22955529D01*
X80059059Y-23012140D01*
X79913968Y-23041000D01*
X79766032Y-23041000D01*
X79620941Y-23012140D01*
X79484270Y-22955529D01*
X79484269Y-22955529D01*
X79484268Y-22955528D01*
X79361265Y-22873340D01*
X79256660Y-22768735D01*
X79174472Y-22645732D01*
X79117860Y-22509059D01*
X79089000Y-22363967D01*
X79089000Y-22216033D01*
X79117860Y-22070941D01*
X79174472Y-21934268D01*
X79256660Y-21811265D01*
X79361265Y-21706660D01*
X79484268Y-21624472D01*
X79620941Y-21567860D01*
X79766032Y-21539000D01*
X79913968Y-21539000D01*
X80059059Y-21567860D01*
G37*
G36*
X87679059Y-21567860D02*
G01*
X87815732Y-21624472D01*
X87938735Y-21706660D01*
X88043340Y-21811265D01*
X88125528Y-21934268D01*
X88182140Y-22070941D01*
X88211000Y-22216033D01*
X88211000Y-22363967D01*
X88182140Y-22509059D01*
X88125528Y-22645732D01*
X88043340Y-22768735D01*
X87938735Y-22873340D01*
X87815732Y-22955528D01*
X87815731Y-22955529D01*
X87815730Y-22955529D01*
X87679059Y-23012140D01*
X87533968Y-23041000D01*
X87386032Y-23041000D01*
X87240941Y-23012140D01*
X87104270Y-22955529D01*
X87104269Y-22955529D01*
X87104268Y-22955528D01*
X86981265Y-22873340D01*
X86876660Y-22768735D01*
X86794472Y-22645732D01*
X86737860Y-22509059D01*
X86709000Y-22363967D01*
X86709000Y-22216033D01*
X86737860Y-22070941D01*
X86794472Y-21934268D01*
X86876660Y-21811265D01*
X86981265Y-21706660D01*
X87104268Y-21624472D01*
X87240941Y-21567860D01*
X87386032Y-21539000D01*
X87533968Y-21539000D01*
X87679059Y-21567860D01*
G37*
M02*
