G04 #@! TF.GenerationSoftware,KiCad,Pcbnew,(5.1.5)-3*
G04 #@! TF.CreationDate,2020-05-01T11:50:26+02:00*
G04 #@! TF.ProjectId,AGB_LIPO,4147425f-4c49-4504-9f2e-6b696361645f,rev?*
G04 #@! TF.SameCoordinates,Original*
G04 #@! TF.FileFunction,Soldermask,Bot*
G04 #@! TF.FilePolarity,Negative*
%FSLAX46Y46*%
G04 Gerber Fmt 4.6, Leading zero omitted, Abs format (unit mm)*
G04 Created by KiCad (PCBNEW (5.1.5)-3) date 2020-05-01 11:50:26*
%MOMM*%
%LPD*%
G04 APERTURE LIST*
%ADD10C,0.100000*%
G04 APERTURE END LIST*
D10*
G36*
X125928500Y-41250000D02*
G01*
X119678500Y-41250000D01*
X119678500Y-36000000D01*
X125928500Y-36000000D01*
X125928500Y-41250000D01*
G37*
X125928500Y-41250000D02*
X119678500Y-41250000D01*
X119678500Y-36000000D01*
X125928500Y-36000000D01*
X125928500Y-41250000D01*
G36*
X125992000Y-25750000D02*
G01*
X119742000Y-25750000D01*
X119742000Y-20500000D01*
X125992000Y-20500000D01*
X125992000Y-25750000D01*
G37*
X125992000Y-25750000D02*
X119742000Y-25750000D01*
X119742000Y-20500000D01*
X125992000Y-20500000D01*
X125992000Y-25750000D01*
G36*
X95601221Y-40745174D02*
G01*
X95701495Y-40786709D01*
X95701496Y-40786710D01*
X95791742Y-40847010D01*
X95868490Y-40923758D01*
X95868491Y-40923760D01*
X95928791Y-41014005D01*
X95970326Y-41114279D01*
X95991500Y-41220730D01*
X95991500Y-41329270D01*
X95970326Y-41435721D01*
X95928791Y-41535995D01*
X95928790Y-41535996D01*
X95868490Y-41626242D01*
X95791742Y-41702990D01*
X95746312Y-41733345D01*
X95701495Y-41763291D01*
X95601221Y-41804826D01*
X95494770Y-41826000D01*
X95386230Y-41826000D01*
X95279779Y-41804826D01*
X95179505Y-41763291D01*
X95134688Y-41733345D01*
X95089258Y-41702990D01*
X95012510Y-41626242D01*
X94952210Y-41535996D01*
X94952209Y-41535995D01*
X94910674Y-41435721D01*
X94889500Y-41329270D01*
X94889500Y-41220730D01*
X94910674Y-41114279D01*
X94952209Y-41014005D01*
X95012509Y-40923760D01*
X95012510Y-40923758D01*
X95089258Y-40847010D01*
X95179504Y-40786710D01*
X95179505Y-40786709D01*
X95279779Y-40745174D01*
X95386230Y-40724000D01*
X95494770Y-40724000D01*
X95601221Y-40745174D01*
G37*
G36*
X78574012Y-38953427D02*
G01*
X78723312Y-38983124D01*
X78887284Y-39051044D01*
X79034854Y-39149647D01*
X79160353Y-39275146D01*
X79258956Y-39422716D01*
X79326876Y-39586688D01*
X79361500Y-39760759D01*
X79361500Y-39938241D01*
X79326876Y-40112312D01*
X79258956Y-40276284D01*
X79160353Y-40423854D01*
X79034854Y-40549353D01*
X78887284Y-40647956D01*
X78723312Y-40715876D01*
X78576017Y-40745174D01*
X78549242Y-40750500D01*
X78371758Y-40750500D01*
X78344983Y-40745174D01*
X78197688Y-40715876D01*
X78033716Y-40647956D01*
X77886146Y-40549353D01*
X77760647Y-40423854D01*
X77662044Y-40276284D01*
X77594124Y-40112312D01*
X77559500Y-39938241D01*
X77559500Y-39760759D01*
X77594124Y-39586688D01*
X77662044Y-39422716D01*
X77760647Y-39275146D01*
X77886146Y-39149647D01*
X78033716Y-39051044D01*
X78197688Y-38983124D01*
X78346988Y-38953427D01*
X78371758Y-38948500D01*
X78549242Y-38948500D01*
X78574012Y-38953427D01*
G37*
G36*
X79361500Y-38210500D02*
G01*
X77559500Y-38210500D01*
X77559500Y-36408500D01*
X79361500Y-36408500D01*
X79361500Y-38210500D01*
G37*
G36*
X92177500Y-37694500D02*
G01*
X90575500Y-37694500D01*
X90575500Y-36092500D01*
X92177500Y-36092500D01*
X92177500Y-37694500D01*
G37*
G36*
X83990142Y-36123281D02*
G01*
X84135914Y-36183662D01*
X84135916Y-36183663D01*
X84267108Y-36271322D01*
X84378678Y-36382892D01*
X84466337Y-36514084D01*
X84466338Y-36514086D01*
X84526719Y-36659858D01*
X84557500Y-36814607D01*
X84557500Y-36972393D01*
X84526719Y-37127142D01*
X84466338Y-37272914D01*
X84466337Y-37272916D01*
X84378678Y-37404108D01*
X84267108Y-37515678D01*
X84135916Y-37603337D01*
X84135915Y-37603338D01*
X84135914Y-37603338D01*
X83990142Y-37663719D01*
X83835393Y-37694500D01*
X83677607Y-37694500D01*
X83522858Y-37663719D01*
X83377086Y-37603338D01*
X83377085Y-37603338D01*
X83377084Y-37603337D01*
X83245892Y-37515678D01*
X83134322Y-37404108D01*
X83046663Y-37272916D01*
X83046662Y-37272914D01*
X82986281Y-37127142D01*
X82955500Y-36972393D01*
X82955500Y-36814607D01*
X82986281Y-36659858D01*
X83046662Y-36514086D01*
X83046663Y-36514084D01*
X83134322Y-36382892D01*
X83245892Y-36271322D01*
X83377084Y-36183663D01*
X83377086Y-36183662D01*
X83522858Y-36123281D01*
X83677607Y-36092500D01*
X83835393Y-36092500D01*
X83990142Y-36123281D01*
G37*
G36*
X83975559Y-34012360D02*
G01*
X84112232Y-34068972D01*
X84235235Y-34151160D01*
X84339840Y-34255765D01*
X84422028Y-34378768D01*
X84478640Y-34515441D01*
X84507500Y-34660533D01*
X84507500Y-34808467D01*
X84478640Y-34953559D01*
X84422028Y-35090232D01*
X84339840Y-35213235D01*
X84235235Y-35317840D01*
X84112232Y-35400028D01*
X84112231Y-35400029D01*
X84112230Y-35400029D01*
X83975559Y-35456640D01*
X83830468Y-35485500D01*
X83682532Y-35485500D01*
X83537441Y-35456640D01*
X83400770Y-35400029D01*
X83400769Y-35400029D01*
X83400768Y-35400028D01*
X83277765Y-35317840D01*
X83173160Y-35213235D01*
X83090972Y-35090232D01*
X83034360Y-34953559D01*
X83005500Y-34808467D01*
X83005500Y-34660533D01*
X83034360Y-34515441D01*
X83090972Y-34378768D01*
X83173160Y-34255765D01*
X83277765Y-34151160D01*
X83400768Y-34068972D01*
X83537441Y-34012360D01*
X83682532Y-33983500D01*
X83830468Y-33983500D01*
X83975559Y-34012360D01*
G37*
G36*
X91595559Y-34012360D02*
G01*
X91732232Y-34068972D01*
X91855235Y-34151160D01*
X91959840Y-34255765D01*
X92042028Y-34378768D01*
X92098640Y-34515441D01*
X92127500Y-34660533D01*
X92127500Y-34808467D01*
X92098640Y-34953559D01*
X92042028Y-35090232D01*
X91959840Y-35213235D01*
X91855235Y-35317840D01*
X91732232Y-35400028D01*
X91732231Y-35400029D01*
X91732230Y-35400029D01*
X91595559Y-35456640D01*
X91450468Y-35485500D01*
X91302532Y-35485500D01*
X91157441Y-35456640D01*
X91020770Y-35400029D01*
X91020769Y-35400029D01*
X91020768Y-35400028D01*
X90897765Y-35317840D01*
X90793160Y-35213235D01*
X90710972Y-35090232D01*
X90654360Y-34953559D01*
X90625500Y-34808467D01*
X90625500Y-34660533D01*
X90654360Y-34515441D01*
X90710972Y-34378768D01*
X90793160Y-34255765D01*
X90897765Y-34151160D01*
X91020768Y-34068972D01*
X91157441Y-34012360D01*
X91302532Y-33983500D01*
X91450468Y-33983500D01*
X91595559Y-34012360D01*
G37*
G36*
X117419059Y-30877860D02*
G01*
X117555732Y-30934472D01*
X117678735Y-31016660D01*
X117783340Y-31121265D01*
X117865528Y-31244268D01*
X117922140Y-31380941D01*
X117951000Y-31526033D01*
X117951000Y-31673967D01*
X117922140Y-31819059D01*
X117865528Y-31955732D01*
X117783340Y-32078735D01*
X117678735Y-32183340D01*
X117555732Y-32265528D01*
X117555731Y-32265529D01*
X117555730Y-32265529D01*
X117419059Y-32322140D01*
X117273968Y-32351000D01*
X117126032Y-32351000D01*
X116980941Y-32322140D01*
X116844270Y-32265529D01*
X116844269Y-32265529D01*
X116844268Y-32265528D01*
X116721265Y-32183340D01*
X116616660Y-32078735D01*
X116534472Y-31955732D01*
X116477860Y-31819059D01*
X116449000Y-31673967D01*
X116449000Y-31526033D01*
X116477860Y-31380941D01*
X116534472Y-31244268D01*
X116616660Y-31121265D01*
X116721265Y-31016660D01*
X116844268Y-30934472D01*
X116980941Y-30877860D01*
X117126032Y-30849000D01*
X117273968Y-30849000D01*
X117419059Y-30877860D01*
G37*
G36*
X117419059Y-28337860D02*
G01*
X117555732Y-28394472D01*
X117678735Y-28476660D01*
X117783340Y-28581265D01*
X117865528Y-28704268D01*
X117922140Y-28840941D01*
X117951000Y-28986033D01*
X117951000Y-29133967D01*
X117922140Y-29279059D01*
X117865528Y-29415732D01*
X117783340Y-29538735D01*
X117678735Y-29643340D01*
X117555732Y-29725528D01*
X117555731Y-29725529D01*
X117555730Y-29725529D01*
X117419059Y-29782140D01*
X117273968Y-29811000D01*
X117126032Y-29811000D01*
X116980941Y-29782140D01*
X116844270Y-29725529D01*
X116844269Y-29725529D01*
X116844268Y-29725528D01*
X116721265Y-29643340D01*
X116616660Y-29538735D01*
X116534472Y-29415732D01*
X116477860Y-29279059D01*
X116449000Y-29133967D01*
X116449000Y-28986033D01*
X116477860Y-28840941D01*
X116534472Y-28704268D01*
X116616660Y-28581265D01*
X116721265Y-28476660D01*
X116844268Y-28394472D01*
X116980941Y-28337860D01*
X117126032Y-28309000D01*
X117273968Y-28309000D01*
X117419059Y-28337860D01*
G37*
G36*
X114171000Y-27651000D02*
G01*
X111269000Y-27651000D01*
X111269000Y-24749000D01*
X114171000Y-24749000D01*
X114171000Y-27651000D01*
G37*
G36*
X110771000Y-27651000D02*
G01*
X107869000Y-27651000D01*
X107869000Y-24749000D01*
X110771000Y-24749000D01*
X110771000Y-27651000D01*
G37*
G36*
X103171000Y-27651000D02*
G01*
X100269000Y-27651000D01*
X100269000Y-24749000D01*
X103171000Y-24749000D01*
X103171000Y-27651000D01*
G37*
G36*
X99671000Y-27651000D02*
G01*
X96769000Y-27651000D01*
X96769000Y-24749000D01*
X99671000Y-24749000D01*
X99671000Y-27651000D01*
G37*
G36*
X91786059Y-20423360D02*
G01*
X91922732Y-20479972D01*
X92045735Y-20562160D01*
X92150340Y-20666765D01*
X92232528Y-20789768D01*
X92289140Y-20926441D01*
X92318000Y-21071533D01*
X92318000Y-21219467D01*
X92289140Y-21364559D01*
X92232528Y-21501232D01*
X92150340Y-21624235D01*
X92045735Y-21728840D01*
X91922732Y-21811028D01*
X91922731Y-21811029D01*
X91922730Y-21811029D01*
X91786059Y-21867640D01*
X91640968Y-21896500D01*
X91493032Y-21896500D01*
X91347941Y-21867640D01*
X91211270Y-21811029D01*
X91211269Y-21811029D01*
X91211268Y-21811028D01*
X91088265Y-21728840D01*
X90983660Y-21624235D01*
X90901472Y-21501232D01*
X90844860Y-21364559D01*
X90816000Y-21219467D01*
X90816000Y-21071533D01*
X90844860Y-20926441D01*
X90901472Y-20789768D01*
X90983660Y-20666765D01*
X91088265Y-20562160D01*
X91211268Y-20479972D01*
X91347941Y-20423360D01*
X91493032Y-20394500D01*
X91640968Y-20394500D01*
X91786059Y-20423360D01*
G37*
G36*
X84166059Y-20423360D02*
G01*
X84302732Y-20479972D01*
X84425735Y-20562160D01*
X84530340Y-20666765D01*
X84612528Y-20789768D01*
X84669140Y-20926441D01*
X84698000Y-21071533D01*
X84698000Y-21219467D01*
X84669140Y-21364559D01*
X84612528Y-21501232D01*
X84530340Y-21624235D01*
X84425735Y-21728840D01*
X84302732Y-21811028D01*
X84302731Y-21811029D01*
X84302730Y-21811029D01*
X84166059Y-21867640D01*
X84020968Y-21896500D01*
X83873032Y-21896500D01*
X83727941Y-21867640D01*
X83591270Y-21811029D01*
X83591269Y-21811029D01*
X83591268Y-21811028D01*
X83468265Y-21728840D01*
X83363660Y-21624235D01*
X83281472Y-21501232D01*
X83224860Y-21364559D01*
X83196000Y-21219467D01*
X83196000Y-21071533D01*
X83224860Y-20926441D01*
X83281472Y-20789768D01*
X83363660Y-20666765D01*
X83468265Y-20562160D01*
X83591268Y-20479972D01*
X83727941Y-20423360D01*
X83873032Y-20394500D01*
X84020968Y-20394500D01*
X84166059Y-20423360D01*
G37*
M02*
