G04 #@! TF.GenerationSoftware,KiCad,Pcbnew,(5.1.5)-3*
G04 #@! TF.CreationDate,2020-06-17T17:40:25+02:00*
G04 #@! TF.ProjectId,AGB_LIPO,4147425f-4c49-4504-9f2e-6b696361645f,rev?*
G04 #@! TF.SameCoordinates,Original*
G04 #@! TF.FileFunction,Copper,L1,Top*
G04 #@! TF.FilePolarity,Positive*
%FSLAX46Y46*%
G04 Gerber Fmt 4.6, Leading zero omitted, Abs format (unit mm)*
G04 Created by KiCad (PCBNEW (5.1.5)-3) date 2020-06-17 17:40:25*
%MOMM*%
%LPD*%
G04 APERTURE LIST*
%ADD10C,0.100000*%
%ADD11R,0.600000X1.250000*%
%ADD12C,2.000000*%
%ADD13R,2.500000X2.500000*%
%ADD14R,3.200000X1.900000*%
%ADD15R,0.900000X1.900000*%
%ADD16R,1.850000X2.250000*%
%ADD17R,2.250000X1.850000*%
%ADD18C,1.400000*%
%ADD19O,1.700000X1.700000*%
%ADD20R,1.700000X1.700000*%
%ADD21C,0.800000*%
%ADD22C,0.500000*%
%ADD23C,0.250000*%
%ADD24C,1.000000*%
%ADD25C,0.254000*%
G04 APERTURE END LIST*
D10*
G36*
X163253500Y-112900000D02*
G01*
X157003500Y-112900000D01*
X157003500Y-107650000D01*
X163253500Y-107650000D01*
X163253500Y-112900000D01*
G37*
X163253500Y-112900000D02*
X157003500Y-112900000D01*
X157003500Y-107650000D01*
X163253500Y-107650000D01*
X163253500Y-112900000D01*
G36*
X163317000Y-98875000D02*
G01*
X157067000Y-98875000D01*
X157067000Y-93625000D01*
X163317000Y-93625000D01*
X163317000Y-98875000D01*
G37*
X163317000Y-98875000D02*
X157067000Y-98875000D01*
X157067000Y-93625000D01*
X163317000Y-93625000D01*
X163317000Y-98875000D01*
G04 #@! TA.AperFunction,SMDPad,CuDef*
G36*
X122885779Y-98926144D02*
G01*
X122908834Y-98929563D01*
X122931443Y-98935227D01*
X122953387Y-98943079D01*
X122974457Y-98953044D01*
X122994448Y-98965026D01*
X123013168Y-98978910D01*
X123030438Y-98994562D01*
X123046090Y-99011832D01*
X123059974Y-99030552D01*
X123071956Y-99050543D01*
X123081921Y-99071613D01*
X123089773Y-99093557D01*
X123095437Y-99116166D01*
X123098856Y-99139221D01*
X123100000Y-99162500D01*
X123100000Y-99737500D01*
X123098856Y-99760779D01*
X123095437Y-99783834D01*
X123089773Y-99806443D01*
X123081921Y-99828387D01*
X123071956Y-99849457D01*
X123059974Y-99869448D01*
X123046090Y-99888168D01*
X123030438Y-99905438D01*
X123013168Y-99921090D01*
X122994448Y-99934974D01*
X122974457Y-99946956D01*
X122953387Y-99956921D01*
X122931443Y-99964773D01*
X122908834Y-99970437D01*
X122885779Y-99973856D01*
X122862500Y-99975000D01*
X122387500Y-99975000D01*
X122364221Y-99973856D01*
X122341166Y-99970437D01*
X122318557Y-99964773D01*
X122296613Y-99956921D01*
X122275543Y-99946956D01*
X122255552Y-99934974D01*
X122236832Y-99921090D01*
X122219562Y-99905438D01*
X122203910Y-99888168D01*
X122190026Y-99869448D01*
X122178044Y-99849457D01*
X122168079Y-99828387D01*
X122160227Y-99806443D01*
X122154563Y-99783834D01*
X122151144Y-99760779D01*
X122150000Y-99737500D01*
X122150000Y-99162500D01*
X122151144Y-99139221D01*
X122154563Y-99116166D01*
X122160227Y-99093557D01*
X122168079Y-99071613D01*
X122178044Y-99050543D01*
X122190026Y-99030552D01*
X122203910Y-99011832D01*
X122219562Y-98994562D01*
X122236832Y-98978910D01*
X122255552Y-98965026D01*
X122275543Y-98953044D01*
X122296613Y-98943079D01*
X122318557Y-98935227D01*
X122341166Y-98929563D01*
X122364221Y-98926144D01*
X122387500Y-98925000D01*
X122862500Y-98925000D01*
X122885779Y-98926144D01*
G37*
G04 #@! TD.AperFunction*
G04 #@! TA.AperFunction,SMDPad,CuDef*
G36*
X122885779Y-100676144D02*
G01*
X122908834Y-100679563D01*
X122931443Y-100685227D01*
X122953387Y-100693079D01*
X122974457Y-100703044D01*
X122994448Y-100715026D01*
X123013168Y-100728910D01*
X123030438Y-100744562D01*
X123046090Y-100761832D01*
X123059974Y-100780552D01*
X123071956Y-100800543D01*
X123081921Y-100821613D01*
X123089773Y-100843557D01*
X123095437Y-100866166D01*
X123098856Y-100889221D01*
X123100000Y-100912500D01*
X123100000Y-101487500D01*
X123098856Y-101510779D01*
X123095437Y-101533834D01*
X123089773Y-101556443D01*
X123081921Y-101578387D01*
X123071956Y-101599457D01*
X123059974Y-101619448D01*
X123046090Y-101638168D01*
X123030438Y-101655438D01*
X123013168Y-101671090D01*
X122994448Y-101684974D01*
X122974457Y-101696956D01*
X122953387Y-101706921D01*
X122931443Y-101714773D01*
X122908834Y-101720437D01*
X122885779Y-101723856D01*
X122862500Y-101725000D01*
X122387500Y-101725000D01*
X122364221Y-101723856D01*
X122341166Y-101720437D01*
X122318557Y-101714773D01*
X122296613Y-101706921D01*
X122275543Y-101696956D01*
X122255552Y-101684974D01*
X122236832Y-101671090D01*
X122219562Y-101655438D01*
X122203910Y-101638168D01*
X122190026Y-101619448D01*
X122178044Y-101599457D01*
X122168079Y-101578387D01*
X122160227Y-101556443D01*
X122154563Y-101533834D01*
X122151144Y-101510779D01*
X122150000Y-101487500D01*
X122150000Y-100912500D01*
X122151144Y-100889221D01*
X122154563Y-100866166D01*
X122160227Y-100843557D01*
X122168079Y-100821613D01*
X122178044Y-100800543D01*
X122190026Y-100780552D01*
X122203910Y-100761832D01*
X122219562Y-100744562D01*
X122236832Y-100728910D01*
X122255552Y-100715026D01*
X122275543Y-100703044D01*
X122296613Y-100693079D01*
X122318557Y-100685227D01*
X122341166Y-100679563D01*
X122364221Y-100676144D01*
X122387500Y-100675000D01*
X122862500Y-100675000D01*
X122885779Y-100676144D01*
G37*
G04 #@! TD.AperFunction*
G04 #@! TA.AperFunction,SMDPad,CuDef*
G36*
X125460779Y-112961144D02*
G01*
X125483834Y-112964563D01*
X125506443Y-112970227D01*
X125528387Y-112978079D01*
X125549457Y-112988044D01*
X125569448Y-113000026D01*
X125588168Y-113013910D01*
X125605438Y-113029562D01*
X125621090Y-113046832D01*
X125634974Y-113065552D01*
X125646956Y-113085543D01*
X125656921Y-113106613D01*
X125664773Y-113128557D01*
X125670437Y-113151166D01*
X125673856Y-113174221D01*
X125675000Y-113197500D01*
X125675000Y-113672500D01*
X125673856Y-113695779D01*
X125670437Y-113718834D01*
X125664773Y-113741443D01*
X125656921Y-113763387D01*
X125646956Y-113784457D01*
X125634974Y-113804448D01*
X125621090Y-113823168D01*
X125605438Y-113840438D01*
X125588168Y-113856090D01*
X125569448Y-113869974D01*
X125549457Y-113881956D01*
X125528387Y-113891921D01*
X125506443Y-113899773D01*
X125483834Y-113905437D01*
X125460779Y-113908856D01*
X125437500Y-113910000D01*
X124862500Y-113910000D01*
X124839221Y-113908856D01*
X124816166Y-113905437D01*
X124793557Y-113899773D01*
X124771613Y-113891921D01*
X124750543Y-113881956D01*
X124730552Y-113869974D01*
X124711832Y-113856090D01*
X124694562Y-113840438D01*
X124678910Y-113823168D01*
X124665026Y-113804448D01*
X124653044Y-113784457D01*
X124643079Y-113763387D01*
X124635227Y-113741443D01*
X124629563Y-113718834D01*
X124626144Y-113695779D01*
X124625000Y-113672500D01*
X124625000Y-113197500D01*
X124626144Y-113174221D01*
X124629563Y-113151166D01*
X124635227Y-113128557D01*
X124643079Y-113106613D01*
X124653044Y-113085543D01*
X124665026Y-113065552D01*
X124678910Y-113046832D01*
X124694562Y-113029562D01*
X124711832Y-113013910D01*
X124730552Y-113000026D01*
X124750543Y-112988044D01*
X124771613Y-112978079D01*
X124793557Y-112970227D01*
X124816166Y-112964563D01*
X124839221Y-112961144D01*
X124862500Y-112960000D01*
X125437500Y-112960000D01*
X125460779Y-112961144D01*
G37*
G04 #@! TD.AperFunction*
G04 #@! TA.AperFunction,SMDPad,CuDef*
G36*
X127210779Y-112961144D02*
G01*
X127233834Y-112964563D01*
X127256443Y-112970227D01*
X127278387Y-112978079D01*
X127299457Y-112988044D01*
X127319448Y-113000026D01*
X127338168Y-113013910D01*
X127355438Y-113029562D01*
X127371090Y-113046832D01*
X127384974Y-113065552D01*
X127396956Y-113085543D01*
X127406921Y-113106613D01*
X127414773Y-113128557D01*
X127420437Y-113151166D01*
X127423856Y-113174221D01*
X127425000Y-113197500D01*
X127425000Y-113672500D01*
X127423856Y-113695779D01*
X127420437Y-113718834D01*
X127414773Y-113741443D01*
X127406921Y-113763387D01*
X127396956Y-113784457D01*
X127384974Y-113804448D01*
X127371090Y-113823168D01*
X127355438Y-113840438D01*
X127338168Y-113856090D01*
X127319448Y-113869974D01*
X127299457Y-113881956D01*
X127278387Y-113891921D01*
X127256443Y-113899773D01*
X127233834Y-113905437D01*
X127210779Y-113908856D01*
X127187500Y-113910000D01*
X126612500Y-113910000D01*
X126589221Y-113908856D01*
X126566166Y-113905437D01*
X126543557Y-113899773D01*
X126521613Y-113891921D01*
X126500543Y-113881956D01*
X126480552Y-113869974D01*
X126461832Y-113856090D01*
X126444562Y-113840438D01*
X126428910Y-113823168D01*
X126415026Y-113804448D01*
X126403044Y-113784457D01*
X126393079Y-113763387D01*
X126385227Y-113741443D01*
X126379563Y-113718834D01*
X126376144Y-113695779D01*
X126375000Y-113672500D01*
X126375000Y-113197500D01*
X126376144Y-113174221D01*
X126379563Y-113151166D01*
X126385227Y-113128557D01*
X126393079Y-113106613D01*
X126403044Y-113085543D01*
X126415026Y-113065552D01*
X126428910Y-113046832D01*
X126444562Y-113029562D01*
X126461832Y-113013910D01*
X126480552Y-113000026D01*
X126500543Y-112988044D01*
X126521613Y-112978079D01*
X126543557Y-112970227D01*
X126566166Y-112964563D01*
X126589221Y-112961144D01*
X126612500Y-112960000D01*
X127187500Y-112960000D01*
X127210779Y-112961144D01*
G37*
G04 #@! TD.AperFunction*
G04 #@! TA.AperFunction,SMDPad,CuDef*
G36*
X133851779Y-97034144D02*
G01*
X133874834Y-97037563D01*
X133897443Y-97043227D01*
X133919387Y-97051079D01*
X133940457Y-97061044D01*
X133960448Y-97073026D01*
X133979168Y-97086910D01*
X133996438Y-97102562D01*
X134012090Y-97119832D01*
X134025974Y-97138552D01*
X134037956Y-97158543D01*
X134047921Y-97179613D01*
X134055773Y-97201557D01*
X134061437Y-97224166D01*
X134064856Y-97247221D01*
X134066000Y-97270500D01*
X134066000Y-97845500D01*
X134064856Y-97868779D01*
X134061437Y-97891834D01*
X134055773Y-97914443D01*
X134047921Y-97936387D01*
X134037956Y-97957457D01*
X134025974Y-97977448D01*
X134012090Y-97996168D01*
X133996438Y-98013438D01*
X133979168Y-98029090D01*
X133960448Y-98042974D01*
X133940457Y-98054956D01*
X133919387Y-98064921D01*
X133897443Y-98072773D01*
X133874834Y-98078437D01*
X133851779Y-98081856D01*
X133828500Y-98083000D01*
X133353500Y-98083000D01*
X133330221Y-98081856D01*
X133307166Y-98078437D01*
X133284557Y-98072773D01*
X133262613Y-98064921D01*
X133241543Y-98054956D01*
X133221552Y-98042974D01*
X133202832Y-98029090D01*
X133185562Y-98013438D01*
X133169910Y-97996168D01*
X133156026Y-97977448D01*
X133144044Y-97957457D01*
X133134079Y-97936387D01*
X133126227Y-97914443D01*
X133120563Y-97891834D01*
X133117144Y-97868779D01*
X133116000Y-97845500D01*
X133116000Y-97270500D01*
X133117144Y-97247221D01*
X133120563Y-97224166D01*
X133126227Y-97201557D01*
X133134079Y-97179613D01*
X133144044Y-97158543D01*
X133156026Y-97138552D01*
X133169910Y-97119832D01*
X133185562Y-97102562D01*
X133202832Y-97086910D01*
X133221552Y-97073026D01*
X133241543Y-97061044D01*
X133262613Y-97051079D01*
X133284557Y-97043227D01*
X133307166Y-97037563D01*
X133330221Y-97034144D01*
X133353500Y-97033000D01*
X133828500Y-97033000D01*
X133851779Y-97034144D01*
G37*
G04 #@! TD.AperFunction*
G04 #@! TA.AperFunction,SMDPad,CuDef*
G36*
X133851779Y-98784144D02*
G01*
X133874834Y-98787563D01*
X133897443Y-98793227D01*
X133919387Y-98801079D01*
X133940457Y-98811044D01*
X133960448Y-98823026D01*
X133979168Y-98836910D01*
X133996438Y-98852562D01*
X134012090Y-98869832D01*
X134025974Y-98888552D01*
X134037956Y-98908543D01*
X134047921Y-98929613D01*
X134055773Y-98951557D01*
X134061437Y-98974166D01*
X134064856Y-98997221D01*
X134066000Y-99020500D01*
X134066000Y-99595500D01*
X134064856Y-99618779D01*
X134061437Y-99641834D01*
X134055773Y-99664443D01*
X134047921Y-99686387D01*
X134037956Y-99707457D01*
X134025974Y-99727448D01*
X134012090Y-99746168D01*
X133996438Y-99763438D01*
X133979168Y-99779090D01*
X133960448Y-99792974D01*
X133940457Y-99804956D01*
X133919387Y-99814921D01*
X133897443Y-99822773D01*
X133874834Y-99828437D01*
X133851779Y-99831856D01*
X133828500Y-99833000D01*
X133353500Y-99833000D01*
X133330221Y-99831856D01*
X133307166Y-99828437D01*
X133284557Y-99822773D01*
X133262613Y-99814921D01*
X133241543Y-99804956D01*
X133221552Y-99792974D01*
X133202832Y-99779090D01*
X133185562Y-99763438D01*
X133169910Y-99746168D01*
X133156026Y-99727448D01*
X133144044Y-99707457D01*
X133134079Y-99686387D01*
X133126227Y-99664443D01*
X133120563Y-99641834D01*
X133117144Y-99618779D01*
X133116000Y-99595500D01*
X133116000Y-99020500D01*
X133117144Y-98997221D01*
X133120563Y-98974166D01*
X133126227Y-98951557D01*
X133134079Y-98929613D01*
X133144044Y-98908543D01*
X133156026Y-98888552D01*
X133169910Y-98869832D01*
X133185562Y-98852562D01*
X133202832Y-98836910D01*
X133221552Y-98823026D01*
X133241543Y-98811044D01*
X133262613Y-98801079D01*
X133284557Y-98793227D01*
X133307166Y-98787563D01*
X133330221Y-98784144D01*
X133353500Y-98783000D01*
X133828500Y-98783000D01*
X133851779Y-98784144D01*
G37*
G04 #@! TD.AperFunction*
G04 #@! TA.AperFunction,SMDPad,CuDef*
G36*
X124505779Y-104936144D02*
G01*
X124528834Y-104939563D01*
X124551443Y-104945227D01*
X124573387Y-104953079D01*
X124594457Y-104963044D01*
X124614448Y-104975026D01*
X124633168Y-104988910D01*
X124650438Y-105004562D01*
X124666090Y-105021832D01*
X124679974Y-105040552D01*
X124691956Y-105060543D01*
X124701921Y-105081613D01*
X124709773Y-105103557D01*
X124715437Y-105126166D01*
X124718856Y-105149221D01*
X124720000Y-105172500D01*
X124720000Y-105747500D01*
X124718856Y-105770779D01*
X124715437Y-105793834D01*
X124709773Y-105816443D01*
X124701921Y-105838387D01*
X124691956Y-105859457D01*
X124679974Y-105879448D01*
X124666090Y-105898168D01*
X124650438Y-105915438D01*
X124633168Y-105931090D01*
X124614448Y-105944974D01*
X124594457Y-105956956D01*
X124573387Y-105966921D01*
X124551443Y-105974773D01*
X124528834Y-105980437D01*
X124505779Y-105983856D01*
X124482500Y-105985000D01*
X124007500Y-105985000D01*
X123984221Y-105983856D01*
X123961166Y-105980437D01*
X123938557Y-105974773D01*
X123916613Y-105966921D01*
X123895543Y-105956956D01*
X123875552Y-105944974D01*
X123856832Y-105931090D01*
X123839562Y-105915438D01*
X123823910Y-105898168D01*
X123810026Y-105879448D01*
X123798044Y-105859457D01*
X123788079Y-105838387D01*
X123780227Y-105816443D01*
X123774563Y-105793834D01*
X123771144Y-105770779D01*
X123770000Y-105747500D01*
X123770000Y-105172500D01*
X123771144Y-105149221D01*
X123774563Y-105126166D01*
X123780227Y-105103557D01*
X123788079Y-105081613D01*
X123798044Y-105060543D01*
X123810026Y-105040552D01*
X123823910Y-105021832D01*
X123839562Y-105004562D01*
X123856832Y-104988910D01*
X123875552Y-104975026D01*
X123895543Y-104963044D01*
X123916613Y-104953079D01*
X123938557Y-104945227D01*
X123961166Y-104939563D01*
X123984221Y-104936144D01*
X124007500Y-104935000D01*
X124482500Y-104935000D01*
X124505779Y-104936144D01*
G37*
G04 #@! TD.AperFunction*
G04 #@! TA.AperFunction,SMDPad,CuDef*
G36*
X124505779Y-103186144D02*
G01*
X124528834Y-103189563D01*
X124551443Y-103195227D01*
X124573387Y-103203079D01*
X124594457Y-103213044D01*
X124614448Y-103225026D01*
X124633168Y-103238910D01*
X124650438Y-103254562D01*
X124666090Y-103271832D01*
X124679974Y-103290552D01*
X124691956Y-103310543D01*
X124701921Y-103331613D01*
X124709773Y-103353557D01*
X124715437Y-103376166D01*
X124718856Y-103399221D01*
X124720000Y-103422500D01*
X124720000Y-103997500D01*
X124718856Y-104020779D01*
X124715437Y-104043834D01*
X124709773Y-104066443D01*
X124701921Y-104088387D01*
X124691956Y-104109457D01*
X124679974Y-104129448D01*
X124666090Y-104148168D01*
X124650438Y-104165438D01*
X124633168Y-104181090D01*
X124614448Y-104194974D01*
X124594457Y-104206956D01*
X124573387Y-104216921D01*
X124551443Y-104224773D01*
X124528834Y-104230437D01*
X124505779Y-104233856D01*
X124482500Y-104235000D01*
X124007500Y-104235000D01*
X123984221Y-104233856D01*
X123961166Y-104230437D01*
X123938557Y-104224773D01*
X123916613Y-104216921D01*
X123895543Y-104206956D01*
X123875552Y-104194974D01*
X123856832Y-104181090D01*
X123839562Y-104165438D01*
X123823910Y-104148168D01*
X123810026Y-104129448D01*
X123798044Y-104109457D01*
X123788079Y-104088387D01*
X123780227Y-104066443D01*
X123774563Y-104043834D01*
X123771144Y-104020779D01*
X123770000Y-103997500D01*
X123770000Y-103422500D01*
X123771144Y-103399221D01*
X123774563Y-103376166D01*
X123780227Y-103353557D01*
X123788079Y-103331613D01*
X123798044Y-103310543D01*
X123810026Y-103290552D01*
X123823910Y-103271832D01*
X123839562Y-103254562D01*
X123856832Y-103238910D01*
X123875552Y-103225026D01*
X123895543Y-103213044D01*
X123916613Y-103203079D01*
X123938557Y-103195227D01*
X123961166Y-103189563D01*
X123984221Y-103186144D01*
X124007500Y-103185000D01*
X124482500Y-103185000D01*
X124505779Y-103186144D01*
G37*
G04 #@! TD.AperFunction*
G04 #@! TA.AperFunction,SMDPad,CuDef*
G36*
X127319505Y-110446204D02*
G01*
X127343773Y-110449804D01*
X127367572Y-110455765D01*
X127390671Y-110464030D01*
X127412850Y-110474520D01*
X127433893Y-110487132D01*
X127453599Y-110501747D01*
X127471777Y-110518223D01*
X127488253Y-110536401D01*
X127502868Y-110556107D01*
X127515480Y-110577150D01*
X127525970Y-110599329D01*
X127534235Y-110622428D01*
X127540196Y-110646227D01*
X127543796Y-110670495D01*
X127545000Y-110694999D01*
X127545000Y-111595001D01*
X127543796Y-111619505D01*
X127540196Y-111643773D01*
X127534235Y-111667572D01*
X127525970Y-111690671D01*
X127515480Y-111712850D01*
X127502868Y-111733893D01*
X127488253Y-111753599D01*
X127471777Y-111771777D01*
X127453599Y-111788253D01*
X127433893Y-111802868D01*
X127412850Y-111815480D01*
X127390671Y-111825970D01*
X127367572Y-111834235D01*
X127343773Y-111840196D01*
X127319505Y-111843796D01*
X127295001Y-111845000D01*
X126644999Y-111845000D01*
X126620495Y-111843796D01*
X126596227Y-111840196D01*
X126572428Y-111834235D01*
X126549329Y-111825970D01*
X126527150Y-111815480D01*
X126506107Y-111802868D01*
X126486401Y-111788253D01*
X126468223Y-111771777D01*
X126451747Y-111753599D01*
X126437132Y-111733893D01*
X126424520Y-111712850D01*
X126414030Y-111690671D01*
X126405765Y-111667572D01*
X126399804Y-111643773D01*
X126396204Y-111619505D01*
X126395000Y-111595001D01*
X126395000Y-110694999D01*
X126396204Y-110670495D01*
X126399804Y-110646227D01*
X126405765Y-110622428D01*
X126414030Y-110599329D01*
X126424520Y-110577150D01*
X126437132Y-110556107D01*
X126451747Y-110536401D01*
X126468223Y-110518223D01*
X126486401Y-110501747D01*
X126506107Y-110487132D01*
X126527150Y-110474520D01*
X126549329Y-110464030D01*
X126572428Y-110455765D01*
X126596227Y-110449804D01*
X126620495Y-110446204D01*
X126644999Y-110445000D01*
X127295001Y-110445000D01*
X127319505Y-110446204D01*
G37*
G04 #@! TD.AperFunction*
G04 #@! TA.AperFunction,SMDPad,CuDef*
G36*
X129369505Y-110446204D02*
G01*
X129393773Y-110449804D01*
X129417572Y-110455765D01*
X129440671Y-110464030D01*
X129462850Y-110474520D01*
X129483893Y-110487132D01*
X129503599Y-110501747D01*
X129521777Y-110518223D01*
X129538253Y-110536401D01*
X129552868Y-110556107D01*
X129565480Y-110577150D01*
X129575970Y-110599329D01*
X129584235Y-110622428D01*
X129590196Y-110646227D01*
X129593796Y-110670495D01*
X129595000Y-110694999D01*
X129595000Y-111595001D01*
X129593796Y-111619505D01*
X129590196Y-111643773D01*
X129584235Y-111667572D01*
X129575970Y-111690671D01*
X129565480Y-111712850D01*
X129552868Y-111733893D01*
X129538253Y-111753599D01*
X129521777Y-111771777D01*
X129503599Y-111788253D01*
X129483893Y-111802868D01*
X129462850Y-111815480D01*
X129440671Y-111825970D01*
X129417572Y-111834235D01*
X129393773Y-111840196D01*
X129369505Y-111843796D01*
X129345001Y-111845000D01*
X128694999Y-111845000D01*
X128670495Y-111843796D01*
X128646227Y-111840196D01*
X128622428Y-111834235D01*
X128599329Y-111825970D01*
X128577150Y-111815480D01*
X128556107Y-111802868D01*
X128536401Y-111788253D01*
X128518223Y-111771777D01*
X128501747Y-111753599D01*
X128487132Y-111733893D01*
X128474520Y-111712850D01*
X128464030Y-111690671D01*
X128455765Y-111667572D01*
X128449804Y-111643773D01*
X128446204Y-111619505D01*
X128445000Y-111595001D01*
X128445000Y-110694999D01*
X128446204Y-110670495D01*
X128449804Y-110646227D01*
X128455765Y-110622428D01*
X128464030Y-110599329D01*
X128474520Y-110577150D01*
X128487132Y-110556107D01*
X128501747Y-110536401D01*
X128518223Y-110518223D01*
X128536401Y-110501747D01*
X128556107Y-110487132D01*
X128577150Y-110474520D01*
X128599329Y-110464030D01*
X128622428Y-110455765D01*
X128646227Y-110449804D01*
X128670495Y-110446204D01*
X128694999Y-110445000D01*
X129345001Y-110445000D01*
X129369505Y-110446204D01*
G37*
G04 #@! TD.AperFunction*
G04 #@! TA.AperFunction,SMDPad,CuDef*
G36*
X128589505Y-108148204D02*
G01*
X128613773Y-108151804D01*
X128637572Y-108157765D01*
X128660671Y-108166030D01*
X128682850Y-108176520D01*
X128703893Y-108189132D01*
X128723599Y-108203747D01*
X128741777Y-108220223D01*
X128758253Y-108238401D01*
X128772868Y-108258107D01*
X128785480Y-108279150D01*
X128795970Y-108301329D01*
X128804235Y-108324428D01*
X128810196Y-108348227D01*
X128813796Y-108372495D01*
X128815000Y-108396999D01*
X128815000Y-109297001D01*
X128813796Y-109321505D01*
X128810196Y-109345773D01*
X128804235Y-109369572D01*
X128795970Y-109392671D01*
X128785480Y-109414850D01*
X128772868Y-109435893D01*
X128758253Y-109455599D01*
X128741777Y-109473777D01*
X128723599Y-109490253D01*
X128703893Y-109504868D01*
X128682850Y-109517480D01*
X128660671Y-109527970D01*
X128637572Y-109536235D01*
X128613773Y-109542196D01*
X128589505Y-109545796D01*
X128565001Y-109547000D01*
X127914999Y-109547000D01*
X127890495Y-109545796D01*
X127866227Y-109542196D01*
X127842428Y-109536235D01*
X127819329Y-109527970D01*
X127797150Y-109517480D01*
X127776107Y-109504868D01*
X127756401Y-109490253D01*
X127738223Y-109473777D01*
X127721747Y-109455599D01*
X127707132Y-109435893D01*
X127694520Y-109414850D01*
X127684030Y-109392671D01*
X127675765Y-109369572D01*
X127669804Y-109345773D01*
X127666204Y-109321505D01*
X127665000Y-109297001D01*
X127665000Y-108396999D01*
X127666204Y-108372495D01*
X127669804Y-108348227D01*
X127675765Y-108324428D01*
X127684030Y-108301329D01*
X127694520Y-108279150D01*
X127707132Y-108258107D01*
X127721747Y-108238401D01*
X127738223Y-108220223D01*
X127756401Y-108203747D01*
X127776107Y-108189132D01*
X127797150Y-108176520D01*
X127819329Y-108166030D01*
X127842428Y-108157765D01*
X127866227Y-108151804D01*
X127890495Y-108148204D01*
X127914999Y-108147000D01*
X128565001Y-108147000D01*
X128589505Y-108148204D01*
G37*
G04 #@! TD.AperFunction*
G04 #@! TA.AperFunction,SMDPad,CuDef*
G36*
X126539505Y-108148204D02*
G01*
X126563773Y-108151804D01*
X126587572Y-108157765D01*
X126610671Y-108166030D01*
X126632850Y-108176520D01*
X126653893Y-108189132D01*
X126673599Y-108203747D01*
X126691777Y-108220223D01*
X126708253Y-108238401D01*
X126722868Y-108258107D01*
X126735480Y-108279150D01*
X126745970Y-108301329D01*
X126754235Y-108324428D01*
X126760196Y-108348227D01*
X126763796Y-108372495D01*
X126765000Y-108396999D01*
X126765000Y-109297001D01*
X126763796Y-109321505D01*
X126760196Y-109345773D01*
X126754235Y-109369572D01*
X126745970Y-109392671D01*
X126735480Y-109414850D01*
X126722868Y-109435893D01*
X126708253Y-109455599D01*
X126691777Y-109473777D01*
X126673599Y-109490253D01*
X126653893Y-109504868D01*
X126632850Y-109517480D01*
X126610671Y-109527970D01*
X126587572Y-109536235D01*
X126563773Y-109542196D01*
X126539505Y-109545796D01*
X126515001Y-109547000D01*
X125864999Y-109547000D01*
X125840495Y-109545796D01*
X125816227Y-109542196D01*
X125792428Y-109536235D01*
X125769329Y-109527970D01*
X125747150Y-109517480D01*
X125726107Y-109504868D01*
X125706401Y-109490253D01*
X125688223Y-109473777D01*
X125671747Y-109455599D01*
X125657132Y-109435893D01*
X125644520Y-109414850D01*
X125634030Y-109392671D01*
X125625765Y-109369572D01*
X125619804Y-109345773D01*
X125616204Y-109321505D01*
X125615000Y-109297001D01*
X125615000Y-108396999D01*
X125616204Y-108372495D01*
X125619804Y-108348227D01*
X125625765Y-108324428D01*
X125634030Y-108301329D01*
X125644520Y-108279150D01*
X125657132Y-108258107D01*
X125671747Y-108238401D01*
X125688223Y-108220223D01*
X125706401Y-108203747D01*
X125726107Y-108189132D01*
X125747150Y-108176520D01*
X125769329Y-108166030D01*
X125792428Y-108157765D01*
X125816227Y-108151804D01*
X125840495Y-108148204D01*
X125864999Y-108147000D01*
X126515001Y-108147000D01*
X126539505Y-108148204D01*
G37*
G04 #@! TD.AperFunction*
G04 #@! TA.AperFunction,SMDPad,CuDef*
G36*
X124579505Y-111016204D02*
G01*
X124603773Y-111019804D01*
X124627572Y-111025765D01*
X124650671Y-111034030D01*
X124672850Y-111044520D01*
X124693893Y-111057132D01*
X124713599Y-111071747D01*
X124731777Y-111088223D01*
X124748253Y-111106401D01*
X124762868Y-111126107D01*
X124775480Y-111147150D01*
X124785970Y-111169329D01*
X124794235Y-111192428D01*
X124800196Y-111216227D01*
X124803796Y-111240495D01*
X124805000Y-111264999D01*
X124805000Y-112165001D01*
X124803796Y-112189505D01*
X124800196Y-112213773D01*
X124794235Y-112237572D01*
X124785970Y-112260671D01*
X124775480Y-112282850D01*
X124762868Y-112303893D01*
X124748253Y-112323599D01*
X124731777Y-112341777D01*
X124713599Y-112358253D01*
X124693893Y-112372868D01*
X124672850Y-112385480D01*
X124650671Y-112395970D01*
X124627572Y-112404235D01*
X124603773Y-112410196D01*
X124579505Y-112413796D01*
X124555001Y-112415000D01*
X123904999Y-112415000D01*
X123880495Y-112413796D01*
X123856227Y-112410196D01*
X123832428Y-112404235D01*
X123809329Y-112395970D01*
X123787150Y-112385480D01*
X123766107Y-112372868D01*
X123746401Y-112358253D01*
X123728223Y-112341777D01*
X123711747Y-112323599D01*
X123697132Y-112303893D01*
X123684520Y-112282850D01*
X123674030Y-112260671D01*
X123665765Y-112237572D01*
X123659804Y-112213773D01*
X123656204Y-112189505D01*
X123655000Y-112165001D01*
X123655000Y-111264999D01*
X123656204Y-111240495D01*
X123659804Y-111216227D01*
X123665765Y-111192428D01*
X123674030Y-111169329D01*
X123684520Y-111147150D01*
X123697132Y-111126107D01*
X123711747Y-111106401D01*
X123728223Y-111088223D01*
X123746401Y-111071747D01*
X123766107Y-111057132D01*
X123787150Y-111044520D01*
X123809329Y-111034030D01*
X123832428Y-111025765D01*
X123856227Y-111019804D01*
X123880495Y-111016204D01*
X123904999Y-111015000D01*
X124555001Y-111015000D01*
X124579505Y-111016204D01*
G37*
G04 #@! TD.AperFunction*
G04 #@! TA.AperFunction,SMDPad,CuDef*
G36*
X122529505Y-111016204D02*
G01*
X122553773Y-111019804D01*
X122577572Y-111025765D01*
X122600671Y-111034030D01*
X122622850Y-111044520D01*
X122643893Y-111057132D01*
X122663599Y-111071747D01*
X122681777Y-111088223D01*
X122698253Y-111106401D01*
X122712868Y-111126107D01*
X122725480Y-111147150D01*
X122735970Y-111169329D01*
X122744235Y-111192428D01*
X122750196Y-111216227D01*
X122753796Y-111240495D01*
X122755000Y-111264999D01*
X122755000Y-112165001D01*
X122753796Y-112189505D01*
X122750196Y-112213773D01*
X122744235Y-112237572D01*
X122735970Y-112260671D01*
X122725480Y-112282850D01*
X122712868Y-112303893D01*
X122698253Y-112323599D01*
X122681777Y-112341777D01*
X122663599Y-112358253D01*
X122643893Y-112372868D01*
X122622850Y-112385480D01*
X122600671Y-112395970D01*
X122577572Y-112404235D01*
X122553773Y-112410196D01*
X122529505Y-112413796D01*
X122505001Y-112415000D01*
X121854999Y-112415000D01*
X121830495Y-112413796D01*
X121806227Y-112410196D01*
X121782428Y-112404235D01*
X121759329Y-112395970D01*
X121737150Y-112385480D01*
X121716107Y-112372868D01*
X121696401Y-112358253D01*
X121678223Y-112341777D01*
X121661747Y-112323599D01*
X121647132Y-112303893D01*
X121634520Y-112282850D01*
X121624030Y-112260671D01*
X121615765Y-112237572D01*
X121609804Y-112213773D01*
X121606204Y-112189505D01*
X121605000Y-112165001D01*
X121605000Y-111264999D01*
X121606204Y-111240495D01*
X121609804Y-111216227D01*
X121615765Y-111192428D01*
X121624030Y-111169329D01*
X121634520Y-111147150D01*
X121647132Y-111126107D01*
X121661747Y-111106401D01*
X121678223Y-111088223D01*
X121696401Y-111071747D01*
X121716107Y-111057132D01*
X121737150Y-111044520D01*
X121759329Y-111034030D01*
X121782428Y-111025765D01*
X121806227Y-111019804D01*
X121830495Y-111016204D01*
X121854999Y-111015000D01*
X122505001Y-111015000D01*
X122529505Y-111016204D01*
G37*
G04 #@! TD.AperFunction*
D11*
X117745000Y-101385000D03*
X116765000Y-101385000D03*
X115785000Y-101385000D03*
X115785000Y-98885000D03*
X116765000Y-98885000D03*
X117745000Y-98885000D03*
G04 #@! TA.AperFunction,SMDPad,CuDef*
D10*
G36*
X119818779Y-97071144D02*
G01*
X119841834Y-97074563D01*
X119864443Y-97080227D01*
X119886387Y-97088079D01*
X119907457Y-97098044D01*
X119927448Y-97110026D01*
X119946168Y-97123910D01*
X119963438Y-97139562D01*
X119979090Y-97156832D01*
X119992974Y-97175552D01*
X120004956Y-97195543D01*
X120014921Y-97216613D01*
X120022773Y-97238557D01*
X120028437Y-97261166D01*
X120031856Y-97284221D01*
X120033000Y-97307500D01*
X120033000Y-97782500D01*
X120031856Y-97805779D01*
X120028437Y-97828834D01*
X120022773Y-97851443D01*
X120014921Y-97873387D01*
X120004956Y-97894457D01*
X119992974Y-97914448D01*
X119979090Y-97933168D01*
X119963438Y-97950438D01*
X119946168Y-97966090D01*
X119927448Y-97979974D01*
X119907457Y-97991956D01*
X119886387Y-98001921D01*
X119864443Y-98009773D01*
X119841834Y-98015437D01*
X119818779Y-98018856D01*
X119795500Y-98020000D01*
X119220500Y-98020000D01*
X119197221Y-98018856D01*
X119174166Y-98015437D01*
X119151557Y-98009773D01*
X119129613Y-98001921D01*
X119108543Y-97991956D01*
X119088552Y-97979974D01*
X119069832Y-97966090D01*
X119052562Y-97950438D01*
X119036910Y-97933168D01*
X119023026Y-97914448D01*
X119011044Y-97894457D01*
X119001079Y-97873387D01*
X118993227Y-97851443D01*
X118987563Y-97828834D01*
X118984144Y-97805779D01*
X118983000Y-97782500D01*
X118983000Y-97307500D01*
X118984144Y-97284221D01*
X118987563Y-97261166D01*
X118993227Y-97238557D01*
X119001079Y-97216613D01*
X119011044Y-97195543D01*
X119023026Y-97175552D01*
X119036910Y-97156832D01*
X119052562Y-97139562D01*
X119069832Y-97123910D01*
X119088552Y-97110026D01*
X119108543Y-97098044D01*
X119129613Y-97088079D01*
X119151557Y-97080227D01*
X119174166Y-97074563D01*
X119197221Y-97071144D01*
X119220500Y-97070000D01*
X119795500Y-97070000D01*
X119818779Y-97071144D01*
G37*
G04 #@! TD.AperFunction*
G04 #@! TA.AperFunction,SMDPad,CuDef*
G36*
X121568779Y-97071144D02*
G01*
X121591834Y-97074563D01*
X121614443Y-97080227D01*
X121636387Y-97088079D01*
X121657457Y-97098044D01*
X121677448Y-97110026D01*
X121696168Y-97123910D01*
X121713438Y-97139562D01*
X121729090Y-97156832D01*
X121742974Y-97175552D01*
X121754956Y-97195543D01*
X121764921Y-97216613D01*
X121772773Y-97238557D01*
X121778437Y-97261166D01*
X121781856Y-97284221D01*
X121783000Y-97307500D01*
X121783000Y-97782500D01*
X121781856Y-97805779D01*
X121778437Y-97828834D01*
X121772773Y-97851443D01*
X121764921Y-97873387D01*
X121754956Y-97894457D01*
X121742974Y-97914448D01*
X121729090Y-97933168D01*
X121713438Y-97950438D01*
X121696168Y-97966090D01*
X121677448Y-97979974D01*
X121657457Y-97991956D01*
X121636387Y-98001921D01*
X121614443Y-98009773D01*
X121591834Y-98015437D01*
X121568779Y-98018856D01*
X121545500Y-98020000D01*
X120970500Y-98020000D01*
X120947221Y-98018856D01*
X120924166Y-98015437D01*
X120901557Y-98009773D01*
X120879613Y-98001921D01*
X120858543Y-97991956D01*
X120838552Y-97979974D01*
X120819832Y-97966090D01*
X120802562Y-97950438D01*
X120786910Y-97933168D01*
X120773026Y-97914448D01*
X120761044Y-97894457D01*
X120751079Y-97873387D01*
X120743227Y-97851443D01*
X120737563Y-97828834D01*
X120734144Y-97805779D01*
X120733000Y-97782500D01*
X120733000Y-97307500D01*
X120734144Y-97284221D01*
X120737563Y-97261166D01*
X120743227Y-97238557D01*
X120751079Y-97216613D01*
X120761044Y-97195543D01*
X120773026Y-97175552D01*
X120786910Y-97156832D01*
X120802562Y-97139562D01*
X120819832Y-97123910D01*
X120838552Y-97110026D01*
X120858543Y-97098044D01*
X120879613Y-97088079D01*
X120901557Y-97080227D01*
X120924166Y-97074563D01*
X120947221Y-97071144D01*
X120970500Y-97070000D01*
X121545500Y-97070000D01*
X121568779Y-97071144D01*
G37*
G04 #@! TD.AperFunction*
D12*
X133300000Y-93400000D03*
D13*
X141455000Y-94405000D03*
X148955000Y-94405000D03*
X152205000Y-94405000D03*
X138205000Y-94405000D03*
D14*
X128785000Y-104275000D03*
D15*
X126535000Y-98175000D03*
X128035000Y-98175000D03*
X129535000Y-98175000D03*
X131035000Y-98175000D03*
D16*
X133535000Y-108115000D03*
X133535000Y-112715000D03*
D17*
X130049000Y-93607000D03*
X125449000Y-93607000D03*
D18*
X155575000Y-101585000D03*
X155575000Y-104125000D03*
G04 #@! TA.AperFunction,SMDPad,CuDef*
D10*
G36*
X117354504Y-93691204D02*
G01*
X117378773Y-93694804D01*
X117402571Y-93700765D01*
X117425671Y-93709030D01*
X117447849Y-93719520D01*
X117468893Y-93732133D01*
X117488598Y-93746747D01*
X117506777Y-93763223D01*
X117523253Y-93781402D01*
X117537867Y-93801107D01*
X117550480Y-93822151D01*
X117560970Y-93844329D01*
X117569235Y-93867429D01*
X117575196Y-93891227D01*
X117578796Y-93915496D01*
X117580000Y-93940000D01*
X117580000Y-95790000D01*
X117578796Y-95814504D01*
X117575196Y-95838773D01*
X117569235Y-95862571D01*
X117560970Y-95885671D01*
X117550480Y-95907849D01*
X117537867Y-95928893D01*
X117523253Y-95948598D01*
X117506777Y-95966777D01*
X117488598Y-95983253D01*
X117468893Y-95997867D01*
X117447849Y-96010480D01*
X117425671Y-96020970D01*
X117402571Y-96029235D01*
X117378773Y-96035196D01*
X117354504Y-96038796D01*
X117330000Y-96040000D01*
X116330000Y-96040000D01*
X116305496Y-96038796D01*
X116281227Y-96035196D01*
X116257429Y-96029235D01*
X116234329Y-96020970D01*
X116212151Y-96010480D01*
X116191107Y-95997867D01*
X116171402Y-95983253D01*
X116153223Y-95966777D01*
X116136747Y-95948598D01*
X116122133Y-95928893D01*
X116109520Y-95907849D01*
X116099030Y-95885671D01*
X116090765Y-95862571D01*
X116084804Y-95838773D01*
X116081204Y-95814504D01*
X116080000Y-95790000D01*
X116080000Y-93940000D01*
X116081204Y-93915496D01*
X116084804Y-93891227D01*
X116090765Y-93867429D01*
X116099030Y-93844329D01*
X116109520Y-93822151D01*
X116122133Y-93801107D01*
X116136747Y-93781402D01*
X116153223Y-93763223D01*
X116171402Y-93746747D01*
X116191107Y-93732133D01*
X116212151Y-93719520D01*
X116234329Y-93709030D01*
X116257429Y-93700765D01*
X116281227Y-93694804D01*
X116305496Y-93691204D01*
X116330000Y-93690000D01*
X117330000Y-93690000D01*
X117354504Y-93691204D01*
G37*
G04 #@! TD.AperFunction*
G04 #@! TA.AperFunction,SMDPad,CuDef*
G36*
X120604504Y-93691204D02*
G01*
X120628773Y-93694804D01*
X120652571Y-93700765D01*
X120675671Y-93709030D01*
X120697849Y-93719520D01*
X120718893Y-93732133D01*
X120738598Y-93746747D01*
X120756777Y-93763223D01*
X120773253Y-93781402D01*
X120787867Y-93801107D01*
X120800480Y-93822151D01*
X120810970Y-93844329D01*
X120819235Y-93867429D01*
X120825196Y-93891227D01*
X120828796Y-93915496D01*
X120830000Y-93940000D01*
X120830000Y-95790000D01*
X120828796Y-95814504D01*
X120825196Y-95838773D01*
X120819235Y-95862571D01*
X120810970Y-95885671D01*
X120800480Y-95907849D01*
X120787867Y-95928893D01*
X120773253Y-95948598D01*
X120756777Y-95966777D01*
X120738598Y-95983253D01*
X120718893Y-95997867D01*
X120697849Y-96010480D01*
X120675671Y-96020970D01*
X120652571Y-96029235D01*
X120628773Y-96035196D01*
X120604504Y-96038796D01*
X120580000Y-96040000D01*
X119580000Y-96040000D01*
X119555496Y-96038796D01*
X119531227Y-96035196D01*
X119507429Y-96029235D01*
X119484329Y-96020970D01*
X119462151Y-96010480D01*
X119441107Y-95997867D01*
X119421402Y-95983253D01*
X119403223Y-95966777D01*
X119386747Y-95948598D01*
X119372133Y-95928893D01*
X119359520Y-95907849D01*
X119349030Y-95885671D01*
X119340765Y-95862571D01*
X119334804Y-95838773D01*
X119331204Y-95814504D01*
X119330000Y-95790000D01*
X119330000Y-93940000D01*
X119331204Y-93915496D01*
X119334804Y-93891227D01*
X119340765Y-93867429D01*
X119349030Y-93844329D01*
X119359520Y-93822151D01*
X119372133Y-93801107D01*
X119386747Y-93781402D01*
X119403223Y-93763223D01*
X119421402Y-93746747D01*
X119441107Y-93732133D01*
X119462151Y-93719520D01*
X119484329Y-93709030D01*
X119507429Y-93700765D01*
X119531227Y-93694804D01*
X119555496Y-93691204D01*
X119580000Y-93690000D01*
X120580000Y-93690000D01*
X120604504Y-93691204D01*
G37*
G04 #@! TD.AperFunction*
D19*
X115785500Y-112374500D03*
D20*
X115785500Y-109834500D03*
D21*
X158967000Y-94225000D03*
X162717000Y-98225000D03*
X161467000Y-98225000D03*
X162717000Y-96875000D03*
X161467000Y-94225000D03*
X161467000Y-95575000D03*
X162717000Y-94225000D03*
X158967000Y-98225000D03*
X157717000Y-94225000D03*
X162717000Y-95575000D03*
X160217000Y-98225000D03*
X157717000Y-98225000D03*
X161467000Y-96875000D03*
X160217000Y-94225000D03*
X158903500Y-108250000D03*
X162653500Y-112250000D03*
X161403500Y-112250000D03*
X162653500Y-110900000D03*
X161403500Y-108250000D03*
X161403500Y-109600000D03*
X162653500Y-108250000D03*
X158903500Y-112250000D03*
X157653500Y-108250000D03*
X162653500Y-109600000D03*
X160153500Y-112250000D03*
X157653500Y-112250000D03*
X161403500Y-110900000D03*
X160153500Y-108250000D03*
X131725000Y-91861730D03*
X134300000Y-95575000D03*
X136219188Y-93292930D03*
X158967000Y-95575000D03*
X160217000Y-95575000D03*
X160217000Y-96875000D03*
X157717000Y-96875000D03*
X158967000Y-96875000D03*
X157653500Y-110900000D03*
X158903500Y-109600000D03*
X160153500Y-110900000D03*
X158903500Y-110900000D03*
X160153500Y-109600000D03*
X117717000Y-97545000D03*
X157653500Y-109600000D03*
X117300000Y-103900000D03*
X131435001Y-101775000D03*
X128650000Y-102325000D03*
X152010672Y-91112789D03*
X134385000Y-103767000D03*
X122854314Y-102460001D03*
X128765000Y-106815000D03*
X125209000Y-106815000D03*
X131023830Y-99838524D03*
X157717000Y-95575000D03*
X126427500Y-100982500D03*
X126085001Y-95434999D03*
X125209000Y-107831000D03*
X128965001Y-95434999D03*
X140349863Y-90161729D03*
X135276265Y-99238138D03*
X126085000Y-96435000D03*
X130445000Y-96465000D03*
D22*
X141450000Y-94400000D02*
X141455000Y-94405000D01*
X141455000Y-92655000D02*
X141455000Y-94405000D01*
X139549999Y-90749999D02*
X141455000Y-92655000D01*
X133625001Y-90749999D02*
X139549999Y-90749999D01*
X132913269Y-91461731D02*
X133625001Y-90749999D01*
X132124999Y-91461731D02*
X132913269Y-91461731D01*
X131725000Y-91861730D02*
X132124999Y-91461731D01*
X134300000Y-95575000D02*
X134300000Y-95212118D01*
X134300000Y-95212118D02*
X136219188Y-93292930D01*
X130303000Y-93861000D02*
X130049000Y-93607000D01*
X130256000Y-93400000D02*
X130049000Y-93607000D01*
X133300000Y-93400000D02*
X130256000Y-93400000D01*
X160217000Y-95575000D02*
X158967000Y-95575000D01*
X158967000Y-95575000D02*
X158967000Y-96875000D01*
X158967000Y-96875000D02*
X160217000Y-96875000D01*
X157717000Y-96875000D02*
X158967000Y-96875000D01*
X160153500Y-109600000D02*
X158903500Y-109600000D01*
X160153500Y-110900000D02*
X157653500Y-110900000D01*
X158903500Y-110900000D02*
X158903500Y-109600000D01*
D23*
X116765000Y-94930000D02*
X116830000Y-94865000D01*
D22*
X116765000Y-97760000D02*
X116765000Y-98885000D01*
X116980000Y-97545000D02*
X116765000Y-97760000D01*
X116765000Y-98885000D02*
X115785000Y-98885000D01*
X117717000Y-97545000D02*
X116980000Y-97545000D01*
X117717000Y-97545000D02*
X119508000Y-97545000D01*
X117717000Y-95752000D02*
X116830000Y-94865000D01*
X117717000Y-97545000D02*
X117717000Y-95752000D01*
X126970000Y-110445000D02*
X126970000Y-111145000D01*
X126655010Y-110130010D02*
X126970000Y-110445000D01*
X124245000Y-105610000D02*
X124245000Y-108705540D01*
X124245000Y-108705540D02*
X125669470Y-110130010D01*
X125669470Y-110130010D02*
X126655010Y-110130010D01*
X124805000Y-111715000D02*
X124230000Y-111715000D01*
X125669470Y-110850530D02*
X124805000Y-111715000D01*
X125669470Y-110130010D02*
X125669470Y-110850530D01*
D24*
X128785000Y-104763000D02*
X128785000Y-104275000D01*
X124245000Y-105460000D02*
X128088000Y-105460000D01*
X128088000Y-105460000D02*
X128785000Y-104763000D01*
D22*
X138205000Y-94405000D02*
X138205000Y-94280000D01*
X128650000Y-104140000D02*
X128785000Y-104275000D01*
X128650000Y-102325000D02*
X128650000Y-104140000D01*
X131435001Y-101463999D02*
X133591000Y-99308000D01*
X131435001Y-101775000D02*
X131435001Y-101463999D01*
X121539855Y-108705540D02*
X124245000Y-108705540D01*
X117300000Y-104465685D02*
X121539855Y-108705540D01*
X117300000Y-103900000D02*
X117300000Y-104465685D01*
X116830000Y-94865000D02*
X116830000Y-91637837D01*
X134516010Y-98857990D02*
X134066000Y-99308000D01*
X134516010Y-97307268D02*
X134516010Y-98857990D01*
X137426653Y-94405000D02*
X134516010Y-97307268D01*
X134066000Y-99308000D02*
X133591000Y-99308000D01*
X138205000Y-94405000D02*
X137426653Y-94405000D01*
X152222791Y-91112789D02*
X152010672Y-91112789D01*
X156725001Y-95614999D02*
X152222791Y-91112789D01*
X155575000Y-104125000D02*
X156725001Y-102974999D01*
X156725001Y-102974999D02*
X156725001Y-95614999D01*
X126935001Y-97774999D02*
X126535000Y-98175000D01*
X126935002Y-97774998D02*
X126535000Y-98175000D01*
X126566000Y-93353000D02*
X126935002Y-93722002D01*
X126935002Y-93722002D02*
X126935002Y-97774998D01*
X124941000Y-93353000D02*
X126566000Y-93353000D01*
X126535000Y-99625000D02*
X124245000Y-101915000D01*
X126535000Y-98175000D02*
X126535000Y-99625000D01*
X122854314Y-102460001D02*
X117084999Y-102460001D01*
X133535000Y-112515000D02*
X134960000Y-111090000D01*
X134960000Y-111090000D02*
X134960000Y-104342000D01*
X133535000Y-112715000D02*
X133535000Y-112515000D01*
X134960000Y-104342000D02*
X134385000Y-103767000D01*
X117084999Y-102460001D02*
X116765000Y-102140002D01*
X116765000Y-102140002D02*
X116765000Y-101385000D01*
X122854314Y-102460001D02*
X123699999Y-102460001D01*
X123699999Y-102460001D02*
X126535000Y-99625000D01*
X124245000Y-103185000D02*
X123699999Y-102639999D01*
X123699999Y-102639999D02*
X123699999Y-102460001D01*
X124245000Y-103710000D02*
X124245000Y-103185000D01*
X128765000Y-106815000D02*
X125209000Y-106815000D01*
D23*
X131035000Y-98175000D02*
X131035000Y-99827354D01*
X131035000Y-99827354D02*
X131023830Y-99838524D01*
D22*
X117745000Y-101060000D02*
X117745000Y-101385000D01*
X118545000Y-101385000D02*
X120960000Y-98970000D01*
X117745000Y-101385000D02*
X118545000Y-101385000D01*
X121527500Y-99537500D02*
X122625000Y-99537500D01*
X120960000Y-98970000D02*
X121527500Y-99537500D01*
X121258000Y-98672000D02*
X121258000Y-97545000D01*
X120960000Y-98970000D02*
X121258000Y-98672000D01*
D23*
X128035000Y-99375000D02*
X128035000Y-98175000D01*
X126427500Y-100982500D02*
X128035000Y-99375000D01*
X128035000Y-99375000D02*
X128035000Y-97801998D01*
X126427500Y-109205000D02*
X126002462Y-109205000D01*
D22*
X157717000Y-95575000D02*
X157717000Y-95616998D01*
X128035000Y-96725000D02*
X128035000Y-98175000D01*
X133591000Y-97408000D02*
X133591000Y-96833000D01*
D23*
X125209000Y-107866000D02*
X126190000Y-108847000D01*
X125209000Y-107831000D02*
X125209000Y-107866000D01*
D22*
X120649999Y-95434999D02*
X120080000Y-94865000D01*
X126085001Y-95434999D02*
X120649999Y-95434999D01*
X132192999Y-95434999D02*
X128965001Y-95434999D01*
X133591000Y-96833000D02*
X132192999Y-95434999D01*
X128035000Y-96365000D02*
X128035000Y-96725000D01*
X128965001Y-95434999D02*
X128035000Y-96365000D01*
X128473999Y-94943997D02*
X128473999Y-92321999D01*
X128965001Y-95434999D02*
X128473999Y-94943997D01*
X130746009Y-90049989D02*
X140238123Y-90049989D01*
X128473999Y-92321999D02*
X130746009Y-90049989D01*
X140238123Y-90049989D02*
X140349863Y-90161729D01*
D23*
X122417500Y-111715000D02*
X121980000Y-111715000D01*
D22*
X124137500Y-113435000D02*
X122417500Y-111715000D01*
X125237500Y-113435000D02*
X124137500Y-113435000D01*
X120380896Y-111715000D02*
X115785000Y-107119104D01*
X115785000Y-102510000D02*
X115785000Y-101385000D01*
X115785000Y-107119104D02*
X115785000Y-102510000D01*
X122417500Y-111715000D02*
X120380896Y-111715000D01*
X135158150Y-99238138D02*
X135276265Y-99238138D01*
X133535000Y-100861288D02*
X135158150Y-99238138D01*
X133535000Y-106315000D02*
X133535000Y-100861288D01*
X133535000Y-108115000D02*
X133535000Y-106315000D01*
X127250000Y-113435000D02*
X126812500Y-113435000D01*
X130045010Y-113229990D02*
X129840000Y-113435000D01*
X133535000Y-106315000D02*
X131610000Y-106315000D01*
X131610000Y-106315000D02*
X131285011Y-106639989D01*
X131285011Y-106639989D02*
X131285011Y-107589989D01*
X129840000Y-113435000D02*
X127250000Y-113435000D01*
X131285011Y-107589989D02*
X130045010Y-108829990D01*
X130045010Y-108829990D02*
X130045010Y-113229990D01*
D23*
X130710001Y-100550001D02*
X129535000Y-99375000D01*
X129535000Y-99375000D02*
X129535000Y-98175000D01*
X130710001Y-106934999D02*
X130710001Y-100550001D01*
X128440000Y-109205000D02*
X130710001Y-106934999D01*
X123425010Y-99094990D02*
X126085000Y-96435000D01*
X122625000Y-101112500D02*
X123100000Y-101112500D01*
X123425010Y-100787490D02*
X123425010Y-99094990D01*
X123100000Y-101112500D02*
X123425010Y-100787490D01*
X129535000Y-97375000D02*
X129535000Y-98175000D01*
X128440000Y-109205000D02*
X128002500Y-109205000D01*
X129020000Y-108625000D02*
X129020000Y-111145000D01*
X130710001Y-106934999D02*
X129020000Y-108625000D01*
X130445000Y-96465000D02*
X129535000Y-97375000D01*
D25*
G36*
X156665000Y-103426254D02*
G01*
X156496269Y-103383336D01*
X155754605Y-104125000D01*
X156496269Y-104866664D01*
X156730037Y-104807203D01*
X156823399Y-104606461D01*
X156829914Y-104618511D01*
X156863362Y-104668098D01*
X156896119Y-104718156D01*
X156901943Y-104725297D01*
X156964145Y-104800486D01*
X157006594Y-104842639D01*
X157048439Y-104885371D01*
X157055540Y-104891245D01*
X157131160Y-104952921D01*
X157181025Y-104986052D01*
X157230350Y-105019825D01*
X157238445Y-105024202D01*
X157238448Y-105024204D01*
X157238451Y-105024205D01*
X157238456Y-105024208D01*
X157324617Y-105070020D01*
X157379909Y-105092809D01*
X157434898Y-105116378D01*
X157443701Y-105119103D01*
X157537119Y-105147308D01*
X157595826Y-105158933D01*
X157654316Y-105171365D01*
X157663470Y-105172327D01*
X157663476Y-105172328D01*
X157663481Y-105172328D01*
X157760598Y-105181850D01*
X157792581Y-105185000D01*
X161792723Y-105185000D01*
X161987540Y-105204102D01*
X162143894Y-105251308D01*
X162288096Y-105327982D01*
X162414663Y-105431207D01*
X162518769Y-105557051D01*
X162596447Y-105700711D01*
X162644742Y-105856729D01*
X162665000Y-106049473D01*
X162665000Y-106965000D01*
X157003500Y-106965000D01*
X156939355Y-106971290D01*
X156875144Y-106977133D01*
X156872838Y-106977812D01*
X156870449Y-106978046D01*
X156808777Y-106996666D01*
X156746894Y-107014879D01*
X156744764Y-107015992D01*
X156742467Y-107016686D01*
X156685614Y-107046916D01*
X156628419Y-107076816D01*
X156626545Y-107078323D01*
X156624427Y-107079449D01*
X156574514Y-107120157D01*
X156524231Y-107160586D01*
X156522687Y-107162427D01*
X156520826Y-107163944D01*
X156479734Y-107213616D01*
X156438297Y-107262998D01*
X156437140Y-107265102D01*
X156435609Y-107266953D01*
X156404959Y-107323639D01*
X156373892Y-107380150D01*
X156373165Y-107382442D01*
X156372024Y-107384552D01*
X156352983Y-107446063D01*
X156333469Y-107507580D01*
X156333201Y-107509968D01*
X156332491Y-107512262D01*
X156325754Y-107576366D01*
X156318567Y-107640436D01*
X156318535Y-107645050D01*
X156318517Y-107645218D01*
X156318532Y-107645386D01*
X156318500Y-107650000D01*
X156318500Y-112900000D01*
X156324790Y-112964145D01*
X156330633Y-113028356D01*
X156331312Y-113030662D01*
X156331546Y-113033051D01*
X156350155Y-113094686D01*
X156368379Y-113156606D01*
X156369492Y-113158736D01*
X156370186Y-113161033D01*
X156400416Y-113217886D01*
X156430316Y-113275081D01*
X156431823Y-113276955D01*
X156432949Y-113279073D01*
X156473657Y-113328986D01*
X156514086Y-113379269D01*
X156515927Y-113380813D01*
X156517444Y-113382674D01*
X156567116Y-113423766D01*
X156616498Y-113465203D01*
X156618602Y-113466360D01*
X156620453Y-113467891D01*
X156677139Y-113498541D01*
X156733650Y-113529608D01*
X156735942Y-113530335D01*
X156738052Y-113531476D01*
X156799584Y-113550524D01*
X156861080Y-113570031D01*
X156863468Y-113570299D01*
X156865762Y-113571009D01*
X156929866Y-113577746D01*
X156993936Y-113584933D01*
X156998550Y-113584965D01*
X156998718Y-113584983D01*
X156998886Y-113584968D01*
X157003500Y-113585000D01*
X162616473Y-113585000D01*
X162598692Y-113643895D01*
X162522018Y-113788096D01*
X162418792Y-113914664D01*
X162292951Y-114018768D01*
X162149289Y-114096447D01*
X161993271Y-114144742D01*
X161800527Y-114165000D01*
X154585000Y-114165000D01*
X154585000Y-105046269D01*
X154833336Y-105046269D01*
X154892797Y-105280037D01*
X155131242Y-105390934D01*
X155386740Y-105453183D01*
X155649473Y-105464390D01*
X155909344Y-105424125D01*
X156156366Y-105333935D01*
X156257203Y-105280037D01*
X156316664Y-105046269D01*
X155575000Y-104304605D01*
X154833336Y-105046269D01*
X154585000Y-105046269D01*
X154585000Y-104849182D01*
X154653731Y-104866664D01*
X155395395Y-104125000D01*
X154653731Y-103383336D01*
X154585000Y-103400818D01*
X154585000Y-102482975D01*
X154723987Y-102621962D01*
X154942641Y-102768061D01*
X155156444Y-102856621D01*
X154993634Y-102916065D01*
X154892797Y-102969963D01*
X154833336Y-103203731D01*
X155575000Y-103945395D01*
X156316664Y-103203731D01*
X156257203Y-102969963D01*
X156018758Y-102859066D01*
X155999173Y-102854294D01*
X156207359Y-102768061D01*
X156426013Y-102621962D01*
X156611962Y-102436013D01*
X156665001Y-102356634D01*
X156665000Y-103426254D01*
G37*
X156665000Y-103426254D02*
X156496269Y-103383336D01*
X155754605Y-104125000D01*
X156496269Y-104866664D01*
X156730037Y-104807203D01*
X156823399Y-104606461D01*
X156829914Y-104618511D01*
X156863362Y-104668098D01*
X156896119Y-104718156D01*
X156901943Y-104725297D01*
X156964145Y-104800486D01*
X157006594Y-104842639D01*
X157048439Y-104885371D01*
X157055540Y-104891245D01*
X157131160Y-104952921D01*
X157181025Y-104986052D01*
X157230350Y-105019825D01*
X157238445Y-105024202D01*
X157238448Y-105024204D01*
X157238451Y-105024205D01*
X157238456Y-105024208D01*
X157324617Y-105070020D01*
X157379909Y-105092809D01*
X157434898Y-105116378D01*
X157443701Y-105119103D01*
X157537119Y-105147308D01*
X157595826Y-105158933D01*
X157654316Y-105171365D01*
X157663470Y-105172327D01*
X157663476Y-105172328D01*
X157663481Y-105172328D01*
X157760598Y-105181850D01*
X157792581Y-105185000D01*
X161792723Y-105185000D01*
X161987540Y-105204102D01*
X162143894Y-105251308D01*
X162288096Y-105327982D01*
X162414663Y-105431207D01*
X162518769Y-105557051D01*
X162596447Y-105700711D01*
X162644742Y-105856729D01*
X162665000Y-106049473D01*
X162665000Y-106965000D01*
X157003500Y-106965000D01*
X156939355Y-106971290D01*
X156875144Y-106977133D01*
X156872838Y-106977812D01*
X156870449Y-106978046D01*
X156808777Y-106996666D01*
X156746894Y-107014879D01*
X156744764Y-107015992D01*
X156742467Y-107016686D01*
X156685614Y-107046916D01*
X156628419Y-107076816D01*
X156626545Y-107078323D01*
X156624427Y-107079449D01*
X156574514Y-107120157D01*
X156524231Y-107160586D01*
X156522687Y-107162427D01*
X156520826Y-107163944D01*
X156479734Y-107213616D01*
X156438297Y-107262998D01*
X156437140Y-107265102D01*
X156435609Y-107266953D01*
X156404959Y-107323639D01*
X156373892Y-107380150D01*
X156373165Y-107382442D01*
X156372024Y-107384552D01*
X156352983Y-107446063D01*
X156333469Y-107507580D01*
X156333201Y-107509968D01*
X156332491Y-107512262D01*
X156325754Y-107576366D01*
X156318567Y-107640436D01*
X156318535Y-107645050D01*
X156318517Y-107645218D01*
X156318532Y-107645386D01*
X156318500Y-107650000D01*
X156318500Y-112900000D01*
X156324790Y-112964145D01*
X156330633Y-113028356D01*
X156331312Y-113030662D01*
X156331546Y-113033051D01*
X156350155Y-113094686D01*
X156368379Y-113156606D01*
X156369492Y-113158736D01*
X156370186Y-113161033D01*
X156400416Y-113217886D01*
X156430316Y-113275081D01*
X156431823Y-113276955D01*
X156432949Y-113279073D01*
X156473657Y-113328986D01*
X156514086Y-113379269D01*
X156515927Y-113380813D01*
X156517444Y-113382674D01*
X156567116Y-113423766D01*
X156616498Y-113465203D01*
X156618602Y-113466360D01*
X156620453Y-113467891D01*
X156677139Y-113498541D01*
X156733650Y-113529608D01*
X156735942Y-113530335D01*
X156738052Y-113531476D01*
X156799584Y-113550524D01*
X156861080Y-113570031D01*
X156863468Y-113570299D01*
X156865762Y-113571009D01*
X156929866Y-113577746D01*
X156993936Y-113584933D01*
X156998550Y-113584965D01*
X156998718Y-113584983D01*
X156998886Y-113584968D01*
X157003500Y-113585000D01*
X162616473Y-113585000D01*
X162598692Y-113643895D01*
X162522018Y-113788096D01*
X162418792Y-113914664D01*
X162292951Y-114018768D01*
X162149289Y-114096447D01*
X161993271Y-114144742D01*
X161800527Y-114165000D01*
X154585000Y-114165000D01*
X154585000Y-105046269D01*
X154833336Y-105046269D01*
X154892797Y-105280037D01*
X155131242Y-105390934D01*
X155386740Y-105453183D01*
X155649473Y-105464390D01*
X155909344Y-105424125D01*
X156156366Y-105333935D01*
X156257203Y-105280037D01*
X156316664Y-105046269D01*
X155575000Y-104304605D01*
X154833336Y-105046269D01*
X154585000Y-105046269D01*
X154585000Y-104849182D01*
X154653731Y-104866664D01*
X155395395Y-104125000D01*
X154653731Y-103383336D01*
X154585000Y-103400818D01*
X154585000Y-102482975D01*
X154723987Y-102621962D01*
X154942641Y-102768061D01*
X155156444Y-102856621D01*
X154993634Y-102916065D01*
X154892797Y-102969963D01*
X154833336Y-103203731D01*
X155575000Y-103945395D01*
X156316664Y-103203731D01*
X156257203Y-102969963D01*
X156018758Y-102859066D01*
X155999173Y-102854294D01*
X156207359Y-102768061D01*
X156426013Y-102621962D01*
X156611962Y-102436013D01*
X156665001Y-102356634D01*
X156665000Y-103426254D01*
G36*
X128840820Y-99714502D02*
G01*
X128857402Y-99719532D01*
X128900026Y-99799276D01*
X128935249Y-99842195D01*
X128994999Y-99915001D01*
X129024003Y-99938804D01*
X129950002Y-100864804D01*
X129950002Y-102687945D01*
X129070750Y-102690000D01*
X128912000Y-102848750D01*
X128912000Y-104148000D01*
X128932000Y-104148000D01*
X128932000Y-104402000D01*
X128912000Y-104402000D01*
X128912000Y-104422000D01*
X128658000Y-104422000D01*
X128658000Y-104402000D01*
X126708750Y-104402000D01*
X126550000Y-104560750D01*
X126546928Y-105225000D01*
X126559188Y-105349482D01*
X126595498Y-105469180D01*
X126654463Y-105579494D01*
X126733815Y-105676185D01*
X126830506Y-105755537D01*
X126940820Y-105814502D01*
X127060518Y-105850812D01*
X127185000Y-105863072D01*
X128365232Y-105860313D01*
X128274744Y-105897795D01*
X128226546Y-105930000D01*
X125747454Y-105930000D01*
X125699256Y-105897795D01*
X125510898Y-105819774D01*
X125355554Y-105788874D01*
X125355000Y-105745750D01*
X125196250Y-105587000D01*
X124372000Y-105587000D01*
X124372000Y-105607000D01*
X124118000Y-105607000D01*
X124118000Y-105587000D01*
X123293750Y-105587000D01*
X123135000Y-105745750D01*
X123131928Y-105985000D01*
X123144188Y-106109482D01*
X123180498Y-106229180D01*
X123239463Y-106339494D01*
X123318815Y-106436185D01*
X123415506Y-106515537D01*
X123525820Y-106574502D01*
X123645518Y-106610812D01*
X123770000Y-106623072D01*
X123959250Y-106620000D01*
X124117998Y-106461252D01*
X124117998Y-106620000D01*
X124192511Y-106620000D01*
X124174000Y-106713061D01*
X124174000Y-106916939D01*
X124213774Y-107116898D01*
X124291795Y-107305256D01*
X124303651Y-107323000D01*
X124291795Y-107340744D01*
X124213774Y-107529102D01*
X124174000Y-107729061D01*
X124174000Y-107932939D01*
X124213774Y-108132898D01*
X124291795Y-108321256D01*
X124405063Y-108490774D01*
X124549226Y-108634937D01*
X124718744Y-108748205D01*
X124907102Y-108826226D01*
X124976928Y-108840115D01*
X124976928Y-109297001D01*
X124993992Y-109470255D01*
X125044528Y-109636851D01*
X125126595Y-109790387D01*
X125237038Y-109924962D01*
X125371613Y-110035405D01*
X125525149Y-110117472D01*
X125691745Y-110168008D01*
X125816470Y-110180292D01*
X125805498Y-110200820D01*
X125769188Y-110320518D01*
X125756928Y-110445000D01*
X125760000Y-110859250D01*
X125918750Y-111018000D01*
X126843000Y-111018000D01*
X126843000Y-110998000D01*
X127097000Y-110998000D01*
X127097000Y-111018000D01*
X127117000Y-111018000D01*
X127117000Y-111272000D01*
X127097000Y-111272000D01*
X127097000Y-111292000D01*
X126843000Y-111292000D01*
X126843000Y-111272000D01*
X125918750Y-111272000D01*
X125760000Y-111430750D01*
X125756928Y-111845000D01*
X125769188Y-111969482D01*
X125805498Y-112089180D01*
X125864463Y-112199494D01*
X125943815Y-112296185D01*
X126040506Y-112375537D01*
X126150820Y-112434502D01*
X126176780Y-112442377D01*
X126126058Y-112469488D01*
X126025000Y-112552425D01*
X125923942Y-112469488D01*
X125772567Y-112388577D01*
X125608316Y-112338752D01*
X125442385Y-112322409D01*
X125440000Y-112000750D01*
X125281250Y-111842000D01*
X124357000Y-111842000D01*
X124357000Y-111862000D01*
X124103000Y-111862000D01*
X124103000Y-111842000D01*
X124083000Y-111842000D01*
X124083000Y-111588000D01*
X124103000Y-111588000D01*
X124103000Y-110538750D01*
X124357000Y-110538750D01*
X124357000Y-111588000D01*
X125281250Y-111588000D01*
X125440000Y-111429250D01*
X125443072Y-111015000D01*
X125430812Y-110890518D01*
X125394502Y-110770820D01*
X125335537Y-110660506D01*
X125256185Y-110563815D01*
X125159494Y-110484463D01*
X125049180Y-110425498D01*
X124929482Y-110389188D01*
X124805000Y-110376928D01*
X124515750Y-110380000D01*
X124357000Y-110538750D01*
X124103000Y-110538750D01*
X123944250Y-110380000D01*
X123655000Y-110376928D01*
X123530518Y-110389188D01*
X123410820Y-110425498D01*
X123300506Y-110484463D01*
X123203815Y-110563815D01*
X123138342Y-110643594D01*
X123132962Y-110637038D01*
X122998387Y-110526595D01*
X122844851Y-110444528D01*
X122678255Y-110393992D01*
X122505001Y-110376928D01*
X121854999Y-110376928D01*
X121681745Y-110393992D01*
X121515149Y-110444528D01*
X121361613Y-110526595D01*
X121227038Y-110637038D01*
X121116595Y-110771613D01*
X121085386Y-110830000D01*
X120747475Y-110830000D01*
X116670000Y-106752526D01*
X116670000Y-103241670D01*
X116744686Y-103281590D01*
X116872681Y-103320417D01*
X116911508Y-103332196D01*
X116926305Y-103333653D01*
X117041522Y-103345001D01*
X117041530Y-103345001D01*
X117084999Y-103349282D01*
X117128468Y-103345001D01*
X122315860Y-103345001D01*
X122364058Y-103377206D01*
X122552416Y-103455227D01*
X122752375Y-103495001D01*
X122956253Y-103495001D01*
X123131928Y-103460057D01*
X123131928Y-103997500D01*
X123148752Y-104168316D01*
X123198577Y-104332567D01*
X123279488Y-104483942D01*
X123299099Y-104507839D01*
X123239463Y-104580506D01*
X123180498Y-104690820D01*
X123144188Y-104810518D01*
X123131928Y-104935000D01*
X123135000Y-105174250D01*
X123293750Y-105333000D01*
X124118000Y-105333000D01*
X124118000Y-105313000D01*
X124372000Y-105313000D01*
X124372000Y-105333000D01*
X125196250Y-105333000D01*
X125355000Y-105174250D01*
X125358072Y-104935000D01*
X125345812Y-104810518D01*
X125309502Y-104690820D01*
X125250537Y-104580506D01*
X125190901Y-104507839D01*
X125210512Y-104483942D01*
X125291423Y-104332567D01*
X125341248Y-104168316D01*
X125358072Y-103997500D01*
X125358072Y-103422500D01*
X125348470Y-103325000D01*
X126546928Y-103325000D01*
X126550000Y-103989250D01*
X126708750Y-104148000D01*
X128658000Y-104148000D01*
X128658000Y-102848750D01*
X128499250Y-102690000D01*
X127185000Y-102686928D01*
X127060518Y-102699188D01*
X126940820Y-102735498D01*
X126830506Y-102794463D01*
X126733815Y-102873815D01*
X126654463Y-102970506D01*
X126595498Y-103080820D01*
X126559188Y-103200518D01*
X126546928Y-103325000D01*
X125348470Y-103325000D01*
X125341248Y-103251684D01*
X125291423Y-103087433D01*
X125210512Y-102936058D01*
X125101623Y-102803377D01*
X124999877Y-102719876D01*
X124984411Y-102690941D01*
X124873817Y-102556183D01*
X124863699Y-102547879D01*
X125696434Y-101715145D01*
X125767726Y-101786437D01*
X125937244Y-101899705D01*
X126125602Y-101977726D01*
X126325561Y-102017500D01*
X126529439Y-102017500D01*
X126729398Y-101977726D01*
X126917756Y-101899705D01*
X127087274Y-101786437D01*
X127231437Y-101642274D01*
X127344705Y-101472756D01*
X127422726Y-101284398D01*
X127462500Y-101084439D01*
X127462500Y-101022301D01*
X128546004Y-99938798D01*
X128575001Y-99915001D01*
X128669974Y-99799276D01*
X128712599Y-99719532D01*
X128729180Y-99714502D01*
X128785000Y-99684665D01*
X128840820Y-99714502D01*
G37*
X128840820Y-99714502D02*
X128857402Y-99719532D01*
X128900026Y-99799276D01*
X128935249Y-99842195D01*
X128994999Y-99915001D01*
X129024003Y-99938804D01*
X129950002Y-100864804D01*
X129950002Y-102687945D01*
X129070750Y-102690000D01*
X128912000Y-102848750D01*
X128912000Y-104148000D01*
X128932000Y-104148000D01*
X128932000Y-104402000D01*
X128912000Y-104402000D01*
X128912000Y-104422000D01*
X128658000Y-104422000D01*
X128658000Y-104402000D01*
X126708750Y-104402000D01*
X126550000Y-104560750D01*
X126546928Y-105225000D01*
X126559188Y-105349482D01*
X126595498Y-105469180D01*
X126654463Y-105579494D01*
X126733815Y-105676185D01*
X126830506Y-105755537D01*
X126940820Y-105814502D01*
X127060518Y-105850812D01*
X127185000Y-105863072D01*
X128365232Y-105860313D01*
X128274744Y-105897795D01*
X128226546Y-105930000D01*
X125747454Y-105930000D01*
X125699256Y-105897795D01*
X125510898Y-105819774D01*
X125355554Y-105788874D01*
X125355000Y-105745750D01*
X125196250Y-105587000D01*
X124372000Y-105587000D01*
X124372000Y-105607000D01*
X124118000Y-105607000D01*
X124118000Y-105587000D01*
X123293750Y-105587000D01*
X123135000Y-105745750D01*
X123131928Y-105985000D01*
X123144188Y-106109482D01*
X123180498Y-106229180D01*
X123239463Y-106339494D01*
X123318815Y-106436185D01*
X123415506Y-106515537D01*
X123525820Y-106574502D01*
X123645518Y-106610812D01*
X123770000Y-106623072D01*
X123959250Y-106620000D01*
X124117998Y-106461252D01*
X124117998Y-106620000D01*
X124192511Y-106620000D01*
X124174000Y-106713061D01*
X124174000Y-106916939D01*
X124213774Y-107116898D01*
X124291795Y-107305256D01*
X124303651Y-107323000D01*
X124291795Y-107340744D01*
X124213774Y-107529102D01*
X124174000Y-107729061D01*
X124174000Y-107932939D01*
X124213774Y-108132898D01*
X124291795Y-108321256D01*
X124405063Y-108490774D01*
X124549226Y-108634937D01*
X124718744Y-108748205D01*
X124907102Y-108826226D01*
X124976928Y-108840115D01*
X124976928Y-109297001D01*
X124993992Y-109470255D01*
X125044528Y-109636851D01*
X125126595Y-109790387D01*
X125237038Y-109924962D01*
X125371613Y-110035405D01*
X125525149Y-110117472D01*
X125691745Y-110168008D01*
X125816470Y-110180292D01*
X125805498Y-110200820D01*
X125769188Y-110320518D01*
X125756928Y-110445000D01*
X125760000Y-110859250D01*
X125918750Y-111018000D01*
X126843000Y-111018000D01*
X126843000Y-110998000D01*
X127097000Y-110998000D01*
X127097000Y-111018000D01*
X127117000Y-111018000D01*
X127117000Y-111272000D01*
X127097000Y-111272000D01*
X127097000Y-111292000D01*
X126843000Y-111292000D01*
X126843000Y-111272000D01*
X125918750Y-111272000D01*
X125760000Y-111430750D01*
X125756928Y-111845000D01*
X125769188Y-111969482D01*
X125805498Y-112089180D01*
X125864463Y-112199494D01*
X125943815Y-112296185D01*
X126040506Y-112375537D01*
X126150820Y-112434502D01*
X126176780Y-112442377D01*
X126126058Y-112469488D01*
X126025000Y-112552425D01*
X125923942Y-112469488D01*
X125772567Y-112388577D01*
X125608316Y-112338752D01*
X125442385Y-112322409D01*
X125440000Y-112000750D01*
X125281250Y-111842000D01*
X124357000Y-111842000D01*
X124357000Y-111862000D01*
X124103000Y-111862000D01*
X124103000Y-111842000D01*
X124083000Y-111842000D01*
X124083000Y-111588000D01*
X124103000Y-111588000D01*
X124103000Y-110538750D01*
X124357000Y-110538750D01*
X124357000Y-111588000D01*
X125281250Y-111588000D01*
X125440000Y-111429250D01*
X125443072Y-111015000D01*
X125430812Y-110890518D01*
X125394502Y-110770820D01*
X125335537Y-110660506D01*
X125256185Y-110563815D01*
X125159494Y-110484463D01*
X125049180Y-110425498D01*
X124929482Y-110389188D01*
X124805000Y-110376928D01*
X124515750Y-110380000D01*
X124357000Y-110538750D01*
X124103000Y-110538750D01*
X123944250Y-110380000D01*
X123655000Y-110376928D01*
X123530518Y-110389188D01*
X123410820Y-110425498D01*
X123300506Y-110484463D01*
X123203815Y-110563815D01*
X123138342Y-110643594D01*
X123132962Y-110637038D01*
X122998387Y-110526595D01*
X122844851Y-110444528D01*
X122678255Y-110393992D01*
X122505001Y-110376928D01*
X121854999Y-110376928D01*
X121681745Y-110393992D01*
X121515149Y-110444528D01*
X121361613Y-110526595D01*
X121227038Y-110637038D01*
X121116595Y-110771613D01*
X121085386Y-110830000D01*
X120747475Y-110830000D01*
X116670000Y-106752526D01*
X116670000Y-103241670D01*
X116744686Y-103281590D01*
X116872681Y-103320417D01*
X116911508Y-103332196D01*
X116926305Y-103333653D01*
X117041522Y-103345001D01*
X117041530Y-103345001D01*
X117084999Y-103349282D01*
X117128468Y-103345001D01*
X122315860Y-103345001D01*
X122364058Y-103377206D01*
X122552416Y-103455227D01*
X122752375Y-103495001D01*
X122956253Y-103495001D01*
X123131928Y-103460057D01*
X123131928Y-103997500D01*
X123148752Y-104168316D01*
X123198577Y-104332567D01*
X123279488Y-104483942D01*
X123299099Y-104507839D01*
X123239463Y-104580506D01*
X123180498Y-104690820D01*
X123144188Y-104810518D01*
X123131928Y-104935000D01*
X123135000Y-105174250D01*
X123293750Y-105333000D01*
X124118000Y-105333000D01*
X124118000Y-105313000D01*
X124372000Y-105313000D01*
X124372000Y-105333000D01*
X125196250Y-105333000D01*
X125355000Y-105174250D01*
X125358072Y-104935000D01*
X125345812Y-104810518D01*
X125309502Y-104690820D01*
X125250537Y-104580506D01*
X125190901Y-104507839D01*
X125210512Y-104483942D01*
X125291423Y-104332567D01*
X125341248Y-104168316D01*
X125358072Y-103997500D01*
X125358072Y-103422500D01*
X125348470Y-103325000D01*
X126546928Y-103325000D01*
X126550000Y-103989250D01*
X126708750Y-104148000D01*
X128658000Y-104148000D01*
X128658000Y-102848750D01*
X128499250Y-102690000D01*
X127185000Y-102686928D01*
X127060518Y-102699188D01*
X126940820Y-102735498D01*
X126830506Y-102794463D01*
X126733815Y-102873815D01*
X126654463Y-102970506D01*
X126595498Y-103080820D01*
X126559188Y-103200518D01*
X126546928Y-103325000D01*
X125348470Y-103325000D01*
X125341248Y-103251684D01*
X125291423Y-103087433D01*
X125210512Y-102936058D01*
X125101623Y-102803377D01*
X124999877Y-102719876D01*
X124984411Y-102690941D01*
X124873817Y-102556183D01*
X124863699Y-102547879D01*
X125696434Y-101715145D01*
X125767726Y-101786437D01*
X125937244Y-101899705D01*
X126125602Y-101977726D01*
X126325561Y-102017500D01*
X126529439Y-102017500D01*
X126729398Y-101977726D01*
X126917756Y-101899705D01*
X127087274Y-101786437D01*
X127231437Y-101642274D01*
X127344705Y-101472756D01*
X127422726Y-101284398D01*
X127462500Y-101084439D01*
X127462500Y-101022301D01*
X128546004Y-99938798D01*
X128575001Y-99915001D01*
X128669974Y-99799276D01*
X128712599Y-99719532D01*
X128729180Y-99714502D01*
X128785000Y-99684665D01*
X128840820Y-99714502D01*
G36*
X132520669Y-97014248D02*
G01*
X132494752Y-97099684D01*
X132477928Y-97270500D01*
X132477928Y-97845500D01*
X132494752Y-98016316D01*
X132544577Y-98180567D01*
X132625488Y-98331942D01*
X132645099Y-98355839D01*
X132585463Y-98428506D01*
X132526498Y-98538820D01*
X132490188Y-98658518D01*
X132477928Y-98783000D01*
X132481000Y-99022250D01*
X132639750Y-99181000D01*
X133464000Y-99181000D01*
X133464000Y-99161000D01*
X133718000Y-99161000D01*
X133718000Y-99181000D01*
X133738000Y-99181000D01*
X133738000Y-99406709D01*
X133689710Y-99455000D01*
X133464000Y-99455000D01*
X133464000Y-99435000D01*
X132639750Y-99435000D01*
X132481000Y-99593750D01*
X132477928Y-99833000D01*
X132490188Y-99957482D01*
X132526498Y-100077180D01*
X132585463Y-100187494D01*
X132664815Y-100284185D01*
X132761506Y-100363537D01*
X132789551Y-100378528D01*
X132713412Y-100520975D01*
X132662805Y-100687798D01*
X132645719Y-100861288D01*
X132650001Y-100904767D01*
X132650000Y-105430000D01*
X131653469Y-105430000D01*
X131610000Y-105425719D01*
X131566531Y-105430000D01*
X131566523Y-105430000D01*
X131470001Y-105439506D01*
X131470001Y-100773990D01*
X131514086Y-100755729D01*
X131683604Y-100642461D01*
X131827767Y-100498298D01*
X131941035Y-100328780D01*
X132019056Y-100140422D01*
X132058830Y-99940463D01*
X132058830Y-99736585D01*
X132019056Y-99536626D01*
X132002149Y-99495808D01*
X132015537Y-99479494D01*
X132074502Y-99369180D01*
X132110812Y-99249482D01*
X132123072Y-99125000D01*
X132123072Y-97225000D01*
X132110812Y-97100518D01*
X132074502Y-96980820D01*
X132015537Y-96870506D01*
X131936185Y-96773815D01*
X131839494Y-96694463D01*
X131729180Y-96635498D01*
X131609482Y-96599188D01*
X131485000Y-96586928D01*
X131476024Y-96586928D01*
X131480000Y-96566939D01*
X131480000Y-96363061D01*
X131471435Y-96319999D01*
X131826421Y-96319999D01*
X132520669Y-97014248D01*
G37*
X132520669Y-97014248D02*
X132494752Y-97099684D01*
X132477928Y-97270500D01*
X132477928Y-97845500D01*
X132494752Y-98016316D01*
X132544577Y-98180567D01*
X132625488Y-98331942D01*
X132645099Y-98355839D01*
X132585463Y-98428506D01*
X132526498Y-98538820D01*
X132490188Y-98658518D01*
X132477928Y-98783000D01*
X132481000Y-99022250D01*
X132639750Y-99181000D01*
X133464000Y-99181000D01*
X133464000Y-99161000D01*
X133718000Y-99161000D01*
X133718000Y-99181000D01*
X133738000Y-99181000D01*
X133738000Y-99406709D01*
X133689710Y-99455000D01*
X133464000Y-99455000D01*
X133464000Y-99435000D01*
X132639750Y-99435000D01*
X132481000Y-99593750D01*
X132477928Y-99833000D01*
X132490188Y-99957482D01*
X132526498Y-100077180D01*
X132585463Y-100187494D01*
X132664815Y-100284185D01*
X132761506Y-100363537D01*
X132789551Y-100378528D01*
X132713412Y-100520975D01*
X132662805Y-100687798D01*
X132645719Y-100861288D01*
X132650001Y-100904767D01*
X132650000Y-105430000D01*
X131653469Y-105430000D01*
X131610000Y-105425719D01*
X131566531Y-105430000D01*
X131566523Y-105430000D01*
X131470001Y-105439506D01*
X131470001Y-100773990D01*
X131514086Y-100755729D01*
X131683604Y-100642461D01*
X131827767Y-100498298D01*
X131941035Y-100328780D01*
X132019056Y-100140422D01*
X132058830Y-99940463D01*
X132058830Y-99736585D01*
X132019056Y-99536626D01*
X132002149Y-99495808D01*
X132015537Y-99479494D01*
X132074502Y-99369180D01*
X132110812Y-99249482D01*
X132123072Y-99125000D01*
X132123072Y-97225000D01*
X132110812Y-97100518D01*
X132074502Y-96980820D01*
X132015537Y-96870506D01*
X131936185Y-96773815D01*
X131839494Y-96694463D01*
X131729180Y-96635498D01*
X131609482Y-96599188D01*
X131485000Y-96586928D01*
X131476024Y-96586928D01*
X131480000Y-96566939D01*
X131480000Y-96363061D01*
X131471435Y-96319999D01*
X131826421Y-96319999D01*
X132520669Y-97014248D01*
G36*
X129357049Y-90187370D02*
G01*
X127878950Y-91665470D01*
X127845183Y-91693182D01*
X127817470Y-91726950D01*
X127817467Y-91726953D01*
X127734589Y-91827940D01*
X127652411Y-91981686D01*
X127601804Y-92148509D01*
X127584718Y-92321999D01*
X127589000Y-92365478D01*
X127589000Y-93123867D01*
X127563819Y-93093185D01*
X127530047Y-93065469D01*
X127222534Y-92757956D01*
X127212072Y-92745208D01*
X127212072Y-92682000D01*
X127199812Y-92557518D01*
X127163502Y-92437820D01*
X127104537Y-92327506D01*
X127025185Y-92230815D01*
X126928494Y-92151463D01*
X126818180Y-92092498D01*
X126698482Y-92056188D01*
X126574000Y-92043928D01*
X124324000Y-92043928D01*
X124199518Y-92056188D01*
X124079820Y-92092498D01*
X123969506Y-92151463D01*
X123872815Y-92230815D01*
X123793463Y-92327506D01*
X123734498Y-92437820D01*
X123698188Y-92557518D01*
X123685928Y-92682000D01*
X123685928Y-94532000D01*
X123687701Y-94549999D01*
X121468072Y-94549999D01*
X121468072Y-93940000D01*
X121451008Y-93766746D01*
X121400472Y-93600150D01*
X121318405Y-93446614D01*
X121207962Y-93312038D01*
X121073386Y-93201595D01*
X120919850Y-93119528D01*
X120753254Y-93068992D01*
X120580000Y-93051928D01*
X119580000Y-93051928D01*
X119406746Y-93068992D01*
X119240150Y-93119528D01*
X119086614Y-93201595D01*
X118952038Y-93312038D01*
X118841595Y-93446614D01*
X118759528Y-93600150D01*
X118708992Y-93766746D01*
X118691928Y-93940000D01*
X118691928Y-95790000D01*
X118708992Y-95963254D01*
X118759528Y-96129850D01*
X118841595Y-96283386D01*
X118952038Y-96417962D01*
X118970550Y-96433154D01*
X118858518Y-96444188D01*
X118738820Y-96480498D01*
X118628506Y-96539463D01*
X118531815Y-96618815D01*
X118452463Y-96715506D01*
X118393498Y-96825820D01*
X118357188Y-96945518D01*
X118344928Y-97070000D01*
X118348000Y-97259250D01*
X118506750Y-97418000D01*
X119381000Y-97418000D01*
X119381000Y-97398000D01*
X119635000Y-97398000D01*
X119635000Y-97418000D01*
X119655000Y-97418000D01*
X119655000Y-97672000D01*
X119635000Y-97672000D01*
X119635000Y-98496250D01*
X119793750Y-98655000D01*
X120020510Y-98657912D01*
X118426662Y-100251759D01*
X118399494Y-100229463D01*
X118289180Y-100170498D01*
X118172159Y-100135000D01*
X118289180Y-100099502D01*
X118399494Y-100040537D01*
X118496185Y-99961185D01*
X118575537Y-99864494D01*
X118634502Y-99754180D01*
X118670812Y-99634482D01*
X118683072Y-99510000D01*
X118683072Y-98579704D01*
X118738820Y-98609502D01*
X118858518Y-98645812D01*
X118983000Y-98658072D01*
X119222250Y-98655000D01*
X119381000Y-98496250D01*
X119381000Y-97672000D01*
X118506750Y-97672000D01*
X118426843Y-97751907D01*
X118399494Y-97729463D01*
X118289180Y-97670498D01*
X118169482Y-97634188D01*
X118045000Y-97621928D01*
X117445000Y-97621928D01*
X117320518Y-97634188D01*
X117255000Y-97654063D01*
X117189482Y-97634188D01*
X117065000Y-97621928D01*
X117050750Y-97625000D01*
X116892000Y-97783750D01*
X116892000Y-97947531D01*
X116855498Y-98015820D01*
X116819188Y-98135518D01*
X116806928Y-98260000D01*
X116806928Y-99032000D01*
X116638000Y-99032000D01*
X116638000Y-99012000D01*
X115912000Y-99012000D01*
X115912000Y-99032000D01*
X115658000Y-99032000D01*
X115658000Y-99012000D01*
X115008750Y-99012000D01*
X114850000Y-99170750D01*
X114846928Y-99510000D01*
X114859188Y-99634482D01*
X114895498Y-99754180D01*
X114954463Y-99864494D01*
X115033815Y-99961185D01*
X115130506Y-100040537D01*
X115240820Y-100099502D01*
X115357841Y-100135000D01*
X115240820Y-100170498D01*
X115130506Y-100229463D01*
X115033815Y-100308815D01*
X114954463Y-100405506D01*
X114895498Y-100515820D01*
X114859188Y-100635518D01*
X114846928Y-100760000D01*
X114846928Y-101943420D01*
X114820026Y-101910901D01*
X114777591Y-101868761D01*
X114735728Y-101826012D01*
X114728628Y-101820138D01*
X114516887Y-101647447D01*
X114467079Y-101614354D01*
X114417705Y-101580547D01*
X114409598Y-101576164D01*
X114168350Y-101447890D01*
X114113049Y-101425097D01*
X114058064Y-101401530D01*
X114049260Y-101398805D01*
X113985000Y-101379404D01*
X113985000Y-98260000D01*
X114846928Y-98260000D01*
X114850000Y-98599250D01*
X115008750Y-98758000D01*
X115658000Y-98758000D01*
X115658000Y-98260000D01*
X115826928Y-98260000D01*
X115830000Y-98599250D01*
X115912000Y-98681250D01*
X115912000Y-98758000D01*
X116638000Y-98758000D01*
X116638000Y-98681250D01*
X116720000Y-98599250D01*
X116723072Y-98260000D01*
X116710812Y-98135518D01*
X116674502Y-98015820D01*
X116638000Y-97947531D01*
X116638000Y-97783750D01*
X116479250Y-97625000D01*
X116465000Y-97621928D01*
X116340518Y-97634188D01*
X116275000Y-97654063D01*
X116209482Y-97634188D01*
X116085000Y-97621928D01*
X116070750Y-97625000D01*
X115912000Y-97783750D01*
X115912000Y-97947531D01*
X115875498Y-98015820D01*
X115839188Y-98135518D01*
X115826928Y-98260000D01*
X115658000Y-98260000D01*
X115658000Y-97783750D01*
X115499250Y-97625000D01*
X115485000Y-97621928D01*
X115360518Y-97634188D01*
X115240820Y-97670498D01*
X115130506Y-97729463D01*
X115033815Y-97808815D01*
X114954463Y-97905506D01*
X114895498Y-98015820D01*
X114859188Y-98135518D01*
X114846928Y-98260000D01*
X113985000Y-98260000D01*
X113985000Y-96040000D01*
X115441928Y-96040000D01*
X115454188Y-96164482D01*
X115490498Y-96284180D01*
X115549463Y-96394494D01*
X115628815Y-96491185D01*
X115725506Y-96570537D01*
X115835820Y-96629502D01*
X115955518Y-96665812D01*
X116080000Y-96678072D01*
X116544250Y-96675000D01*
X116703000Y-96516250D01*
X116703000Y-94992000D01*
X116957000Y-94992000D01*
X116957000Y-96516250D01*
X117115750Y-96675000D01*
X117580000Y-96678072D01*
X117704482Y-96665812D01*
X117824180Y-96629502D01*
X117934494Y-96570537D01*
X118031185Y-96491185D01*
X118110537Y-96394494D01*
X118169502Y-96284180D01*
X118205812Y-96164482D01*
X118218072Y-96040000D01*
X118215000Y-95150750D01*
X118056250Y-94992000D01*
X116957000Y-94992000D01*
X116703000Y-94992000D01*
X115603750Y-94992000D01*
X115445000Y-95150750D01*
X115441928Y-96040000D01*
X113985000Y-96040000D01*
X113985000Y-93690000D01*
X115441928Y-93690000D01*
X115445000Y-94579250D01*
X115603750Y-94738000D01*
X116703000Y-94738000D01*
X116703000Y-93213750D01*
X116957000Y-93213750D01*
X116957000Y-94738000D01*
X118056250Y-94738000D01*
X118215000Y-94579250D01*
X118218072Y-93690000D01*
X118205812Y-93565518D01*
X118169502Y-93445820D01*
X118110537Y-93335506D01*
X118031185Y-93238815D01*
X117934494Y-93159463D01*
X117824180Y-93100498D01*
X117704482Y-93064188D01*
X117580000Y-93051928D01*
X117115750Y-93055000D01*
X116957000Y-93213750D01*
X116703000Y-93213750D01*
X116544250Y-93055000D01*
X116080000Y-93051928D01*
X115955518Y-93064188D01*
X115835820Y-93100498D01*
X115725506Y-93159463D01*
X115628815Y-93238815D01*
X115549463Y-93335506D01*
X115490498Y-93445820D01*
X115454188Y-93565518D01*
X115441928Y-93690000D01*
X113985000Y-93690000D01*
X113985000Y-91047277D01*
X114004102Y-90852460D01*
X114051308Y-90696106D01*
X114127982Y-90551904D01*
X114231207Y-90425337D01*
X114357051Y-90321231D01*
X114500711Y-90243553D01*
X114656729Y-90195258D01*
X114849276Y-90175021D01*
X129357049Y-90187370D01*
G37*
X129357049Y-90187370D02*
X127878950Y-91665470D01*
X127845183Y-91693182D01*
X127817470Y-91726950D01*
X127817467Y-91726953D01*
X127734589Y-91827940D01*
X127652411Y-91981686D01*
X127601804Y-92148509D01*
X127584718Y-92321999D01*
X127589000Y-92365478D01*
X127589000Y-93123867D01*
X127563819Y-93093185D01*
X127530047Y-93065469D01*
X127222534Y-92757956D01*
X127212072Y-92745208D01*
X127212072Y-92682000D01*
X127199812Y-92557518D01*
X127163502Y-92437820D01*
X127104537Y-92327506D01*
X127025185Y-92230815D01*
X126928494Y-92151463D01*
X126818180Y-92092498D01*
X126698482Y-92056188D01*
X126574000Y-92043928D01*
X124324000Y-92043928D01*
X124199518Y-92056188D01*
X124079820Y-92092498D01*
X123969506Y-92151463D01*
X123872815Y-92230815D01*
X123793463Y-92327506D01*
X123734498Y-92437820D01*
X123698188Y-92557518D01*
X123685928Y-92682000D01*
X123685928Y-94532000D01*
X123687701Y-94549999D01*
X121468072Y-94549999D01*
X121468072Y-93940000D01*
X121451008Y-93766746D01*
X121400472Y-93600150D01*
X121318405Y-93446614D01*
X121207962Y-93312038D01*
X121073386Y-93201595D01*
X120919850Y-93119528D01*
X120753254Y-93068992D01*
X120580000Y-93051928D01*
X119580000Y-93051928D01*
X119406746Y-93068992D01*
X119240150Y-93119528D01*
X119086614Y-93201595D01*
X118952038Y-93312038D01*
X118841595Y-93446614D01*
X118759528Y-93600150D01*
X118708992Y-93766746D01*
X118691928Y-93940000D01*
X118691928Y-95790000D01*
X118708992Y-95963254D01*
X118759528Y-96129850D01*
X118841595Y-96283386D01*
X118952038Y-96417962D01*
X118970550Y-96433154D01*
X118858518Y-96444188D01*
X118738820Y-96480498D01*
X118628506Y-96539463D01*
X118531815Y-96618815D01*
X118452463Y-96715506D01*
X118393498Y-96825820D01*
X118357188Y-96945518D01*
X118344928Y-97070000D01*
X118348000Y-97259250D01*
X118506750Y-97418000D01*
X119381000Y-97418000D01*
X119381000Y-97398000D01*
X119635000Y-97398000D01*
X119635000Y-97418000D01*
X119655000Y-97418000D01*
X119655000Y-97672000D01*
X119635000Y-97672000D01*
X119635000Y-98496250D01*
X119793750Y-98655000D01*
X120020510Y-98657912D01*
X118426662Y-100251759D01*
X118399494Y-100229463D01*
X118289180Y-100170498D01*
X118172159Y-100135000D01*
X118289180Y-100099502D01*
X118399494Y-100040537D01*
X118496185Y-99961185D01*
X118575537Y-99864494D01*
X118634502Y-99754180D01*
X118670812Y-99634482D01*
X118683072Y-99510000D01*
X118683072Y-98579704D01*
X118738820Y-98609502D01*
X118858518Y-98645812D01*
X118983000Y-98658072D01*
X119222250Y-98655000D01*
X119381000Y-98496250D01*
X119381000Y-97672000D01*
X118506750Y-97672000D01*
X118426843Y-97751907D01*
X118399494Y-97729463D01*
X118289180Y-97670498D01*
X118169482Y-97634188D01*
X118045000Y-97621928D01*
X117445000Y-97621928D01*
X117320518Y-97634188D01*
X117255000Y-97654063D01*
X117189482Y-97634188D01*
X117065000Y-97621928D01*
X117050750Y-97625000D01*
X116892000Y-97783750D01*
X116892000Y-97947531D01*
X116855498Y-98015820D01*
X116819188Y-98135518D01*
X116806928Y-98260000D01*
X116806928Y-99032000D01*
X116638000Y-99032000D01*
X116638000Y-99012000D01*
X115912000Y-99012000D01*
X115912000Y-99032000D01*
X115658000Y-99032000D01*
X115658000Y-99012000D01*
X115008750Y-99012000D01*
X114850000Y-99170750D01*
X114846928Y-99510000D01*
X114859188Y-99634482D01*
X114895498Y-99754180D01*
X114954463Y-99864494D01*
X115033815Y-99961185D01*
X115130506Y-100040537D01*
X115240820Y-100099502D01*
X115357841Y-100135000D01*
X115240820Y-100170498D01*
X115130506Y-100229463D01*
X115033815Y-100308815D01*
X114954463Y-100405506D01*
X114895498Y-100515820D01*
X114859188Y-100635518D01*
X114846928Y-100760000D01*
X114846928Y-101943420D01*
X114820026Y-101910901D01*
X114777591Y-101868761D01*
X114735728Y-101826012D01*
X114728628Y-101820138D01*
X114516887Y-101647447D01*
X114467079Y-101614354D01*
X114417705Y-101580547D01*
X114409598Y-101576164D01*
X114168350Y-101447890D01*
X114113049Y-101425097D01*
X114058064Y-101401530D01*
X114049260Y-101398805D01*
X113985000Y-101379404D01*
X113985000Y-98260000D01*
X114846928Y-98260000D01*
X114850000Y-98599250D01*
X115008750Y-98758000D01*
X115658000Y-98758000D01*
X115658000Y-98260000D01*
X115826928Y-98260000D01*
X115830000Y-98599250D01*
X115912000Y-98681250D01*
X115912000Y-98758000D01*
X116638000Y-98758000D01*
X116638000Y-98681250D01*
X116720000Y-98599250D01*
X116723072Y-98260000D01*
X116710812Y-98135518D01*
X116674502Y-98015820D01*
X116638000Y-97947531D01*
X116638000Y-97783750D01*
X116479250Y-97625000D01*
X116465000Y-97621928D01*
X116340518Y-97634188D01*
X116275000Y-97654063D01*
X116209482Y-97634188D01*
X116085000Y-97621928D01*
X116070750Y-97625000D01*
X115912000Y-97783750D01*
X115912000Y-97947531D01*
X115875498Y-98015820D01*
X115839188Y-98135518D01*
X115826928Y-98260000D01*
X115658000Y-98260000D01*
X115658000Y-97783750D01*
X115499250Y-97625000D01*
X115485000Y-97621928D01*
X115360518Y-97634188D01*
X115240820Y-97670498D01*
X115130506Y-97729463D01*
X115033815Y-97808815D01*
X114954463Y-97905506D01*
X114895498Y-98015820D01*
X114859188Y-98135518D01*
X114846928Y-98260000D01*
X113985000Y-98260000D01*
X113985000Y-96040000D01*
X115441928Y-96040000D01*
X115454188Y-96164482D01*
X115490498Y-96284180D01*
X115549463Y-96394494D01*
X115628815Y-96491185D01*
X115725506Y-96570537D01*
X115835820Y-96629502D01*
X115955518Y-96665812D01*
X116080000Y-96678072D01*
X116544250Y-96675000D01*
X116703000Y-96516250D01*
X116703000Y-94992000D01*
X116957000Y-94992000D01*
X116957000Y-96516250D01*
X117115750Y-96675000D01*
X117580000Y-96678072D01*
X117704482Y-96665812D01*
X117824180Y-96629502D01*
X117934494Y-96570537D01*
X118031185Y-96491185D01*
X118110537Y-96394494D01*
X118169502Y-96284180D01*
X118205812Y-96164482D01*
X118218072Y-96040000D01*
X118215000Y-95150750D01*
X118056250Y-94992000D01*
X116957000Y-94992000D01*
X116703000Y-94992000D01*
X115603750Y-94992000D01*
X115445000Y-95150750D01*
X115441928Y-96040000D01*
X113985000Y-96040000D01*
X113985000Y-93690000D01*
X115441928Y-93690000D01*
X115445000Y-94579250D01*
X115603750Y-94738000D01*
X116703000Y-94738000D01*
X116703000Y-93213750D01*
X116957000Y-93213750D01*
X116957000Y-94738000D01*
X118056250Y-94738000D01*
X118215000Y-94579250D01*
X118218072Y-93690000D01*
X118205812Y-93565518D01*
X118169502Y-93445820D01*
X118110537Y-93335506D01*
X118031185Y-93238815D01*
X117934494Y-93159463D01*
X117824180Y-93100498D01*
X117704482Y-93064188D01*
X117580000Y-93051928D01*
X117115750Y-93055000D01*
X116957000Y-93213750D01*
X116703000Y-93213750D01*
X116544250Y-93055000D01*
X116080000Y-93051928D01*
X115955518Y-93064188D01*
X115835820Y-93100498D01*
X115725506Y-93159463D01*
X115628815Y-93238815D01*
X115549463Y-93335506D01*
X115490498Y-93445820D01*
X115454188Y-93565518D01*
X115441928Y-93690000D01*
X113985000Y-93690000D01*
X113985000Y-91047277D01*
X114004102Y-90852460D01*
X114051308Y-90696106D01*
X114127982Y-90551904D01*
X114231207Y-90425337D01*
X114357051Y-90321231D01*
X114500711Y-90243553D01*
X114656729Y-90195258D01*
X114849276Y-90175021D01*
X129357049Y-90187370D01*
G36*
X161782439Y-90214972D02*
G01*
X161977540Y-90234102D01*
X162133894Y-90281308D01*
X162278096Y-90357982D01*
X162404663Y-90461207D01*
X162508769Y-90587051D01*
X162586447Y-90730711D01*
X162634742Y-90886729D01*
X162655106Y-91080484D01*
X162663298Y-92940000D01*
X157067000Y-92940000D01*
X157002855Y-92946290D01*
X156938644Y-92952133D01*
X156936338Y-92952812D01*
X156933949Y-92953046D01*
X156872277Y-92971666D01*
X156810394Y-92989879D01*
X156808264Y-92990992D01*
X156805967Y-92991686D01*
X156749114Y-93021916D01*
X156691919Y-93051816D01*
X156690045Y-93053323D01*
X156687927Y-93054449D01*
X156638014Y-93095157D01*
X156587731Y-93135586D01*
X156586187Y-93137427D01*
X156584326Y-93138944D01*
X156543234Y-93188616D01*
X156501797Y-93237998D01*
X156500640Y-93240102D01*
X156499109Y-93241953D01*
X156468459Y-93298639D01*
X156437392Y-93355150D01*
X156436665Y-93357442D01*
X156435524Y-93359552D01*
X156416483Y-93421063D01*
X156396969Y-93482580D01*
X156396701Y-93484968D01*
X156395991Y-93487262D01*
X156389254Y-93551366D01*
X156382067Y-93615436D01*
X156382035Y-93620050D01*
X156382017Y-93620218D01*
X156382032Y-93620386D01*
X156382000Y-93625000D01*
X156382000Y-98875000D01*
X156388290Y-98939145D01*
X156394133Y-99003356D01*
X156394812Y-99005662D01*
X156395046Y-99008051D01*
X156413666Y-99069723D01*
X156431879Y-99131606D01*
X156432992Y-99133736D01*
X156433686Y-99136033D01*
X156463916Y-99192886D01*
X156493816Y-99250081D01*
X156495323Y-99251955D01*
X156496449Y-99254073D01*
X156537157Y-99303986D01*
X156577586Y-99354269D01*
X156579427Y-99355813D01*
X156580944Y-99357674D01*
X156630616Y-99398766D01*
X156679998Y-99440203D01*
X156682102Y-99441360D01*
X156683953Y-99442891D01*
X156740639Y-99473541D01*
X156797150Y-99504608D01*
X156799442Y-99505335D01*
X156801552Y-99506476D01*
X156863084Y-99525524D01*
X156924580Y-99545031D01*
X156926968Y-99545299D01*
X156929262Y-99546009D01*
X156993366Y-99552746D01*
X157057436Y-99559933D01*
X157062050Y-99559965D01*
X157062218Y-99559983D01*
X157062386Y-99559968D01*
X157067000Y-99560000D01*
X162665000Y-99560000D01*
X162665000Y-99992722D01*
X162645898Y-100187540D01*
X162598692Y-100343895D01*
X162522018Y-100488096D01*
X162418792Y-100614664D01*
X162292951Y-100718768D01*
X162149289Y-100796447D01*
X161993271Y-100844742D01*
X161800527Y-100865000D01*
X157792581Y-100865000D01*
X157764671Y-100867749D01*
X157761693Y-100867728D01*
X157752522Y-100868627D01*
X157704360Y-100873689D01*
X157695617Y-100874550D01*
X157695325Y-100874638D01*
X157655473Y-100878827D01*
X157596854Y-100890860D01*
X157538116Y-100902064D01*
X157529294Y-100904728D01*
X157436075Y-100933584D01*
X157380937Y-100956762D01*
X157325463Y-100979175D01*
X157317334Y-100983498D01*
X157317330Y-100983500D01*
X157317327Y-100983502D01*
X157231489Y-101029915D01*
X157181913Y-101063355D01*
X157131844Y-101096119D01*
X157124703Y-101101943D01*
X157049514Y-101164145D01*
X157007361Y-101206594D01*
X156964629Y-101248439D01*
X156958755Y-101255540D01*
X156897079Y-101331161D01*
X156888293Y-101344385D01*
X156858696Y-101195595D01*
X156758061Y-100952641D01*
X156611962Y-100733987D01*
X156426013Y-100548038D01*
X156207359Y-100401939D01*
X155964405Y-100301304D01*
X155706486Y-100250000D01*
X155443514Y-100250000D01*
X155185595Y-100301304D01*
X154942641Y-100401939D01*
X154723987Y-100548038D01*
X154585000Y-100687025D01*
X154585000Y-95982891D01*
X154588192Y-95950955D01*
X154585000Y-95918061D01*
X154585000Y-95917581D01*
X154581833Y-95885429D01*
X154575635Y-95821555D01*
X154575498Y-95821099D01*
X154575450Y-95820617D01*
X154556596Y-95758465D01*
X154538075Y-95697091D01*
X154537850Y-95696669D01*
X154537710Y-95696207D01*
X154507165Y-95639060D01*
X154476955Y-95582345D01*
X154476652Y-95581975D01*
X154476425Y-95581550D01*
X154435271Y-95531403D01*
X154394623Y-95481729D01*
X154394255Y-95481426D01*
X154393948Y-95481052D01*
X154343651Y-95439774D01*
X154294244Y-95399107D01*
X154293823Y-95398881D01*
X154293450Y-95398575D01*
X154236104Y-95367923D01*
X154179675Y-95337657D01*
X154179220Y-95337518D01*
X154178793Y-95337290D01*
X154116480Y-95318387D01*
X154093072Y-95311250D01*
X154093072Y-93155000D01*
X154080812Y-93030518D01*
X154044502Y-92910820D01*
X153985537Y-92800506D01*
X153906185Y-92703815D01*
X153809494Y-92624463D01*
X153699180Y-92565498D01*
X153579482Y-92529188D01*
X153455000Y-92516928D01*
X150955000Y-92516928D01*
X150830518Y-92529188D01*
X150710820Y-92565498D01*
X150600506Y-92624463D01*
X150580000Y-92641292D01*
X150559494Y-92624463D01*
X150449180Y-92565498D01*
X150329482Y-92529188D01*
X150205000Y-92516928D01*
X147705000Y-92516928D01*
X147580518Y-92529188D01*
X147460820Y-92565498D01*
X147350506Y-92624463D01*
X147253815Y-92703815D01*
X147174463Y-92800506D01*
X147115498Y-92910820D01*
X147079188Y-93030518D01*
X147066928Y-93155000D01*
X147066928Y-95280118D01*
X143343072Y-95274752D01*
X143343072Y-93155000D01*
X143330812Y-93030518D01*
X143294502Y-92910820D01*
X143235537Y-92800506D01*
X143156185Y-92703815D01*
X143059494Y-92624463D01*
X142949180Y-92565498D01*
X142829482Y-92529188D01*
X142705000Y-92516928D01*
X142330683Y-92516928D01*
X142327195Y-92481510D01*
X142276589Y-92314687D01*
X142194411Y-92160941D01*
X142138241Y-92092498D01*
X142111532Y-92059953D01*
X142111530Y-92059951D01*
X142083817Y-92026183D01*
X142050050Y-91998471D01*
X141013441Y-90961862D01*
X141153800Y-90821503D01*
X141267068Y-90651985D01*
X141345089Y-90463627D01*
X141384863Y-90263668D01*
X141384863Y-90197609D01*
X161782439Y-90214972D01*
G37*
X161782439Y-90214972D02*
X161977540Y-90234102D01*
X162133894Y-90281308D01*
X162278096Y-90357982D01*
X162404663Y-90461207D01*
X162508769Y-90587051D01*
X162586447Y-90730711D01*
X162634742Y-90886729D01*
X162655106Y-91080484D01*
X162663298Y-92940000D01*
X157067000Y-92940000D01*
X157002855Y-92946290D01*
X156938644Y-92952133D01*
X156936338Y-92952812D01*
X156933949Y-92953046D01*
X156872277Y-92971666D01*
X156810394Y-92989879D01*
X156808264Y-92990992D01*
X156805967Y-92991686D01*
X156749114Y-93021916D01*
X156691919Y-93051816D01*
X156690045Y-93053323D01*
X156687927Y-93054449D01*
X156638014Y-93095157D01*
X156587731Y-93135586D01*
X156586187Y-93137427D01*
X156584326Y-93138944D01*
X156543234Y-93188616D01*
X156501797Y-93237998D01*
X156500640Y-93240102D01*
X156499109Y-93241953D01*
X156468459Y-93298639D01*
X156437392Y-93355150D01*
X156436665Y-93357442D01*
X156435524Y-93359552D01*
X156416483Y-93421063D01*
X156396969Y-93482580D01*
X156396701Y-93484968D01*
X156395991Y-93487262D01*
X156389254Y-93551366D01*
X156382067Y-93615436D01*
X156382035Y-93620050D01*
X156382017Y-93620218D01*
X156382032Y-93620386D01*
X156382000Y-93625000D01*
X156382000Y-98875000D01*
X156388290Y-98939145D01*
X156394133Y-99003356D01*
X156394812Y-99005662D01*
X156395046Y-99008051D01*
X156413666Y-99069723D01*
X156431879Y-99131606D01*
X156432992Y-99133736D01*
X156433686Y-99136033D01*
X156463916Y-99192886D01*
X156493816Y-99250081D01*
X156495323Y-99251955D01*
X156496449Y-99254073D01*
X156537157Y-99303986D01*
X156577586Y-99354269D01*
X156579427Y-99355813D01*
X156580944Y-99357674D01*
X156630616Y-99398766D01*
X156679998Y-99440203D01*
X156682102Y-99441360D01*
X156683953Y-99442891D01*
X156740639Y-99473541D01*
X156797150Y-99504608D01*
X156799442Y-99505335D01*
X156801552Y-99506476D01*
X156863084Y-99525524D01*
X156924580Y-99545031D01*
X156926968Y-99545299D01*
X156929262Y-99546009D01*
X156993366Y-99552746D01*
X157057436Y-99559933D01*
X157062050Y-99559965D01*
X157062218Y-99559983D01*
X157062386Y-99559968D01*
X157067000Y-99560000D01*
X162665000Y-99560000D01*
X162665000Y-99992722D01*
X162645898Y-100187540D01*
X162598692Y-100343895D01*
X162522018Y-100488096D01*
X162418792Y-100614664D01*
X162292951Y-100718768D01*
X162149289Y-100796447D01*
X161993271Y-100844742D01*
X161800527Y-100865000D01*
X157792581Y-100865000D01*
X157764671Y-100867749D01*
X157761693Y-100867728D01*
X157752522Y-100868627D01*
X157704360Y-100873689D01*
X157695617Y-100874550D01*
X157695325Y-100874638D01*
X157655473Y-100878827D01*
X157596854Y-100890860D01*
X157538116Y-100902064D01*
X157529294Y-100904728D01*
X157436075Y-100933584D01*
X157380937Y-100956762D01*
X157325463Y-100979175D01*
X157317334Y-100983498D01*
X157317330Y-100983500D01*
X157317327Y-100983502D01*
X157231489Y-101029915D01*
X157181913Y-101063355D01*
X157131844Y-101096119D01*
X157124703Y-101101943D01*
X157049514Y-101164145D01*
X157007361Y-101206594D01*
X156964629Y-101248439D01*
X156958755Y-101255540D01*
X156897079Y-101331161D01*
X156888293Y-101344385D01*
X156858696Y-101195595D01*
X156758061Y-100952641D01*
X156611962Y-100733987D01*
X156426013Y-100548038D01*
X156207359Y-100401939D01*
X155964405Y-100301304D01*
X155706486Y-100250000D01*
X155443514Y-100250000D01*
X155185595Y-100301304D01*
X154942641Y-100401939D01*
X154723987Y-100548038D01*
X154585000Y-100687025D01*
X154585000Y-95982891D01*
X154588192Y-95950955D01*
X154585000Y-95918061D01*
X154585000Y-95917581D01*
X154581833Y-95885429D01*
X154575635Y-95821555D01*
X154575498Y-95821099D01*
X154575450Y-95820617D01*
X154556596Y-95758465D01*
X154538075Y-95697091D01*
X154537850Y-95696669D01*
X154537710Y-95696207D01*
X154507165Y-95639060D01*
X154476955Y-95582345D01*
X154476652Y-95581975D01*
X154476425Y-95581550D01*
X154435271Y-95531403D01*
X154394623Y-95481729D01*
X154394255Y-95481426D01*
X154393948Y-95481052D01*
X154343651Y-95439774D01*
X154294244Y-95399107D01*
X154293823Y-95398881D01*
X154293450Y-95398575D01*
X154236104Y-95367923D01*
X154179675Y-95337657D01*
X154179220Y-95337518D01*
X154178793Y-95337290D01*
X154116480Y-95318387D01*
X154093072Y-95311250D01*
X154093072Y-93155000D01*
X154080812Y-93030518D01*
X154044502Y-92910820D01*
X153985537Y-92800506D01*
X153906185Y-92703815D01*
X153809494Y-92624463D01*
X153699180Y-92565498D01*
X153579482Y-92529188D01*
X153455000Y-92516928D01*
X150955000Y-92516928D01*
X150830518Y-92529188D01*
X150710820Y-92565498D01*
X150600506Y-92624463D01*
X150580000Y-92641292D01*
X150559494Y-92624463D01*
X150449180Y-92565498D01*
X150329482Y-92529188D01*
X150205000Y-92516928D01*
X147705000Y-92516928D01*
X147580518Y-92529188D01*
X147460820Y-92565498D01*
X147350506Y-92624463D01*
X147253815Y-92703815D01*
X147174463Y-92800506D01*
X147115498Y-92910820D01*
X147079188Y-93030518D01*
X147066928Y-93155000D01*
X147066928Y-95280118D01*
X143343072Y-95274752D01*
X143343072Y-93155000D01*
X143330812Y-93030518D01*
X143294502Y-92910820D01*
X143235537Y-92800506D01*
X143156185Y-92703815D01*
X143059494Y-92624463D01*
X142949180Y-92565498D01*
X142829482Y-92529188D01*
X142705000Y-92516928D01*
X142330683Y-92516928D01*
X142327195Y-92481510D01*
X142276589Y-92314687D01*
X142194411Y-92160941D01*
X142138241Y-92092498D01*
X142111532Y-92059953D01*
X142111530Y-92059951D01*
X142083817Y-92026183D01*
X142050050Y-91998471D01*
X141013441Y-90961862D01*
X141153800Y-90821503D01*
X141267068Y-90651985D01*
X141345089Y-90463627D01*
X141384863Y-90263668D01*
X141384863Y-90197609D01*
X161782439Y-90214972D01*
G36*
X140078286Y-92529865D02*
G01*
X139960820Y-92565498D01*
X139850506Y-92624463D01*
X139830000Y-92641292D01*
X139809494Y-92624463D01*
X139699180Y-92565498D01*
X139579482Y-92529188D01*
X139455000Y-92516928D01*
X138490750Y-92520000D01*
X138332000Y-92678750D01*
X138332000Y-94278000D01*
X138352000Y-94278000D01*
X138352000Y-94532000D01*
X138332000Y-94532000D01*
X138332000Y-94552000D01*
X138078000Y-94552000D01*
X138078000Y-94532000D01*
X138058000Y-94532000D01*
X138058000Y-94278000D01*
X138078000Y-94278000D01*
X138078000Y-92678750D01*
X137919250Y-92520000D01*
X136955000Y-92516928D01*
X136911210Y-92521241D01*
X136878962Y-92488993D01*
X136709444Y-92375725D01*
X136521086Y-92297704D01*
X136321127Y-92257930D01*
X136117249Y-92257930D01*
X135917290Y-92297704D01*
X135728932Y-92375725D01*
X135559414Y-92488993D01*
X135415251Y-92633156D01*
X135301983Y-92802674D01*
X135223962Y-92991032D01*
X135212653Y-93047886D01*
X134935000Y-93325539D01*
X134935000Y-93238967D01*
X134872168Y-92923088D01*
X134748918Y-92625537D01*
X134569987Y-92357748D01*
X134342252Y-92130013D01*
X134074463Y-91951082D01*
X133792351Y-91834227D01*
X133991580Y-91634999D01*
X139183421Y-91634999D01*
X140078286Y-92529865D01*
G37*
X140078286Y-92529865D02*
X139960820Y-92565498D01*
X139850506Y-92624463D01*
X139830000Y-92641292D01*
X139809494Y-92624463D01*
X139699180Y-92565498D01*
X139579482Y-92529188D01*
X139455000Y-92516928D01*
X138490750Y-92520000D01*
X138332000Y-92678750D01*
X138332000Y-94278000D01*
X138352000Y-94278000D01*
X138352000Y-94532000D01*
X138332000Y-94532000D01*
X138332000Y-94552000D01*
X138078000Y-94552000D01*
X138078000Y-94532000D01*
X138058000Y-94532000D01*
X138058000Y-94278000D01*
X138078000Y-94278000D01*
X138078000Y-92678750D01*
X137919250Y-92520000D01*
X136955000Y-92516928D01*
X136911210Y-92521241D01*
X136878962Y-92488993D01*
X136709444Y-92375725D01*
X136521086Y-92297704D01*
X136321127Y-92257930D01*
X136117249Y-92257930D01*
X135917290Y-92297704D01*
X135728932Y-92375725D01*
X135559414Y-92488993D01*
X135415251Y-92633156D01*
X135301983Y-92802674D01*
X135223962Y-92991032D01*
X135212653Y-93047886D01*
X134935000Y-93325539D01*
X134935000Y-93238967D01*
X134872168Y-92923088D01*
X134748918Y-92625537D01*
X134569987Y-92357748D01*
X134342252Y-92130013D01*
X134074463Y-91951082D01*
X133792351Y-91834227D01*
X133991580Y-91634999D01*
X139183421Y-91634999D01*
X140078286Y-92529865D01*
M02*
