G04 #@! TF.GenerationSoftware,KiCad,Pcbnew,(5.1.5)-3*
G04 #@! TF.CreationDate,2020-04-25T18:25:03+02:00*
G04 #@! TF.ProjectId,AGB_LIPO,4147425f-4c49-4504-9f2e-6b696361645f,rev?*
G04 #@! TF.SameCoordinates,Original*
G04 #@! TF.FileFunction,Soldermask,Top*
G04 #@! TF.FilePolarity,Negative*
%FSLAX46Y46*%
G04 Gerber Fmt 4.6, Leading zero omitted, Abs format (unit mm)*
G04 Created by KiCad (PCBNEW (5.1.5)-3) date 2020-04-25 18:25:03*
%MOMM*%
%LPD*%
G04 APERTURE LIST*
%ADD10C,0.100000*%
G04 APERTURE END LIST*
D10*
G36*
X125928500Y-41250000D02*
G01*
X119678500Y-41250000D01*
X119678500Y-36000000D01*
X125928500Y-36000000D01*
X125928500Y-41250000D01*
G37*
X125928500Y-41250000D02*
X119678500Y-41250000D01*
X119678500Y-36000000D01*
X125928500Y-36000000D01*
X125928500Y-41250000D01*
G36*
X125992000Y-25750000D02*
G01*
X119742000Y-25750000D01*
X119742000Y-20500000D01*
X125992000Y-20500000D01*
X125992000Y-25750000D01*
G37*
X125992000Y-25750000D02*
X119742000Y-25750000D01*
X119742000Y-20500000D01*
X125992000Y-20500000D01*
X125992000Y-25750000D01*
G36*
X78574012Y-38953427D02*
G01*
X78723312Y-38983124D01*
X78887284Y-39051044D01*
X79034854Y-39149647D01*
X79160353Y-39275146D01*
X79258956Y-39422716D01*
X79326876Y-39586688D01*
X79361500Y-39760759D01*
X79361500Y-39938241D01*
X79326876Y-40112312D01*
X79258956Y-40276284D01*
X79160353Y-40423854D01*
X79034854Y-40549353D01*
X78887284Y-40647956D01*
X78723312Y-40715876D01*
X78574012Y-40745573D01*
X78549242Y-40750500D01*
X78371758Y-40750500D01*
X78346988Y-40745573D01*
X78197688Y-40715876D01*
X78033716Y-40647956D01*
X77886146Y-40549353D01*
X77760647Y-40423854D01*
X77662044Y-40276284D01*
X77594124Y-40112312D01*
X77559500Y-39938241D01*
X77559500Y-39760759D01*
X77594124Y-39586688D01*
X77662044Y-39422716D01*
X77760647Y-39275146D01*
X77886146Y-39149647D01*
X78033716Y-39051044D01*
X78197688Y-38983124D01*
X78346988Y-38953427D01*
X78371758Y-38948500D01*
X78549242Y-38948500D01*
X78574012Y-38953427D01*
G37*
G36*
X79361500Y-38210500D02*
G01*
X77559500Y-38210500D01*
X77559500Y-36408500D01*
X79361500Y-36408500D01*
X79361500Y-38210500D01*
G37*
G36*
X89740721Y-35200174D02*
G01*
X89840995Y-35241709D01*
X89840996Y-35241710D01*
X89931242Y-35302010D01*
X90007990Y-35378758D01*
X90007991Y-35378760D01*
X90068291Y-35469005D01*
X90109826Y-35569279D01*
X90131000Y-35675730D01*
X90131000Y-35784270D01*
X90109826Y-35890721D01*
X90068291Y-35990995D01*
X90068290Y-35990996D01*
X90007990Y-36081242D01*
X89931242Y-36157990D01*
X89885812Y-36188345D01*
X89840995Y-36218291D01*
X89740721Y-36259826D01*
X89634270Y-36281000D01*
X89525730Y-36281000D01*
X89419279Y-36259826D01*
X89319005Y-36218291D01*
X89274188Y-36188345D01*
X89228758Y-36157990D01*
X89152010Y-36081242D01*
X89091710Y-35990996D01*
X89091709Y-35990995D01*
X89050174Y-35890721D01*
X89029000Y-35784270D01*
X89029000Y-35675730D01*
X89050174Y-35569279D01*
X89091709Y-35469005D01*
X89152009Y-35378760D01*
X89152010Y-35378758D01*
X89228758Y-35302010D01*
X89319004Y-35241710D01*
X89319005Y-35241709D01*
X89419279Y-35200174D01*
X89525730Y-35179000D01*
X89634270Y-35179000D01*
X89740721Y-35200174D01*
G37*
G36*
X91921000Y-36261000D02*
G01*
X91019000Y-36261000D01*
X91019000Y-35259000D01*
X91921000Y-35259000D01*
X91921000Y-36261000D01*
G37*
G36*
X93821000Y-36261000D02*
G01*
X92919000Y-36261000D01*
X92919000Y-35259000D01*
X93821000Y-35259000D01*
X93821000Y-36261000D01*
G37*
G36*
X88141000Y-35131000D02*
G01*
X86539000Y-35131000D01*
X86539000Y-33529000D01*
X88141000Y-33529000D01*
X88141000Y-35131000D01*
G37*
G36*
X79953642Y-33559781D02*
G01*
X80099414Y-33620162D01*
X80099416Y-33620163D01*
X80230608Y-33707822D01*
X80342178Y-33819392D01*
X80429837Y-33950584D01*
X80429838Y-33950586D01*
X80490219Y-34096358D01*
X80521000Y-34251107D01*
X80521000Y-34408893D01*
X80490219Y-34563642D01*
X80429838Y-34709414D01*
X80429837Y-34709416D01*
X80342178Y-34840608D01*
X80230608Y-34952178D01*
X80099416Y-35039837D01*
X80099415Y-35039838D01*
X80099414Y-35039838D01*
X79953642Y-35100219D01*
X79798893Y-35131000D01*
X79641107Y-35131000D01*
X79486358Y-35100219D01*
X79340586Y-35039838D01*
X79340585Y-35039838D01*
X79340584Y-35039837D01*
X79209392Y-34952178D01*
X79097822Y-34840608D01*
X79010163Y-34709416D01*
X79010162Y-34709414D01*
X78949781Y-34563642D01*
X78919000Y-34408893D01*
X78919000Y-34251107D01*
X78949781Y-34096358D01*
X79010162Y-33950586D01*
X79010163Y-33950584D01*
X79097822Y-33819392D01*
X79209392Y-33707822D01*
X79340584Y-33620163D01*
X79340586Y-33620162D01*
X79486358Y-33559781D01*
X79641107Y-33529000D01*
X79798893Y-33529000D01*
X79953642Y-33559781D01*
G37*
G36*
X92871000Y-34261000D02*
G01*
X91969000Y-34261000D01*
X91969000Y-33259000D01*
X92871000Y-33259000D01*
X92871000Y-34261000D01*
G37*
G36*
X79661000Y-32951000D02*
G01*
X78059000Y-32951000D01*
X78059000Y-30849000D01*
X79661000Y-30849000D01*
X79661000Y-32951000D01*
G37*
G36*
X84261000Y-32951000D02*
G01*
X82659000Y-32951000D01*
X82659000Y-30849000D01*
X84261000Y-30849000D01*
X84261000Y-32951000D01*
G37*
G36*
X81961000Y-32951000D02*
G01*
X80359000Y-32951000D01*
X80359000Y-30849000D01*
X81961000Y-30849000D01*
X81961000Y-32951000D01*
G37*
G36*
X117419059Y-30877860D02*
G01*
X117555732Y-30934472D01*
X117678735Y-31016660D01*
X117783340Y-31121265D01*
X117865528Y-31244268D01*
X117922140Y-31380941D01*
X117951000Y-31526033D01*
X117951000Y-31673967D01*
X117922140Y-31819059D01*
X117865528Y-31955732D01*
X117783340Y-32078735D01*
X117678735Y-32183340D01*
X117555732Y-32265528D01*
X117555731Y-32265529D01*
X117555730Y-32265529D01*
X117419059Y-32322140D01*
X117273968Y-32351000D01*
X117126032Y-32351000D01*
X116980941Y-32322140D01*
X116844270Y-32265529D01*
X116844269Y-32265529D01*
X116844268Y-32265528D01*
X116721265Y-32183340D01*
X116616660Y-32078735D01*
X116534472Y-31955732D01*
X116477860Y-31819059D01*
X116449000Y-31673967D01*
X116449000Y-31526033D01*
X116477860Y-31380941D01*
X116534472Y-31244268D01*
X116616660Y-31121265D01*
X116721265Y-31016660D01*
X116844268Y-30934472D01*
X116980941Y-30877860D01*
X117126032Y-30849000D01*
X117273968Y-30849000D01*
X117419059Y-30877860D01*
G37*
G36*
X117419059Y-28337860D02*
G01*
X117555732Y-28394472D01*
X117678735Y-28476660D01*
X117783340Y-28581265D01*
X117865528Y-28704268D01*
X117922140Y-28840941D01*
X117951000Y-28986033D01*
X117951000Y-29133967D01*
X117922140Y-29279059D01*
X117865528Y-29415732D01*
X117783340Y-29538735D01*
X117678735Y-29643340D01*
X117555732Y-29725528D01*
X117555731Y-29725529D01*
X117555730Y-29725529D01*
X117419059Y-29782140D01*
X117273968Y-29811000D01*
X117126032Y-29811000D01*
X116980941Y-29782140D01*
X116844270Y-29725529D01*
X116844269Y-29725529D01*
X116844268Y-29725528D01*
X116721265Y-29643340D01*
X116616660Y-29538735D01*
X116534472Y-29415732D01*
X116477860Y-29279059D01*
X116449000Y-29133967D01*
X116449000Y-28986033D01*
X116477860Y-28840941D01*
X116534472Y-28704268D01*
X116616660Y-28581265D01*
X116721265Y-28476660D01*
X116844268Y-28394472D01*
X116980941Y-28337860D01*
X117126032Y-28309000D01*
X117273968Y-28309000D01*
X117419059Y-28337860D01*
G37*
G36*
X110771000Y-27651000D02*
G01*
X107869000Y-27651000D01*
X107869000Y-24749000D01*
X110771000Y-24749000D01*
X110771000Y-27651000D01*
G37*
G36*
X103171000Y-27651000D02*
G01*
X100269000Y-27651000D01*
X100269000Y-24749000D01*
X103171000Y-24749000D01*
X103171000Y-27651000D01*
G37*
G36*
X99671000Y-27651000D02*
G01*
X96769000Y-27651000D01*
X96769000Y-24749000D01*
X99671000Y-24749000D01*
X99671000Y-27651000D01*
G37*
G36*
X114171000Y-27651000D02*
G01*
X111269000Y-27651000D01*
X111269000Y-24749000D01*
X114171000Y-24749000D01*
X114171000Y-27651000D01*
G37*
G36*
X83111000Y-26651000D02*
G01*
X79209000Y-26651000D01*
X79209000Y-24549000D01*
X83111000Y-24549000D01*
X83111000Y-26651000D01*
G37*
G36*
X80088228Y-21471703D02*
G01*
X80243100Y-21535853D01*
X80382481Y-21628985D01*
X80501015Y-21747519D01*
X80594147Y-21886900D01*
X80658297Y-22041772D01*
X80691000Y-22206184D01*
X80691000Y-22373816D01*
X80658297Y-22538228D01*
X80594147Y-22693100D01*
X80501015Y-22832481D01*
X80382481Y-22951015D01*
X80243100Y-23044147D01*
X80088228Y-23108297D01*
X79923816Y-23141000D01*
X79756184Y-23141000D01*
X79591772Y-23108297D01*
X79436900Y-23044147D01*
X79297519Y-22951015D01*
X79178985Y-22832481D01*
X79085853Y-22693100D01*
X79021703Y-22538228D01*
X78989000Y-22373816D01*
X78989000Y-22206184D01*
X79021703Y-22041772D01*
X79085853Y-21886900D01*
X79178985Y-21747519D01*
X79297519Y-21628985D01*
X79436900Y-21535853D01*
X79591772Y-21471703D01*
X79756184Y-21439000D01*
X79923816Y-21439000D01*
X80088228Y-21471703D01*
G37*
G36*
X95328228Y-21471703D02*
G01*
X95483100Y-21535853D01*
X95622481Y-21628985D01*
X95741015Y-21747519D01*
X95834147Y-21886900D01*
X95898297Y-22041772D01*
X95931000Y-22206184D01*
X95931000Y-22373816D01*
X95898297Y-22538228D01*
X95834147Y-22693100D01*
X95741015Y-22832481D01*
X95622481Y-22951015D01*
X95483100Y-23044147D01*
X95328228Y-23108297D01*
X95163816Y-23141000D01*
X94996184Y-23141000D01*
X94831772Y-23108297D01*
X94676900Y-23044147D01*
X94537519Y-22951015D01*
X94418985Y-22832481D01*
X94325853Y-22693100D01*
X94261703Y-22538228D01*
X94229000Y-22373816D01*
X94229000Y-22206184D01*
X94261703Y-22041772D01*
X94325853Y-21886900D01*
X94418985Y-21747519D01*
X94537519Y-21628985D01*
X94676900Y-21535853D01*
X94831772Y-21471703D01*
X94996184Y-21439000D01*
X95163816Y-21439000D01*
X95328228Y-21471703D01*
G37*
M02*
