M48
; DRILL file {KiCad (5.1.5)-3} date 17.06.2020 17:40:27
; FORMAT={-:-/ absolute / inch / decimal}
; #@! TF.CreationDate,2020-06-17T17:40:27+02:00
; #@! TF.GenerationSoftware,Kicad,Pcbnew,(5.1.5)-3
; #@! TF.FileFunction,Plated,1,2,PTH
FMAT,2
INCH
T1C0.0157
T2C0.0315
T3C0.0394
T4C0.0492
%
G90
G05
T1
X4.6181Y-4.0906
X4.6345Y-3.8404
X4.8368Y-4.0339
X4.9295Y-4.2053
X4.9295Y-4.2453
X4.964Y-3.7967
X4.964Y-3.7573
X4.9775Y-3.9757
X5.065Y-4.0285
X5.0695Y-4.2053
X5.0774Y-3.7573
X5.1356Y-3.7978
X5.1584Y-3.9307
X5.1746Y-4.0069
X5.186Y-3.6166
X5.2874Y-3.7628
X5.2907Y-4.0853
X5.3258Y-3.907
X5.363Y-3.6729
X5.5256Y-3.5497
X5.9847Y-3.5871
X6.2068Y-4.2618
X6.2068Y-4.315
X6.2068Y-4.3661
X6.2068Y-4.4193
X6.2093Y-3.7096
X6.2093Y-3.7628
X6.2093Y-3.814
X6.2093Y-3.8671
X6.256Y-4.2618
X6.256Y-4.315
X6.256Y-4.3661
X6.256Y-4.4193
X6.2585Y-3.7096
X6.2585Y-3.7628
X6.2585Y-3.814
X6.2585Y-3.8671
X6.3053Y-4.2618
X6.3053Y-4.315
X6.3053Y-4.3661
X6.3053Y-4.4193
X6.3078Y-3.7096
X6.3078Y-3.7628
X6.3078Y-3.814
X6.3078Y-3.8671
X6.3545Y-4.2618
X6.3545Y-4.315
X6.3545Y-4.3661
X6.3545Y-4.4193
X6.357Y-3.7096
X6.357Y-3.7628
X6.357Y-3.814
X6.357Y-3.8671
X6.4037Y-4.2618
X6.4037Y-4.315
X6.4037Y-4.3661
X6.4037Y-4.4193
X6.4062Y-3.7096
X6.4062Y-3.7628
X6.4062Y-3.814
X6.4062Y-3.8671
T2
X6.125Y-3.9994
X6.125Y-4.0994
T3
X4.5585Y-4.3242
X4.5585Y-4.4242
X5.248Y-3.6772
T4
X5.4411Y-3.7167
X5.5691Y-3.7167
X5.8644Y-3.7167
X5.9923Y-3.7167
T0
M30
