G04 #@! TF.GenerationSoftware,KiCad,Pcbnew,(5.1.5)-3*
G04 #@! TF.CreationDate,2020-06-17T17:40:25+02:00*
G04 #@! TF.ProjectId,AGB_LIPO,4147425f-4c49-4504-9f2e-6b696361645f,rev?*
G04 #@! TF.SameCoordinates,Original*
G04 #@! TF.FileFunction,Soldermask,Bot*
G04 #@! TF.FilePolarity,Negative*
%FSLAX46Y46*%
G04 Gerber Fmt 4.6, Leading zero omitted, Abs format (unit mm)*
G04 Created by KiCad (PCBNEW (5.1.5)-3) date 2020-06-17 17:40:25*
%MOMM*%
%LPD*%
G04 APERTURE LIST*
%ADD10C,0.100000*%
G04 APERTURE END LIST*
D10*
G36*
X163253500Y-112900000D02*
G01*
X157003500Y-112900000D01*
X157003500Y-107650000D01*
X163253500Y-107650000D01*
X163253500Y-112900000D01*
G37*
X163253500Y-112900000D02*
X157003500Y-112900000D01*
X157003500Y-107650000D01*
X163253500Y-107650000D01*
X163253500Y-112900000D01*
G36*
X163317000Y-98875000D02*
G01*
X157067000Y-98875000D01*
X157067000Y-93625000D01*
X163317000Y-93625000D01*
X163317000Y-98875000D01*
G37*
X163317000Y-98875000D02*
X157067000Y-98875000D01*
X157067000Y-93625000D01*
X163317000Y-93625000D01*
X163317000Y-98875000D01*
G36*
X115899012Y-111478427D02*
G01*
X116048312Y-111508124D01*
X116212284Y-111576044D01*
X116359854Y-111674647D01*
X116485353Y-111800146D01*
X116583956Y-111947716D01*
X116651876Y-112111688D01*
X116686500Y-112285759D01*
X116686500Y-112463241D01*
X116651876Y-112637312D01*
X116583956Y-112801284D01*
X116485353Y-112948854D01*
X116359854Y-113074353D01*
X116212284Y-113172956D01*
X116048312Y-113240876D01*
X115899012Y-113270573D01*
X115874242Y-113275500D01*
X115696758Y-113275500D01*
X115671988Y-113270573D01*
X115522688Y-113240876D01*
X115358716Y-113172956D01*
X115211146Y-113074353D01*
X115085647Y-112948854D01*
X114987044Y-112801284D01*
X114919124Y-112637312D01*
X114884500Y-112463241D01*
X114884500Y-112285759D01*
X114919124Y-112111688D01*
X114987044Y-111947716D01*
X115085647Y-111800146D01*
X115211146Y-111674647D01*
X115358716Y-111576044D01*
X115522688Y-111508124D01*
X115671988Y-111478427D01*
X115696758Y-111473500D01*
X115874242Y-111473500D01*
X115899012Y-111478427D01*
G37*
G36*
X116686500Y-110735500D02*
G01*
X114884500Y-110735500D01*
X114884500Y-108933500D01*
X116686500Y-108933500D01*
X116686500Y-110735500D01*
G37*
G36*
X155794059Y-103402860D02*
G01*
X155930732Y-103459472D01*
X156053735Y-103541660D01*
X156158340Y-103646265D01*
X156240528Y-103769268D01*
X156297140Y-103905941D01*
X156326000Y-104051033D01*
X156326000Y-104198967D01*
X156297140Y-104344059D01*
X156240528Y-104480732D01*
X156158340Y-104603735D01*
X156053735Y-104708340D01*
X155930732Y-104790528D01*
X155930731Y-104790529D01*
X155930730Y-104790529D01*
X155794059Y-104847140D01*
X155648968Y-104876000D01*
X155501032Y-104876000D01*
X155355941Y-104847140D01*
X155219270Y-104790529D01*
X155219269Y-104790529D01*
X155219268Y-104790528D01*
X155096265Y-104708340D01*
X154991660Y-104603735D01*
X154909472Y-104480732D01*
X154852860Y-104344059D01*
X154824000Y-104198967D01*
X154824000Y-104051033D01*
X154852860Y-103905941D01*
X154909472Y-103769268D01*
X154991660Y-103646265D01*
X155096265Y-103541660D01*
X155219268Y-103459472D01*
X155355941Y-103402860D01*
X155501032Y-103374000D01*
X155648968Y-103374000D01*
X155794059Y-103402860D01*
G37*
G36*
X155794059Y-100862860D02*
G01*
X155930732Y-100919472D01*
X156053735Y-101001660D01*
X156158340Y-101106265D01*
X156240528Y-101229268D01*
X156297140Y-101365941D01*
X156326000Y-101511033D01*
X156326000Y-101658967D01*
X156297140Y-101804059D01*
X156240528Y-101940732D01*
X156158340Y-102063735D01*
X156053735Y-102168340D01*
X155930732Y-102250528D01*
X155930731Y-102250529D01*
X155930730Y-102250529D01*
X155794059Y-102307140D01*
X155648968Y-102336000D01*
X155501032Y-102336000D01*
X155355941Y-102307140D01*
X155219270Y-102250529D01*
X155219269Y-102250529D01*
X155219268Y-102250528D01*
X155096265Y-102168340D01*
X154991660Y-102063735D01*
X154909472Y-101940732D01*
X154852860Y-101804059D01*
X154824000Y-101658967D01*
X154824000Y-101511033D01*
X154852860Y-101365941D01*
X154909472Y-101229268D01*
X154991660Y-101106265D01*
X155096265Y-101001660D01*
X155219268Y-100919472D01*
X155355941Y-100862860D01*
X155501032Y-100834000D01*
X155648968Y-100834000D01*
X155794059Y-100862860D01*
G37*
G36*
X153506000Y-95706000D02*
G01*
X150904000Y-95706000D01*
X150904000Y-93104000D01*
X153506000Y-93104000D01*
X153506000Y-95706000D01*
G37*
G36*
X150256000Y-95706000D02*
G01*
X147654000Y-95706000D01*
X147654000Y-93104000D01*
X150256000Y-93104000D01*
X150256000Y-95706000D01*
G37*
G36*
X142756000Y-95706000D02*
G01*
X140154000Y-95706000D01*
X140154000Y-93104000D01*
X142756000Y-93104000D01*
X142756000Y-95706000D01*
G37*
G36*
X139506000Y-95706000D02*
G01*
X136904000Y-95706000D01*
X136904000Y-93104000D01*
X139506000Y-93104000D01*
X139506000Y-95706000D01*
G37*
G36*
X133606564Y-92389389D02*
G01*
X133797833Y-92468615D01*
X133797835Y-92468616D01*
X133969973Y-92583635D01*
X134116365Y-92730027D01*
X134231385Y-92902167D01*
X134310611Y-93093436D01*
X134351000Y-93296484D01*
X134351000Y-93503516D01*
X134310611Y-93706564D01*
X134231385Y-93897833D01*
X134231384Y-93897835D01*
X134116365Y-94069973D01*
X133969973Y-94216365D01*
X133797835Y-94331384D01*
X133797834Y-94331385D01*
X133797833Y-94331385D01*
X133606564Y-94410611D01*
X133403516Y-94451000D01*
X133196484Y-94451000D01*
X132993436Y-94410611D01*
X132802167Y-94331385D01*
X132802166Y-94331385D01*
X132802165Y-94331384D01*
X132630027Y-94216365D01*
X132483635Y-94069973D01*
X132368616Y-93897835D01*
X132368615Y-93897833D01*
X132289389Y-93706564D01*
X132249000Y-93503516D01*
X132249000Y-93296484D01*
X132289389Y-93093436D01*
X132368615Y-92902167D01*
X132483635Y-92730027D01*
X132630027Y-92583635D01*
X132802165Y-92468616D01*
X132802167Y-92468615D01*
X132993436Y-92389389D01*
X133196484Y-92349000D01*
X133403516Y-92349000D01*
X133606564Y-92389389D01*
G37*
M02*
