G04 #@! TF.GenerationSoftware,KiCad,Pcbnew,(5.1.5)-3*
G04 #@! TF.CreationDate,2020-06-17T17:40:25+02:00*
G04 #@! TF.ProjectId,AGB_LIPO,4147425f-4c49-4504-9f2e-6b696361645f,rev?*
G04 #@! TF.SameCoordinates,Original*
G04 #@! TF.FileFunction,Legend,Top*
G04 #@! TF.FilePolarity,Positive*
%FSLAX46Y46*%
G04 Gerber Fmt 4.6, Leading zero omitted, Abs format (unit mm)*
G04 Created by KiCad (PCBNEW (5.1.5)-3) date 2020-06-17 17:40:25*
%MOMM*%
%LPD*%
G04 APERTURE LIST*
%ADD10C,0.300000*%
%ADD11C,0.120000*%
%ADD12C,0.200000*%
%ADD13C,0.150000*%
%ADD14C,0.254000*%
G04 APERTURE END LIST*
D10*
X159129761Y-105782142D02*
X159415476Y-105877380D01*
X159510714Y-105972619D01*
X159605952Y-106163095D01*
X159605952Y-106448809D01*
X159510714Y-106639285D01*
X159415476Y-106734523D01*
X159225000Y-106829761D01*
X158463095Y-106829761D01*
X158463095Y-104829761D01*
X159129761Y-104829761D01*
X159320238Y-104925000D01*
X159415476Y-105020238D01*
X159510714Y-105210714D01*
X159510714Y-105401190D01*
X159415476Y-105591666D01*
X159320238Y-105686904D01*
X159129761Y-105782142D01*
X158463095Y-105782142D01*
X160463095Y-106067857D02*
X161986904Y-106067857D01*
X159129761Y-100182142D02*
X159415476Y-100277380D01*
X159510714Y-100372619D01*
X159605952Y-100563095D01*
X159605952Y-100848809D01*
X159510714Y-101039285D01*
X159415476Y-101134523D01*
X159225000Y-101229761D01*
X158463095Y-101229761D01*
X158463095Y-99229761D01*
X159129761Y-99229761D01*
X159320238Y-99325000D01*
X159415476Y-99420238D01*
X159510714Y-99610714D01*
X159510714Y-99801190D01*
X159415476Y-99991666D01*
X159320238Y-100086904D01*
X159129761Y-100182142D01*
X158463095Y-100182142D01*
X160463095Y-100467857D02*
X161986904Y-100467857D01*
X161225000Y-101229761D02*
X161225000Y-99705952D01*
X118690261Y-109341642D02*
X118975976Y-109436880D01*
X119071214Y-109532119D01*
X119166452Y-109722595D01*
X119166452Y-110008309D01*
X119071214Y-110198785D01*
X118975976Y-110294023D01*
X118785500Y-110389261D01*
X118023595Y-110389261D01*
X118023595Y-108389261D01*
X118690261Y-108389261D01*
X118880738Y-108484500D01*
X118975976Y-108579738D01*
X119071214Y-108770214D01*
X119071214Y-108960690D01*
X118975976Y-109151166D01*
X118880738Y-109246404D01*
X118690261Y-109341642D01*
X118023595Y-109341642D01*
X120023595Y-109627357D02*
X121547404Y-109627357D01*
X120785500Y-110389261D02*
X120785500Y-108865452D01*
X118690261Y-112641642D02*
X118975976Y-112736880D01*
X119071214Y-112832119D01*
X119166452Y-113022595D01*
X119166452Y-113308309D01*
X119071214Y-113498785D01*
X118975976Y-113594023D01*
X118785500Y-113689261D01*
X118023595Y-113689261D01*
X118023595Y-111689261D01*
X118690261Y-111689261D01*
X118880738Y-111784500D01*
X118975976Y-111879738D01*
X119071214Y-112070214D01*
X119071214Y-112260690D01*
X118975976Y-112451166D01*
X118880738Y-112546404D01*
X118690261Y-112641642D01*
X118023595Y-112641642D01*
X120023595Y-112927357D02*
X121547404Y-112927357D01*
D11*
X123135000Y-100496267D02*
X123135000Y-100153733D01*
X122115000Y-100496267D02*
X122115000Y-100153733D01*
X126196267Y-112925000D02*
X125853733Y-112925000D01*
X126196267Y-113945000D02*
X125853733Y-113945000D01*
X134101000Y-98604267D02*
X134101000Y-98261733D01*
X133081000Y-98604267D02*
X133081000Y-98261733D01*
X123735000Y-104413733D02*
X123735000Y-104756267D01*
X124755000Y-104413733D02*
X124755000Y-104756267D01*
X128256252Y-110435000D02*
X127733748Y-110435000D01*
X128256252Y-111855000D02*
X127733748Y-111855000D01*
X126953748Y-109557000D02*
X127476252Y-109557000D01*
X126953748Y-108137000D02*
X127476252Y-108137000D01*
X122943748Y-112425000D02*
X123466252Y-112425000D01*
X122943748Y-111005000D02*
X123466252Y-111005000D01*
D12*
X118395000Y-98260000D02*
X118395000Y-99510000D01*
X115315000Y-99860000D02*
X118215000Y-99860000D01*
X115315000Y-100410000D02*
X115315000Y-99860000D01*
X118215000Y-100410000D02*
X115315000Y-100410000D01*
X118215000Y-99860000D02*
X118215000Y-100410000D01*
D11*
X120554267Y-97035000D02*
X120211733Y-97035000D01*
X120554267Y-98055000D02*
X120211733Y-98055000D01*
X134800000Y-93400000D02*
G75*
G03X134800000Y-93400000I-1500000J0D01*
G01*
D12*
X131835000Y-97225000D02*
X131835000Y-99125000D01*
X125535000Y-99475000D02*
X132035000Y-99475000D01*
X125535000Y-102975000D02*
X125535000Y-99475000D01*
X132035000Y-102975000D02*
X125535000Y-102975000D01*
X132035000Y-99475000D02*
X132035000Y-102975000D01*
X134835000Y-113215000D02*
X134835000Y-107615000D01*
X132235000Y-107615000D02*
X132235000Y-113640000D01*
X124949000Y-94907000D02*
X130549000Y-94907000D01*
X130549000Y-92307000D02*
X124524000Y-92307000D01*
D13*
X155175000Y-105155000D02*
X154675000Y-104655000D01*
X155975000Y-105155000D02*
X155175000Y-105155000D01*
X156475000Y-104655000D02*
X155975000Y-105155000D01*
X156475000Y-101055000D02*
X156475000Y-104655000D01*
X155975000Y-100555000D02*
X156475000Y-101055000D01*
X155175000Y-100555000D02*
X155975000Y-100555000D01*
X154675000Y-101055000D02*
X155175000Y-100555000D01*
X154675000Y-104655000D02*
X154675000Y-101055000D01*
D11*
X121090000Y-93355000D02*
X116705000Y-93355000D01*
X121090000Y-96375000D02*
X121090000Y-93355000D01*
X116705000Y-96375000D02*
X121090000Y-96375000D01*
X114455500Y-108504500D02*
X115785500Y-108504500D01*
X114455500Y-109834500D02*
X114455500Y-108504500D01*
X114455500Y-111104500D02*
X117115500Y-111104500D01*
X117115500Y-111104500D02*
X117115500Y-113704500D01*
X114455500Y-111104500D02*
X114455500Y-113704500D01*
X114455500Y-113704500D02*
X117115500Y-113704500D01*
D13*
X121647380Y-100491666D02*
X121171190Y-100825000D01*
X121647380Y-101063095D02*
X120647380Y-101063095D01*
X120647380Y-100682142D01*
X120695000Y-100586904D01*
X120742619Y-100539285D01*
X120837857Y-100491666D01*
X120980714Y-100491666D01*
X121075952Y-100539285D01*
X121123571Y-100586904D01*
X121171190Y-100682142D01*
X121171190Y-101063095D01*
X120647380Y-100158333D02*
X120647380Y-99539285D01*
X121028333Y-99872619D01*
X121028333Y-99729761D01*
X121075952Y-99634523D01*
X121123571Y-99586904D01*
X121218809Y-99539285D01*
X121456904Y-99539285D01*
X121552142Y-99586904D01*
X121599761Y-99634523D01*
X121647380Y-99729761D01*
X121647380Y-100015476D01*
X121599761Y-100110714D01*
X121552142Y-100158333D01*
X123408333Y-114202380D02*
X123075000Y-113726190D01*
X122836904Y-114202380D02*
X122836904Y-113202380D01*
X123217857Y-113202380D01*
X123313095Y-113250000D01*
X123360714Y-113297619D01*
X123408333Y-113392857D01*
X123408333Y-113535714D01*
X123360714Y-113630952D01*
X123313095Y-113678571D01*
X123217857Y-113726190D01*
X122836904Y-113726190D01*
X124360714Y-114202380D02*
X123789285Y-114202380D01*
X124075000Y-114202380D02*
X124075000Y-113202380D01*
X123979761Y-113345238D01*
X123884523Y-113440476D01*
X123789285Y-113488095D01*
X135457142Y-98566666D02*
X135504761Y-98614285D01*
X135552380Y-98757142D01*
X135552380Y-98852380D01*
X135504761Y-98995238D01*
X135409523Y-99090476D01*
X135314285Y-99138095D01*
X135123809Y-99185714D01*
X134980952Y-99185714D01*
X134790476Y-99138095D01*
X134695238Y-99090476D01*
X134600000Y-98995238D01*
X134552380Y-98852380D01*
X134552380Y-98757142D01*
X134600000Y-98614285D01*
X134647619Y-98566666D01*
X134552380Y-98233333D02*
X134552380Y-97614285D01*
X134933333Y-97947619D01*
X134933333Y-97804761D01*
X134980952Y-97709523D01*
X135028571Y-97661904D01*
X135123809Y-97614285D01*
X135361904Y-97614285D01*
X135457142Y-97661904D01*
X135504761Y-97709523D01*
X135552380Y-97804761D01*
X135552380Y-98090476D01*
X135504761Y-98185714D01*
X135457142Y-98233333D01*
X126032142Y-104751666D02*
X126079761Y-104799285D01*
X126127380Y-104942142D01*
X126127380Y-105037380D01*
X126079761Y-105180238D01*
X125984523Y-105275476D01*
X125889285Y-105323095D01*
X125698809Y-105370714D01*
X125555952Y-105370714D01*
X125365476Y-105323095D01*
X125270238Y-105275476D01*
X125175000Y-105180238D01*
X125127380Y-105037380D01*
X125127380Y-104942142D01*
X125175000Y-104799285D01*
X125222619Y-104751666D01*
X126127380Y-103799285D02*
X126127380Y-104370714D01*
X126127380Y-104085000D02*
X125127380Y-104085000D01*
X125270238Y-104180238D01*
X125365476Y-104275476D01*
X125413095Y-104370714D01*
X128758333Y-113252380D02*
X128425000Y-112776190D01*
X128186904Y-113252380D02*
X128186904Y-112252380D01*
X128567857Y-112252380D01*
X128663095Y-112300000D01*
X128710714Y-112347619D01*
X128758333Y-112442857D01*
X128758333Y-112585714D01*
X128710714Y-112680952D01*
X128663095Y-112728571D01*
X128567857Y-112776190D01*
X128186904Y-112776190D01*
X129663095Y-112252380D02*
X129186904Y-112252380D01*
X129139285Y-112728571D01*
X129186904Y-112680952D01*
X129282142Y-112633333D01*
X129520238Y-112633333D01*
X129615476Y-112680952D01*
X129663095Y-112728571D01*
X129710714Y-112823809D01*
X129710714Y-113061904D01*
X129663095Y-113157142D01*
X129615476Y-113204761D01*
X129520238Y-113252380D01*
X129282142Y-113252380D01*
X129186904Y-113204761D01*
X129139285Y-113157142D01*
X127048333Y-107649380D02*
X126715000Y-107173190D01*
X126476904Y-107649380D02*
X126476904Y-106649380D01*
X126857857Y-106649380D01*
X126953095Y-106697000D01*
X127000714Y-106744619D01*
X127048333Y-106839857D01*
X127048333Y-106982714D01*
X127000714Y-107077952D01*
X126953095Y-107125571D01*
X126857857Y-107173190D01*
X126476904Y-107173190D01*
X127905476Y-106982714D02*
X127905476Y-107649380D01*
X127667380Y-106601761D02*
X127429285Y-107316047D01*
X128048333Y-107316047D01*
X123038333Y-110517380D02*
X122705000Y-110041190D01*
X122466904Y-110517380D02*
X122466904Y-109517380D01*
X122847857Y-109517380D01*
X122943095Y-109565000D01*
X122990714Y-109612619D01*
X123038333Y-109707857D01*
X123038333Y-109850714D01*
X122990714Y-109945952D01*
X122943095Y-109993571D01*
X122847857Y-110041190D01*
X122466904Y-110041190D01*
X123419285Y-109612619D02*
X123466904Y-109565000D01*
X123562142Y-109517380D01*
X123800238Y-109517380D01*
X123895476Y-109565000D01*
X123943095Y-109612619D01*
X123990714Y-109707857D01*
X123990714Y-109803095D01*
X123943095Y-109945952D01*
X123371666Y-110517380D01*
X123990714Y-110517380D01*
D14*
X116069523Y-101102619D02*
X117097619Y-101102619D01*
X117218571Y-101042142D01*
X117279047Y-100981666D01*
X117339523Y-100860714D01*
X117339523Y-100618809D01*
X117279047Y-100497857D01*
X117218571Y-100437380D01*
X117097619Y-100376904D01*
X116069523Y-100376904D01*
X116190476Y-99832619D02*
X116130000Y-99772142D01*
X116069523Y-99651190D01*
X116069523Y-99348809D01*
X116130000Y-99227857D01*
X116190476Y-99167380D01*
X116311428Y-99106904D01*
X116432380Y-99106904D01*
X116613809Y-99167380D01*
X117339523Y-99893095D01*
X117339523Y-99106904D01*
D13*
X120216333Y-99332142D02*
X120168714Y-99379761D01*
X120025857Y-99427380D01*
X119930619Y-99427380D01*
X119787761Y-99379761D01*
X119692523Y-99284523D01*
X119644904Y-99189285D01*
X119597285Y-98998809D01*
X119597285Y-98855952D01*
X119644904Y-98665476D01*
X119692523Y-98570238D01*
X119787761Y-98475000D01*
X119930619Y-98427380D01*
X120025857Y-98427380D01*
X120168714Y-98475000D01*
X120216333Y-98522619D01*
X120597285Y-98522619D02*
X120644904Y-98475000D01*
X120740142Y-98427380D01*
X120978238Y-98427380D01*
X121073476Y-98475000D01*
X121121095Y-98522619D01*
X121168714Y-98617857D01*
X121168714Y-98713095D01*
X121121095Y-98855952D01*
X120549666Y-99427380D01*
X121168714Y-99427380D01*
X132738095Y-95352380D02*
X133309523Y-95352380D01*
X133023809Y-96352380D02*
X133023809Y-95352380D01*
X133642857Y-96352380D02*
X133642857Y-95352380D01*
X134023809Y-95352380D01*
X134119047Y-95400000D01*
X134166666Y-95447619D01*
X134214285Y-95542857D01*
X134214285Y-95685714D01*
X134166666Y-95780952D01*
X134119047Y-95828571D01*
X134023809Y-95876190D01*
X133642857Y-95876190D01*
X135166666Y-96352380D02*
X134595238Y-96352380D01*
X134880952Y-96352380D02*
X134880952Y-95352380D01*
X134785714Y-95495238D01*
X134690476Y-95590476D01*
X134595238Y-95638095D01*
D14*
X129359523Y-102464761D02*
X128089523Y-102464761D01*
X129238571Y-101134285D02*
X129299047Y-101194761D01*
X129359523Y-101376190D01*
X129359523Y-101497142D01*
X129299047Y-101678571D01*
X129178095Y-101799523D01*
X129057142Y-101860000D01*
X128815238Y-101920476D01*
X128633809Y-101920476D01*
X128391904Y-101860000D01*
X128270952Y-101799523D01*
X128150000Y-101678571D01*
X128089523Y-101497142D01*
X128089523Y-101376190D01*
X128150000Y-101194761D01*
X128210476Y-101134285D01*
X129359523Y-99924761D02*
X129359523Y-100650476D01*
X129359523Y-100287619D02*
X128089523Y-100287619D01*
X128270952Y-100408571D01*
X128391904Y-100529523D01*
X128452380Y-100650476D01*
X134109523Y-111352380D02*
X132839523Y-111352380D01*
X132839523Y-111050000D01*
X132900000Y-110868571D01*
X133020952Y-110747619D01*
X133141904Y-110687142D01*
X133383809Y-110626666D01*
X133565238Y-110626666D01*
X133807142Y-110687142D01*
X133928095Y-110747619D01*
X134049047Y-110868571D01*
X134109523Y-111050000D01*
X134109523Y-111352380D01*
X132960476Y-110142857D02*
X132900000Y-110082380D01*
X132839523Y-109961428D01*
X132839523Y-109659047D01*
X132900000Y-109538095D01*
X132960476Y-109477619D01*
X133081428Y-109417142D01*
X133202380Y-109417142D01*
X133383809Y-109477619D01*
X134109523Y-110203333D01*
X134109523Y-109417142D01*
X126811619Y-94181523D02*
X126811619Y-92911523D01*
X127114000Y-92911523D01*
X127295428Y-92972000D01*
X127416380Y-93092952D01*
X127476857Y-93213904D01*
X127537333Y-93455809D01*
X127537333Y-93637238D01*
X127476857Y-93879142D01*
X127416380Y-94000095D01*
X127295428Y-94121047D01*
X127114000Y-94181523D01*
X126811619Y-94181523D01*
X128746857Y-94181523D02*
X128021142Y-94181523D01*
X128384000Y-94181523D02*
X128384000Y-92911523D01*
X128263047Y-93092952D01*
X128142095Y-93213904D01*
X128021142Y-93274380D01*
D13*
X153027380Y-103158333D02*
X153741666Y-103158333D01*
X153884523Y-103205952D01*
X153979761Y-103301190D01*
X154027380Y-103444047D01*
X154027380Y-103539285D01*
X154027380Y-102158333D02*
X154027380Y-102729761D01*
X154027380Y-102444047D02*
X153027380Y-102444047D01*
X153170238Y-102539285D01*
X153265476Y-102634523D01*
X153313095Y-102729761D01*
X118288333Y-97572142D02*
X118240714Y-97619761D01*
X118097857Y-97667380D01*
X118002619Y-97667380D01*
X117859761Y-97619761D01*
X117764523Y-97524523D01*
X117716904Y-97429285D01*
X117669285Y-97238809D01*
X117669285Y-97095952D01*
X117716904Y-96905476D01*
X117764523Y-96810238D01*
X117859761Y-96715000D01*
X118002619Y-96667380D01*
X118097857Y-96667380D01*
X118240714Y-96715000D01*
X118288333Y-96762619D01*
X119145476Y-97000714D02*
X119145476Y-97667380D01*
X118907380Y-96619761D02*
X118669285Y-97334047D01*
X119288333Y-97334047D01*
X114999785Y-107433071D02*
X115142642Y-107480690D01*
X115190261Y-107528309D01*
X115237880Y-107623547D01*
X115237880Y-107766404D01*
X115190261Y-107861642D01*
X115142642Y-107909261D01*
X115047404Y-107956880D01*
X114666452Y-107956880D01*
X114666452Y-106956880D01*
X114999785Y-106956880D01*
X115095023Y-107004500D01*
X115142642Y-107052119D01*
X115190261Y-107147357D01*
X115190261Y-107242595D01*
X115142642Y-107337833D01*
X115095023Y-107385452D01*
X114999785Y-107433071D01*
X114666452Y-107433071D01*
X115523595Y-106956880D02*
X116095023Y-106956880D01*
X115809309Y-107956880D02*
X115809309Y-106956880D01*
X116952166Y-107956880D02*
X116380738Y-107956880D01*
X116666452Y-107956880D02*
X116666452Y-106956880D01*
X116571214Y-107099738D01*
X116475976Y-107194976D01*
X116380738Y-107242595D01*
M02*
