G04 #@! TF.GenerationSoftware,KiCad,Pcbnew,(5.1.5)-3*
G04 #@! TF.CreationDate,2020-05-01T11:50:26+02:00*
G04 #@! TF.ProjectId,AGB_LIPO,4147425f-4c49-4504-9f2e-6b696361645f,rev?*
G04 #@! TF.SameCoordinates,Original*
G04 #@! TF.FileFunction,Soldermask,Top*
G04 #@! TF.FilePolarity,Negative*
%FSLAX46Y46*%
G04 Gerber Fmt 4.6, Leading zero omitted, Abs format (unit mm)*
G04 Created by KiCad (PCBNEW (5.1.5)-3) date 2020-05-01 11:50:26*
%MOMM*%
%LPD*%
G04 APERTURE LIST*
%ADD10C,0.100000*%
G04 APERTURE END LIST*
D10*
G36*
X125928500Y-41250000D02*
G01*
X119678500Y-41250000D01*
X119678500Y-36000000D01*
X125928500Y-36000000D01*
X125928500Y-41250000D01*
G37*
X125928500Y-41250000D02*
X119678500Y-41250000D01*
X119678500Y-36000000D01*
X125928500Y-36000000D01*
X125928500Y-41250000D01*
G36*
X125992000Y-25750000D02*
G01*
X119742000Y-25750000D01*
X119742000Y-20500000D01*
X125992000Y-20500000D01*
X125992000Y-25750000D01*
G37*
X125992000Y-25750000D02*
X119742000Y-25750000D01*
X119742000Y-20500000D01*
X125992000Y-20500000D01*
X125992000Y-25750000D01*
G36*
X95601221Y-40745174D02*
G01*
X95701495Y-40786709D01*
X95701496Y-40786710D01*
X95791742Y-40847010D01*
X95868490Y-40923758D01*
X95868491Y-40923760D01*
X95928791Y-41014005D01*
X95970326Y-41114279D01*
X95991500Y-41220730D01*
X95991500Y-41329270D01*
X95970326Y-41435721D01*
X95928791Y-41535995D01*
X95928790Y-41535996D01*
X95868490Y-41626242D01*
X95791742Y-41702990D01*
X95746312Y-41733345D01*
X95701495Y-41763291D01*
X95601221Y-41804826D01*
X95494770Y-41826000D01*
X95386230Y-41826000D01*
X95279779Y-41804826D01*
X95179505Y-41763291D01*
X95134688Y-41733345D01*
X95089258Y-41702990D01*
X95012510Y-41626242D01*
X94952210Y-41535996D01*
X94952209Y-41535995D01*
X94910674Y-41435721D01*
X94889500Y-41329270D01*
X94889500Y-41220730D01*
X94910674Y-41114279D01*
X94952209Y-41014005D01*
X95012509Y-40923760D01*
X95012510Y-40923758D01*
X95089258Y-40847010D01*
X95179504Y-40786710D01*
X95179505Y-40786709D01*
X95279779Y-40745174D01*
X95386230Y-40724000D01*
X95494770Y-40724000D01*
X95601221Y-40745174D01*
G37*
G36*
X78574012Y-38953427D02*
G01*
X78723312Y-38983124D01*
X78887284Y-39051044D01*
X79034854Y-39149647D01*
X79160353Y-39275146D01*
X79258956Y-39422716D01*
X79326876Y-39586688D01*
X79361500Y-39760759D01*
X79361500Y-39938241D01*
X79326876Y-40112312D01*
X79258956Y-40276284D01*
X79160353Y-40423854D01*
X79034854Y-40549353D01*
X78887284Y-40647956D01*
X78723312Y-40715876D01*
X78576017Y-40745174D01*
X78549242Y-40750500D01*
X78371758Y-40750500D01*
X78344983Y-40745174D01*
X78197688Y-40715876D01*
X78033716Y-40647956D01*
X77886146Y-40549353D01*
X77760647Y-40423854D01*
X77662044Y-40276284D01*
X77594124Y-40112312D01*
X77559500Y-39938241D01*
X77559500Y-39760759D01*
X77594124Y-39586688D01*
X77662044Y-39422716D01*
X77760647Y-39275146D01*
X77886146Y-39149647D01*
X78033716Y-39051044D01*
X78197688Y-38983124D01*
X78346988Y-38953427D01*
X78371758Y-38948500D01*
X78549242Y-38948500D01*
X78574012Y-38953427D01*
G37*
G36*
X79361500Y-38210500D02*
G01*
X77559500Y-38210500D01*
X77559500Y-36408500D01*
X79361500Y-36408500D01*
X79361500Y-38210500D01*
G37*
G36*
X92177500Y-37694500D02*
G01*
X90575500Y-37694500D01*
X90575500Y-36092500D01*
X92177500Y-36092500D01*
X92177500Y-37694500D01*
G37*
G36*
X83990142Y-36123281D02*
G01*
X84135914Y-36183662D01*
X84135916Y-36183663D01*
X84267108Y-36271322D01*
X84378678Y-36382892D01*
X84466337Y-36514084D01*
X84466338Y-36514086D01*
X84526719Y-36659858D01*
X84557500Y-36814607D01*
X84557500Y-36972393D01*
X84526719Y-37127142D01*
X84466338Y-37272914D01*
X84466337Y-37272916D01*
X84378678Y-37404108D01*
X84267108Y-37515678D01*
X84135916Y-37603337D01*
X84135915Y-37603338D01*
X84135914Y-37603338D01*
X83990142Y-37663719D01*
X83835393Y-37694500D01*
X83677607Y-37694500D01*
X83522858Y-37663719D01*
X83377086Y-37603338D01*
X83377085Y-37603338D01*
X83377084Y-37603337D01*
X83245892Y-37515678D01*
X83134322Y-37404108D01*
X83046663Y-37272916D01*
X83046662Y-37272914D01*
X82986281Y-37127142D01*
X82955500Y-36972393D01*
X82955500Y-36814607D01*
X82986281Y-36659858D01*
X83046662Y-36514086D01*
X83046663Y-36514084D01*
X83134322Y-36382892D01*
X83245892Y-36271322D01*
X83377084Y-36183663D01*
X83377086Y-36183662D01*
X83522858Y-36123281D01*
X83677607Y-36092500D01*
X83835393Y-36092500D01*
X83990142Y-36123281D01*
G37*
G36*
X93862000Y-36897500D02*
G01*
X92860000Y-36897500D01*
X92860000Y-35995500D01*
X93862000Y-35995500D01*
X93862000Y-36897500D01*
G37*
G36*
X95862000Y-35947500D02*
G01*
X94860000Y-35947500D01*
X94860000Y-35045500D01*
X95862000Y-35045500D01*
X95862000Y-35947500D01*
G37*
G36*
X91595559Y-34012360D02*
G01*
X91732232Y-34068972D01*
X91855235Y-34151160D01*
X91959840Y-34255765D01*
X92042028Y-34378768D01*
X92098640Y-34515441D01*
X92127500Y-34660533D01*
X92127500Y-34808467D01*
X92098640Y-34953559D01*
X92042028Y-35090232D01*
X91959840Y-35213235D01*
X91855235Y-35317840D01*
X91732232Y-35400028D01*
X91732231Y-35400029D01*
X91732230Y-35400029D01*
X91595559Y-35456640D01*
X91450468Y-35485500D01*
X91302532Y-35485500D01*
X91157441Y-35456640D01*
X91020770Y-35400029D01*
X91020769Y-35400029D01*
X91020768Y-35400028D01*
X90897765Y-35317840D01*
X90793160Y-35213235D01*
X90710972Y-35090232D01*
X90654360Y-34953559D01*
X90625500Y-34808467D01*
X90625500Y-34660533D01*
X90654360Y-34515441D01*
X90710972Y-34378768D01*
X90793160Y-34255765D01*
X90897765Y-34151160D01*
X91020768Y-34068972D01*
X91157441Y-34012360D01*
X91302532Y-33983500D01*
X91450468Y-33983500D01*
X91595559Y-34012360D01*
G37*
G36*
X83975559Y-34012360D02*
G01*
X84112232Y-34068972D01*
X84235235Y-34151160D01*
X84339840Y-34255765D01*
X84422028Y-34378768D01*
X84478640Y-34515441D01*
X84507500Y-34660533D01*
X84507500Y-34808467D01*
X84478640Y-34953559D01*
X84422028Y-35090232D01*
X84339840Y-35213235D01*
X84235235Y-35317840D01*
X84112232Y-35400028D01*
X84112231Y-35400029D01*
X84112230Y-35400029D01*
X83975559Y-35456640D01*
X83830468Y-35485500D01*
X83682532Y-35485500D01*
X83537441Y-35456640D01*
X83400770Y-35400029D01*
X83400769Y-35400029D01*
X83400768Y-35400028D01*
X83277765Y-35317840D01*
X83173160Y-35213235D01*
X83090972Y-35090232D01*
X83034360Y-34953559D01*
X83005500Y-34808467D01*
X83005500Y-34660533D01*
X83034360Y-34515441D01*
X83090972Y-34378768D01*
X83173160Y-34255765D01*
X83277765Y-34151160D01*
X83400768Y-34068972D01*
X83537441Y-34012360D01*
X83682532Y-33983500D01*
X83830468Y-33983500D01*
X83975559Y-34012360D01*
G37*
G36*
X93862000Y-34997500D02*
G01*
X92860000Y-34997500D01*
X92860000Y-34095500D01*
X93862000Y-34095500D01*
X93862000Y-34997500D01*
G37*
G36*
X78675591Y-32942585D02*
G01*
X78709569Y-32952893D01*
X78740890Y-32969634D01*
X78768339Y-32992161D01*
X78790866Y-33019610D01*
X78807607Y-33050931D01*
X78817915Y-33084909D01*
X78822000Y-33126390D01*
X78822000Y-33802610D01*
X78817915Y-33844091D01*
X78807607Y-33878069D01*
X78790866Y-33909390D01*
X78768339Y-33936839D01*
X78740890Y-33959366D01*
X78709569Y-33976107D01*
X78675591Y-33986415D01*
X78634110Y-33990500D01*
X78032890Y-33990500D01*
X77991409Y-33986415D01*
X77957431Y-33976107D01*
X77926110Y-33959366D01*
X77898661Y-33936839D01*
X77876134Y-33909390D01*
X77859393Y-33878069D01*
X77849085Y-33844091D01*
X77845000Y-33802610D01*
X77845000Y-33126390D01*
X77849085Y-33084909D01*
X77859393Y-33050931D01*
X77876134Y-33019610D01*
X77898661Y-32992161D01*
X77926110Y-32969634D01*
X77957431Y-32952893D01*
X77991409Y-32942585D01*
X78032890Y-32938500D01*
X78634110Y-32938500D01*
X78675591Y-32942585D01*
G37*
G36*
X80250591Y-32942585D02*
G01*
X80284569Y-32952893D01*
X80315890Y-32969634D01*
X80343339Y-32992161D01*
X80365866Y-33019610D01*
X80382607Y-33050931D01*
X80392915Y-33084909D01*
X80397000Y-33126390D01*
X80397000Y-33802610D01*
X80392915Y-33844091D01*
X80382607Y-33878069D01*
X80365866Y-33909390D01*
X80343339Y-33936839D01*
X80315890Y-33959366D01*
X80284569Y-33976107D01*
X80250591Y-33986415D01*
X80209110Y-33990500D01*
X79607890Y-33990500D01*
X79566409Y-33986415D01*
X79532431Y-33976107D01*
X79501110Y-33959366D01*
X79473661Y-33936839D01*
X79451134Y-33909390D01*
X79434393Y-33878069D01*
X79424085Y-33844091D01*
X79420000Y-33802610D01*
X79420000Y-33126390D01*
X79424085Y-33084909D01*
X79434393Y-33050931D01*
X79451134Y-33019610D01*
X79473661Y-32992161D01*
X79501110Y-32969634D01*
X79532431Y-32952893D01*
X79566409Y-32942585D01*
X79607890Y-32938500D01*
X80209110Y-32938500D01*
X80250591Y-32942585D01*
G37*
G36*
X117419059Y-30877860D02*
G01*
X117555732Y-30934472D01*
X117678735Y-31016660D01*
X117783340Y-31121265D01*
X117865528Y-31244268D01*
X117922140Y-31380941D01*
X117951000Y-31526033D01*
X117951000Y-31673967D01*
X117922140Y-31819059D01*
X117865528Y-31955732D01*
X117783340Y-32078735D01*
X117678735Y-32183340D01*
X117555732Y-32265528D01*
X117555731Y-32265529D01*
X117555730Y-32265529D01*
X117419059Y-32322140D01*
X117273968Y-32351000D01*
X117126032Y-32351000D01*
X116980941Y-32322140D01*
X116844270Y-32265529D01*
X116844269Y-32265529D01*
X116844268Y-32265528D01*
X116721265Y-32183340D01*
X116616660Y-32078735D01*
X116534472Y-31955732D01*
X116477860Y-31819059D01*
X116449000Y-31673967D01*
X116449000Y-31526033D01*
X116477860Y-31380941D01*
X116534472Y-31244268D01*
X116616660Y-31121265D01*
X116721265Y-31016660D01*
X116844268Y-30934472D01*
X116980941Y-30877860D01*
X117126032Y-30849000D01*
X117273968Y-30849000D01*
X117419059Y-30877860D01*
G37*
G36*
X79146000Y-31987000D02*
G01*
X77544000Y-31987000D01*
X77544000Y-29685000D01*
X79146000Y-29685000D01*
X79146000Y-31987000D01*
G37*
G36*
X81446000Y-31987000D02*
G01*
X79844000Y-31987000D01*
X79844000Y-29685000D01*
X81446000Y-29685000D01*
X81446000Y-31987000D01*
G37*
G36*
X83746000Y-31987000D02*
G01*
X82144000Y-31987000D01*
X82144000Y-29685000D01*
X83746000Y-29685000D01*
X83746000Y-31987000D01*
G37*
G36*
X117419059Y-28337860D02*
G01*
X117555732Y-28394472D01*
X117678735Y-28476660D01*
X117783340Y-28581265D01*
X117865528Y-28704268D01*
X117922140Y-28840941D01*
X117951000Y-28986033D01*
X117951000Y-29133967D01*
X117922140Y-29279059D01*
X117865528Y-29415732D01*
X117783340Y-29538735D01*
X117678735Y-29643340D01*
X117555732Y-29725528D01*
X117555731Y-29725529D01*
X117555730Y-29725529D01*
X117419059Y-29782140D01*
X117273968Y-29811000D01*
X117126032Y-29811000D01*
X116980941Y-29782140D01*
X116844270Y-29725529D01*
X116844269Y-29725529D01*
X116844268Y-29725528D01*
X116721265Y-29643340D01*
X116616660Y-29538735D01*
X116534472Y-29415732D01*
X116477860Y-29279059D01*
X116449000Y-29133967D01*
X116449000Y-28986033D01*
X116477860Y-28840941D01*
X116534472Y-28704268D01*
X116616660Y-28581265D01*
X116721265Y-28476660D01*
X116844268Y-28394472D01*
X116980941Y-28337860D01*
X117126032Y-28309000D01*
X117273968Y-28309000D01*
X117419059Y-28337860D01*
G37*
G36*
X99671000Y-27651000D02*
G01*
X96769000Y-27651000D01*
X96769000Y-24749000D01*
X99671000Y-24749000D01*
X99671000Y-27651000D01*
G37*
G36*
X114171000Y-27651000D02*
G01*
X111269000Y-27651000D01*
X111269000Y-24749000D01*
X114171000Y-24749000D01*
X114171000Y-27651000D01*
G37*
G36*
X110771000Y-27651000D02*
G01*
X107869000Y-27651000D01*
X107869000Y-24749000D01*
X110771000Y-24749000D01*
X110771000Y-27651000D01*
G37*
G36*
X103171000Y-27651000D02*
G01*
X100269000Y-27651000D01*
X100269000Y-24749000D01*
X103171000Y-24749000D01*
X103171000Y-27651000D01*
G37*
G36*
X90525311Y-23543271D02*
G01*
X90561103Y-23554129D01*
X90594095Y-23571763D01*
X90623008Y-23595492D01*
X90646737Y-23624405D01*
X90664371Y-23657397D01*
X90675229Y-23693189D01*
X90679500Y-23736555D01*
X90679500Y-25793445D01*
X90675229Y-25836811D01*
X90664371Y-25872603D01*
X90646737Y-25905595D01*
X90623008Y-25934508D01*
X90594095Y-25958237D01*
X90561103Y-25975871D01*
X90525311Y-25986729D01*
X90481945Y-25991000D01*
X89450055Y-25991000D01*
X89406689Y-25986729D01*
X89370897Y-25975871D01*
X89337905Y-25958237D01*
X89308992Y-25934508D01*
X89285263Y-25905595D01*
X89267629Y-25872603D01*
X89256771Y-25836811D01*
X89252500Y-25793445D01*
X89252500Y-23736555D01*
X89256771Y-23693189D01*
X89267629Y-23657397D01*
X89285263Y-23624405D01*
X89308992Y-23595492D01*
X89337905Y-23571763D01*
X89370897Y-23554129D01*
X89406689Y-23543271D01*
X89450055Y-23539000D01*
X90481945Y-23539000D01*
X90525311Y-23543271D01*
G37*
G36*
X93600311Y-23543271D02*
G01*
X93636103Y-23554129D01*
X93669095Y-23571763D01*
X93698008Y-23595492D01*
X93721737Y-23624405D01*
X93739371Y-23657397D01*
X93750229Y-23693189D01*
X93754500Y-23736555D01*
X93754500Y-25793445D01*
X93750229Y-25836811D01*
X93739371Y-25872603D01*
X93721737Y-25905595D01*
X93698008Y-25934508D01*
X93669095Y-25958237D01*
X93636103Y-25975871D01*
X93600311Y-25986729D01*
X93556945Y-25991000D01*
X92525055Y-25991000D01*
X92481689Y-25986729D01*
X92445897Y-25975871D01*
X92412905Y-25958237D01*
X92383992Y-25934508D01*
X92360263Y-25905595D01*
X92342629Y-25872603D01*
X92331771Y-25836811D01*
X92327500Y-25793445D01*
X92327500Y-23736555D01*
X92331771Y-23693189D01*
X92342629Y-23657397D01*
X92360263Y-23624405D01*
X92383992Y-23595492D01*
X92412905Y-23571763D01*
X92445897Y-23554129D01*
X92481689Y-23543271D01*
X92525055Y-23539000D01*
X93556945Y-23539000D01*
X93600311Y-23543271D01*
G37*
G36*
X82596000Y-25687000D02*
G01*
X78694000Y-25687000D01*
X78694000Y-23385000D01*
X82596000Y-23385000D01*
X82596000Y-25687000D01*
G37*
G36*
X80987091Y-21893585D02*
G01*
X81021069Y-21903893D01*
X81052390Y-21920634D01*
X81079839Y-21943161D01*
X81102366Y-21970610D01*
X81119107Y-22001931D01*
X81129415Y-22035909D01*
X81133500Y-22077390D01*
X81133500Y-22753610D01*
X81129415Y-22795091D01*
X81119107Y-22829069D01*
X81102366Y-22860390D01*
X81079839Y-22887839D01*
X81052390Y-22910366D01*
X81021069Y-22927107D01*
X80987091Y-22937415D01*
X80945610Y-22941500D01*
X80344390Y-22941500D01*
X80302909Y-22937415D01*
X80268931Y-22927107D01*
X80237610Y-22910366D01*
X80210161Y-22887839D01*
X80187634Y-22860390D01*
X80170893Y-22829069D01*
X80160585Y-22795091D01*
X80156500Y-22753610D01*
X80156500Y-22077390D01*
X80160585Y-22035909D01*
X80170893Y-22001931D01*
X80187634Y-21970610D01*
X80210161Y-21943161D01*
X80237610Y-21920634D01*
X80268931Y-21903893D01*
X80302909Y-21893585D01*
X80344390Y-21889500D01*
X80945610Y-21889500D01*
X80987091Y-21893585D01*
G37*
G36*
X79412091Y-21893585D02*
G01*
X79446069Y-21903893D01*
X79477390Y-21920634D01*
X79504839Y-21943161D01*
X79527366Y-21970610D01*
X79544107Y-22001931D01*
X79554415Y-22035909D01*
X79558500Y-22077390D01*
X79558500Y-22753610D01*
X79554415Y-22795091D01*
X79544107Y-22829069D01*
X79527366Y-22860390D01*
X79504839Y-22887839D01*
X79477390Y-22910366D01*
X79446069Y-22927107D01*
X79412091Y-22937415D01*
X79370610Y-22941500D01*
X78769390Y-22941500D01*
X78727909Y-22937415D01*
X78693931Y-22927107D01*
X78662610Y-22910366D01*
X78635161Y-22887839D01*
X78612634Y-22860390D01*
X78595893Y-22829069D01*
X78585585Y-22795091D01*
X78581500Y-22753610D01*
X78581500Y-22077390D01*
X78585585Y-22035909D01*
X78595893Y-22001931D01*
X78612634Y-21970610D01*
X78635161Y-21943161D01*
X78662610Y-21920634D01*
X78693931Y-21903893D01*
X78727909Y-21893585D01*
X78769390Y-21889500D01*
X79370610Y-21889500D01*
X79412091Y-21893585D01*
G37*
G36*
X91786059Y-20423360D02*
G01*
X91922732Y-20479972D01*
X92045735Y-20562160D01*
X92150340Y-20666765D01*
X92232528Y-20789768D01*
X92289140Y-20926441D01*
X92318000Y-21071533D01*
X92318000Y-21219467D01*
X92289140Y-21364559D01*
X92232528Y-21501232D01*
X92150340Y-21624235D01*
X92045735Y-21728840D01*
X91922732Y-21811028D01*
X91922731Y-21811029D01*
X91922730Y-21811029D01*
X91786059Y-21867640D01*
X91640968Y-21896500D01*
X91493032Y-21896500D01*
X91347941Y-21867640D01*
X91211270Y-21811029D01*
X91211269Y-21811029D01*
X91211268Y-21811028D01*
X91088265Y-21728840D01*
X90983660Y-21624235D01*
X90901472Y-21501232D01*
X90844860Y-21364559D01*
X90816000Y-21219467D01*
X90816000Y-21071533D01*
X90844860Y-20926441D01*
X90901472Y-20789768D01*
X90983660Y-20666765D01*
X91088265Y-20562160D01*
X91211268Y-20479972D01*
X91347941Y-20423360D01*
X91493032Y-20394500D01*
X91640968Y-20394500D01*
X91786059Y-20423360D01*
G37*
G36*
X84166059Y-20423360D02*
G01*
X84302732Y-20479972D01*
X84425735Y-20562160D01*
X84530340Y-20666765D01*
X84612528Y-20789768D01*
X84669140Y-20926441D01*
X84698000Y-21071533D01*
X84698000Y-21219467D01*
X84669140Y-21364559D01*
X84612528Y-21501232D01*
X84530340Y-21624235D01*
X84425735Y-21728840D01*
X84302732Y-21811028D01*
X84302731Y-21811029D01*
X84302730Y-21811029D01*
X84166059Y-21867640D01*
X84020968Y-21896500D01*
X83873032Y-21896500D01*
X83727941Y-21867640D01*
X83591270Y-21811029D01*
X83591269Y-21811029D01*
X83591268Y-21811028D01*
X83468265Y-21728840D01*
X83363660Y-21624235D01*
X83281472Y-21501232D01*
X83224860Y-21364559D01*
X83196000Y-21219467D01*
X83196000Y-21071533D01*
X83224860Y-20926441D01*
X83281472Y-20789768D01*
X83363660Y-20666765D01*
X83468265Y-20562160D01*
X83591268Y-20479972D01*
X83727941Y-20423360D01*
X83873032Y-20394500D01*
X84020968Y-20394500D01*
X84166059Y-20423360D01*
G37*
M02*
