G04 #@! TF.GenerationSoftware,KiCad,Pcbnew,(5.1.5)-3*
G04 #@! TF.CreationDate,2020-04-29T21:15:24+02:00*
G04 #@! TF.ProjectId,AGB_LIPO,4147425f-4c49-4504-9f2e-6b696361645f,rev?*
G04 #@! TF.SameCoordinates,Original*
G04 #@! TF.FileFunction,Soldermask,Top*
G04 #@! TF.FilePolarity,Negative*
%FSLAX46Y46*%
G04 Gerber Fmt 4.6, Leading zero omitted, Abs format (unit mm)*
G04 Created by KiCad (PCBNEW (5.1.5)-3) date 2020-04-29 21:15:24*
%MOMM*%
%LPD*%
G04 APERTURE LIST*
%ADD10C,0.100000*%
G04 APERTURE END LIST*
D10*
G36*
X125928500Y-41250000D02*
G01*
X119678500Y-41250000D01*
X119678500Y-36000000D01*
X125928500Y-36000000D01*
X125928500Y-41250000D01*
G37*
X125928500Y-41250000D02*
X119678500Y-41250000D01*
X119678500Y-36000000D01*
X125928500Y-36000000D01*
X125928500Y-41250000D01*
G36*
X125992000Y-25750000D02*
G01*
X119742000Y-25750000D01*
X119742000Y-20500000D01*
X125992000Y-20500000D01*
X125992000Y-25750000D01*
G37*
X125992000Y-25750000D02*
X119742000Y-25750000D01*
X119742000Y-20500000D01*
X125992000Y-20500000D01*
X125992000Y-25750000D01*
G36*
X95601221Y-40745174D02*
G01*
X95701495Y-40786709D01*
X95701496Y-40786710D01*
X95791742Y-40847010D01*
X95868490Y-40923758D01*
X95868491Y-40923760D01*
X95928791Y-41014005D01*
X95970326Y-41114279D01*
X95991500Y-41220730D01*
X95991500Y-41329270D01*
X95970326Y-41435721D01*
X95928791Y-41535995D01*
X95928790Y-41535996D01*
X95868490Y-41626242D01*
X95791742Y-41702990D01*
X95746312Y-41733345D01*
X95701495Y-41763291D01*
X95601221Y-41804826D01*
X95494770Y-41826000D01*
X95386230Y-41826000D01*
X95279779Y-41804826D01*
X95179505Y-41763291D01*
X95134688Y-41733345D01*
X95089258Y-41702990D01*
X95012510Y-41626242D01*
X94952210Y-41535996D01*
X94952209Y-41535995D01*
X94910674Y-41435721D01*
X94889500Y-41329270D01*
X94889500Y-41220730D01*
X94910674Y-41114279D01*
X94952209Y-41014005D01*
X95012509Y-40923760D01*
X95012510Y-40923758D01*
X95089258Y-40847010D01*
X95179504Y-40786710D01*
X95179505Y-40786709D01*
X95279779Y-40745174D01*
X95386230Y-40724000D01*
X95494770Y-40724000D01*
X95601221Y-40745174D01*
G37*
G36*
X78574012Y-38953427D02*
G01*
X78723312Y-38983124D01*
X78887284Y-39051044D01*
X79034854Y-39149647D01*
X79160353Y-39275146D01*
X79258956Y-39422716D01*
X79326876Y-39586688D01*
X79361500Y-39760759D01*
X79361500Y-39938241D01*
X79326876Y-40112312D01*
X79258956Y-40276284D01*
X79160353Y-40423854D01*
X79034854Y-40549353D01*
X78887284Y-40647956D01*
X78723312Y-40715876D01*
X78576017Y-40745174D01*
X78549242Y-40750500D01*
X78371758Y-40750500D01*
X78344983Y-40745174D01*
X78197688Y-40715876D01*
X78033716Y-40647956D01*
X77886146Y-40549353D01*
X77760647Y-40423854D01*
X77662044Y-40276284D01*
X77594124Y-40112312D01*
X77559500Y-39938241D01*
X77559500Y-39760759D01*
X77594124Y-39586688D01*
X77662044Y-39422716D01*
X77760647Y-39275146D01*
X77886146Y-39149647D01*
X78033716Y-39051044D01*
X78197688Y-38983124D01*
X78346988Y-38953427D01*
X78371758Y-38948500D01*
X78549242Y-38948500D01*
X78574012Y-38953427D01*
G37*
G36*
X116841298Y-37941247D02*
G01*
X116876867Y-37952037D01*
X116909639Y-37969554D01*
X116938369Y-37993131D01*
X116961946Y-38021861D01*
X116979463Y-38054633D01*
X116990253Y-38090202D01*
X116994500Y-38133325D01*
X116994500Y-39242675D01*
X116990253Y-39285798D01*
X116979463Y-39321367D01*
X116961946Y-39354139D01*
X116938369Y-39382869D01*
X116909639Y-39406446D01*
X116876867Y-39423963D01*
X116841298Y-39434753D01*
X116798175Y-39439000D01*
X115738825Y-39439000D01*
X115695702Y-39434753D01*
X115660133Y-39423963D01*
X115627361Y-39406446D01*
X115598631Y-39382869D01*
X115575054Y-39354139D01*
X115557537Y-39321367D01*
X115546747Y-39285798D01*
X115542500Y-39242675D01*
X115542500Y-38133325D01*
X115546747Y-38090202D01*
X115557537Y-38054633D01*
X115575054Y-38021861D01*
X115598631Y-37993131D01*
X115627361Y-37969554D01*
X115660133Y-37952037D01*
X115695702Y-37941247D01*
X115738825Y-37937000D01*
X116798175Y-37937000D01*
X116841298Y-37941247D01*
G37*
G36*
X79361500Y-38210500D02*
G01*
X77559500Y-38210500D01*
X77559500Y-36408500D01*
X79361500Y-36408500D01*
X79361500Y-38210500D01*
G37*
G36*
X91595559Y-35917360D02*
G01*
X91732232Y-35973972D01*
X91855235Y-36056160D01*
X91959840Y-36160765D01*
X91959841Y-36160767D01*
X92042029Y-36283770D01*
X92098640Y-36420441D01*
X92122954Y-36542675D01*
X92127500Y-36565533D01*
X92127500Y-36713467D01*
X92098640Y-36858559D01*
X92042028Y-36995232D01*
X91959840Y-37118235D01*
X91855235Y-37222840D01*
X91732232Y-37305028D01*
X91732231Y-37305029D01*
X91732230Y-37305029D01*
X91595559Y-37361640D01*
X91450468Y-37390500D01*
X91302532Y-37390500D01*
X91157441Y-37361640D01*
X91020770Y-37305029D01*
X91020769Y-37305029D01*
X91020768Y-37305028D01*
X90897765Y-37222840D01*
X90793160Y-37118235D01*
X90710972Y-36995232D01*
X90654360Y-36858559D01*
X90625500Y-36713467D01*
X90625500Y-36565533D01*
X90630047Y-36542675D01*
X90654360Y-36420441D01*
X90710971Y-36283770D01*
X90793159Y-36160767D01*
X90793160Y-36160765D01*
X90897765Y-36056160D01*
X91020768Y-35973972D01*
X91157441Y-35917360D01*
X91302532Y-35888500D01*
X91450468Y-35888500D01*
X91595559Y-35917360D01*
G37*
G36*
X83975559Y-35917360D02*
G01*
X84112232Y-35973972D01*
X84235235Y-36056160D01*
X84339840Y-36160765D01*
X84339841Y-36160767D01*
X84422029Y-36283770D01*
X84478640Y-36420441D01*
X84502954Y-36542675D01*
X84507500Y-36565533D01*
X84507500Y-36713467D01*
X84478640Y-36858559D01*
X84422028Y-36995232D01*
X84339840Y-37118235D01*
X84235235Y-37222840D01*
X84112232Y-37305028D01*
X84112231Y-37305029D01*
X84112230Y-37305029D01*
X83975559Y-37361640D01*
X83830468Y-37390500D01*
X83682532Y-37390500D01*
X83537441Y-37361640D01*
X83400770Y-37305029D01*
X83400769Y-37305029D01*
X83400768Y-37305028D01*
X83277765Y-37222840D01*
X83173160Y-37118235D01*
X83090972Y-36995232D01*
X83034360Y-36858559D01*
X83005500Y-36713467D01*
X83005500Y-36565533D01*
X83010047Y-36542675D01*
X83034360Y-36420441D01*
X83090971Y-36283770D01*
X83173159Y-36160767D01*
X83173160Y-36160765D01*
X83277765Y-36056160D01*
X83400768Y-35973972D01*
X83537441Y-35917360D01*
X83682532Y-35888500D01*
X83830468Y-35888500D01*
X83975559Y-35917360D01*
G37*
G36*
X116841298Y-35241247D02*
G01*
X116876867Y-35252037D01*
X116909639Y-35269554D01*
X116938369Y-35293131D01*
X116961946Y-35321861D01*
X116979463Y-35354633D01*
X116990253Y-35390202D01*
X116994500Y-35433325D01*
X116994500Y-36542675D01*
X116990253Y-36585798D01*
X116979463Y-36621367D01*
X116961946Y-36654139D01*
X116938369Y-36682869D01*
X116909639Y-36706446D01*
X116876867Y-36723963D01*
X116841298Y-36734753D01*
X116798175Y-36739000D01*
X115738825Y-36739000D01*
X115695702Y-36734753D01*
X115660133Y-36723963D01*
X115627361Y-36706446D01*
X115598631Y-36682869D01*
X115575054Y-36654139D01*
X115557537Y-36621367D01*
X115546747Y-36585798D01*
X115542500Y-36542675D01*
X115542500Y-35433325D01*
X115546747Y-35390202D01*
X115557537Y-35354633D01*
X115575054Y-35321861D01*
X115598631Y-35293131D01*
X115627361Y-35269554D01*
X115660133Y-35252037D01*
X115695702Y-35241247D01*
X115738825Y-35237000D01*
X116798175Y-35237000D01*
X116841298Y-35241247D01*
G37*
G36*
X93798500Y-36362500D02*
G01*
X92896500Y-36362500D01*
X92896500Y-35360500D01*
X93798500Y-35360500D01*
X93798500Y-36362500D01*
G37*
G36*
X95698500Y-36362500D02*
G01*
X94796500Y-36362500D01*
X94796500Y-35360500D01*
X95698500Y-35360500D01*
X95698500Y-36362500D01*
G37*
G36*
X86907000Y-35091000D02*
G01*
X85305000Y-35091000D01*
X85305000Y-33489000D01*
X86907000Y-33489000D01*
X86907000Y-35091000D01*
G37*
G36*
X78719642Y-33519781D02*
G01*
X78865414Y-33580162D01*
X78865416Y-33580163D01*
X78996608Y-33667822D01*
X79108178Y-33779392D01*
X79195837Y-33910584D01*
X79195838Y-33910586D01*
X79256219Y-34056358D01*
X79287000Y-34211107D01*
X79287000Y-34368893D01*
X79256219Y-34523642D01*
X79195838Y-34669414D01*
X79195837Y-34669416D01*
X79108178Y-34800608D01*
X78996608Y-34912178D01*
X78865416Y-34999837D01*
X78865415Y-34999838D01*
X78865414Y-34999838D01*
X78719642Y-35060219D01*
X78564893Y-35091000D01*
X78407107Y-35091000D01*
X78252358Y-35060219D01*
X78106586Y-34999838D01*
X78106585Y-34999838D01*
X78106584Y-34999837D01*
X77975392Y-34912178D01*
X77863822Y-34800608D01*
X77776163Y-34669416D01*
X77776162Y-34669414D01*
X77715781Y-34523642D01*
X77685000Y-34368893D01*
X77685000Y-34211107D01*
X77715781Y-34056358D01*
X77776162Y-33910586D01*
X77776163Y-33910584D01*
X77863822Y-33779392D01*
X77975392Y-33667822D01*
X78106584Y-33580163D01*
X78106586Y-33580162D01*
X78252358Y-33519781D01*
X78407107Y-33489000D01*
X78564893Y-33489000D01*
X78719642Y-33519781D01*
G37*
G36*
X94748500Y-34362500D02*
G01*
X93846500Y-34362500D01*
X93846500Y-33360500D01*
X94748500Y-33360500D01*
X94748500Y-34362500D01*
G37*
G36*
X84261000Y-32951000D02*
G01*
X82659000Y-32951000D01*
X82659000Y-30849000D01*
X84261000Y-30849000D01*
X84261000Y-32951000D01*
G37*
G36*
X79661000Y-32951000D02*
G01*
X78059000Y-32951000D01*
X78059000Y-30849000D01*
X79661000Y-30849000D01*
X79661000Y-32951000D01*
G37*
G36*
X81961000Y-32951000D02*
G01*
X80359000Y-32951000D01*
X80359000Y-30849000D01*
X81961000Y-30849000D01*
X81961000Y-32951000D01*
G37*
G36*
X117419059Y-30877860D02*
G01*
X117555732Y-30934472D01*
X117678735Y-31016660D01*
X117783340Y-31121265D01*
X117865528Y-31244268D01*
X117922140Y-31380941D01*
X117951000Y-31526033D01*
X117951000Y-31673967D01*
X117922140Y-31819059D01*
X117865528Y-31955732D01*
X117783340Y-32078735D01*
X117678735Y-32183340D01*
X117555732Y-32265528D01*
X117555731Y-32265529D01*
X117555730Y-32265529D01*
X117419059Y-32322140D01*
X117273968Y-32351000D01*
X117126032Y-32351000D01*
X116980941Y-32322140D01*
X116844270Y-32265529D01*
X116844269Y-32265529D01*
X116844268Y-32265528D01*
X116721265Y-32183340D01*
X116616660Y-32078735D01*
X116534472Y-31955732D01*
X116477860Y-31819059D01*
X116449000Y-31673967D01*
X116449000Y-31526033D01*
X116477860Y-31380941D01*
X116534472Y-31244268D01*
X116616660Y-31121265D01*
X116721265Y-31016660D01*
X116844268Y-30934472D01*
X116980941Y-30877860D01*
X117126032Y-30849000D01*
X117273968Y-30849000D01*
X117419059Y-30877860D01*
G37*
G36*
X117419059Y-28337860D02*
G01*
X117555732Y-28394472D01*
X117678735Y-28476660D01*
X117783340Y-28581265D01*
X117865528Y-28704268D01*
X117922140Y-28840941D01*
X117951000Y-28986033D01*
X117951000Y-29133967D01*
X117922140Y-29279059D01*
X117865528Y-29415732D01*
X117783340Y-29538735D01*
X117678735Y-29643340D01*
X117555732Y-29725528D01*
X117555731Y-29725529D01*
X117555730Y-29725529D01*
X117419059Y-29782140D01*
X117273968Y-29811000D01*
X117126032Y-29811000D01*
X116980941Y-29782140D01*
X116844270Y-29725529D01*
X116844269Y-29725529D01*
X116844268Y-29725528D01*
X116721265Y-29643340D01*
X116616660Y-29538735D01*
X116534472Y-29415732D01*
X116477860Y-29279059D01*
X116449000Y-29133967D01*
X116449000Y-28986033D01*
X116477860Y-28840941D01*
X116534472Y-28704268D01*
X116616660Y-28581265D01*
X116721265Y-28476660D01*
X116844268Y-28394472D01*
X116980941Y-28337860D01*
X117126032Y-28309000D01*
X117273968Y-28309000D01*
X117419059Y-28337860D01*
G37*
G36*
X93705298Y-26710247D02*
G01*
X93740867Y-26721037D01*
X93773639Y-26738554D01*
X93802369Y-26762131D01*
X93825946Y-26790861D01*
X93843463Y-26823633D01*
X93854253Y-26859202D01*
X93858500Y-26902325D01*
X93858500Y-27961675D01*
X93854253Y-28004798D01*
X93843463Y-28040367D01*
X93825946Y-28073139D01*
X93802369Y-28101869D01*
X93773639Y-28125446D01*
X93740867Y-28142963D01*
X93705298Y-28153753D01*
X93662175Y-28158000D01*
X92552825Y-28158000D01*
X92509702Y-28153753D01*
X92474133Y-28142963D01*
X92441361Y-28125446D01*
X92412631Y-28101869D01*
X92389054Y-28073139D01*
X92371537Y-28040367D01*
X92360747Y-28004798D01*
X92356500Y-27961675D01*
X92356500Y-26902325D01*
X92360747Y-26859202D01*
X92371537Y-26823633D01*
X92389054Y-26790861D01*
X92412631Y-26762131D01*
X92441361Y-26738554D01*
X92474133Y-26721037D01*
X92509702Y-26710247D01*
X92552825Y-26706000D01*
X93662175Y-26706000D01*
X93705298Y-26710247D01*
G37*
G36*
X91005298Y-26710247D02*
G01*
X91040867Y-26721037D01*
X91073639Y-26738554D01*
X91102369Y-26762131D01*
X91125946Y-26790861D01*
X91143463Y-26823633D01*
X91154253Y-26859202D01*
X91158500Y-26902325D01*
X91158500Y-27961675D01*
X91154253Y-28004798D01*
X91143463Y-28040367D01*
X91125946Y-28073139D01*
X91102369Y-28101869D01*
X91073639Y-28125446D01*
X91040867Y-28142963D01*
X91005298Y-28153753D01*
X90962175Y-28158000D01*
X89852825Y-28158000D01*
X89809702Y-28153753D01*
X89774133Y-28142963D01*
X89741361Y-28125446D01*
X89712631Y-28101869D01*
X89689054Y-28073139D01*
X89671537Y-28040367D01*
X89660747Y-28004798D01*
X89656500Y-27961675D01*
X89656500Y-26902325D01*
X89660747Y-26859202D01*
X89671537Y-26823633D01*
X89689054Y-26790861D01*
X89712631Y-26762131D01*
X89741361Y-26738554D01*
X89774133Y-26721037D01*
X89809702Y-26710247D01*
X89852825Y-26706000D01*
X90962175Y-26706000D01*
X91005298Y-26710247D01*
G37*
G36*
X99671000Y-27651000D02*
G01*
X96769000Y-27651000D01*
X96769000Y-24749000D01*
X99671000Y-24749000D01*
X99671000Y-27651000D01*
G37*
G36*
X114171000Y-27651000D02*
G01*
X111269000Y-27651000D01*
X111269000Y-24749000D01*
X114171000Y-24749000D01*
X114171000Y-27651000D01*
G37*
G36*
X103171000Y-27651000D02*
G01*
X100269000Y-27651000D01*
X100269000Y-24749000D01*
X103171000Y-24749000D01*
X103171000Y-27651000D01*
G37*
G36*
X110771000Y-27651000D02*
G01*
X107869000Y-27651000D01*
X107869000Y-24749000D01*
X110771000Y-24749000D01*
X110771000Y-27651000D01*
G37*
G36*
X83111000Y-26651000D02*
G01*
X79209000Y-26651000D01*
X79209000Y-24549000D01*
X83111000Y-24549000D01*
X83111000Y-26651000D01*
G37*
G36*
X88928559Y-22518860D02*
G01*
X89065232Y-22575472D01*
X89188235Y-22657660D01*
X89292840Y-22762265D01*
X89375028Y-22885268D01*
X89431640Y-23021941D01*
X89460500Y-23167033D01*
X89460500Y-23314967D01*
X89431640Y-23460059D01*
X89375028Y-23596732D01*
X89292840Y-23719735D01*
X89188235Y-23824340D01*
X89065232Y-23906528D01*
X89065231Y-23906529D01*
X89065230Y-23906529D01*
X88928559Y-23963140D01*
X88783468Y-23992000D01*
X88635532Y-23992000D01*
X88490441Y-23963140D01*
X88353770Y-23906529D01*
X88353769Y-23906529D01*
X88353768Y-23906528D01*
X88230765Y-23824340D01*
X88126160Y-23719735D01*
X88043972Y-23596732D01*
X87987360Y-23460059D01*
X87958500Y-23314967D01*
X87958500Y-23167033D01*
X87987360Y-23021941D01*
X88043972Y-22885268D01*
X88126160Y-22762265D01*
X88230765Y-22657660D01*
X88353768Y-22575472D01*
X88490441Y-22518860D01*
X88635532Y-22490000D01*
X88783468Y-22490000D01*
X88928559Y-22518860D01*
G37*
G36*
X81308559Y-22518860D02*
G01*
X81445232Y-22575472D01*
X81568235Y-22657660D01*
X81672840Y-22762265D01*
X81755028Y-22885268D01*
X81811640Y-23021941D01*
X81840500Y-23167033D01*
X81840500Y-23314967D01*
X81811640Y-23460059D01*
X81755028Y-23596732D01*
X81672840Y-23719735D01*
X81568235Y-23824340D01*
X81445232Y-23906528D01*
X81445231Y-23906529D01*
X81445230Y-23906529D01*
X81308559Y-23963140D01*
X81163468Y-23992000D01*
X81015532Y-23992000D01*
X80870441Y-23963140D01*
X80733770Y-23906529D01*
X80733769Y-23906529D01*
X80733768Y-23906528D01*
X80610765Y-23824340D01*
X80506160Y-23719735D01*
X80423972Y-23596732D01*
X80367360Y-23460059D01*
X80338500Y-23314967D01*
X80338500Y-23167033D01*
X80367360Y-23021941D01*
X80423972Y-22885268D01*
X80506160Y-22762265D01*
X80610765Y-22657660D01*
X80733768Y-22575472D01*
X80870441Y-22518860D01*
X81015532Y-22490000D01*
X81163468Y-22490000D01*
X81308559Y-22518860D01*
G37*
M02*
