G04 #@! TF.GenerationSoftware,KiCad,Pcbnew,(5.1.5)-3*
G04 #@! TF.CreationDate,2020-04-29T21:15:24+02:00*
G04 #@! TF.ProjectId,AGB_LIPO,4147425f-4c49-4504-9f2e-6b696361645f,rev?*
G04 #@! TF.SameCoordinates,Original*
G04 #@! TF.FileFunction,Legend,Top*
G04 #@! TF.FilePolarity,Positive*
%FSLAX46Y46*%
G04 Gerber Fmt 4.6, Leading zero omitted, Abs format (unit mm)*
G04 Created by KiCad (PCBNEW (5.1.5)-3) date 2020-04-29 21:15:24*
%MOMM*%
%LPD*%
G04 APERTURE LIST*
%ADD10C,0.150000*%
%ADD11C,0.300000*%
%ADD12C,0.120000*%
G04 APERTURE END LIST*
D10*
X87336333Y-37091880D02*
X87003000Y-36615690D01*
X86764904Y-37091880D02*
X86764904Y-36091880D01*
X87145857Y-36091880D01*
X87241095Y-36139500D01*
X87288714Y-36187119D01*
X87336333Y-36282357D01*
X87336333Y-36425214D01*
X87288714Y-36520452D01*
X87241095Y-36568071D01*
X87145857Y-36615690D01*
X86764904Y-36615690D01*
X87717285Y-36187119D02*
X87764904Y-36139500D01*
X87860142Y-36091880D01*
X88098238Y-36091880D01*
X88193476Y-36139500D01*
X88241095Y-36187119D01*
X88288714Y-36282357D01*
X88288714Y-36377595D01*
X88241095Y-36520452D01*
X87669666Y-37091880D01*
X88288714Y-37091880D01*
X94138761Y-35536119D02*
X94043523Y-35488500D01*
X93948285Y-35393261D01*
X93805428Y-35250404D01*
X93710190Y-35202785D01*
X93614952Y-35202785D01*
X93662571Y-35440880D02*
X93567333Y-35393261D01*
X93472095Y-35298023D01*
X93424476Y-35107547D01*
X93424476Y-34774214D01*
X93472095Y-34583738D01*
X93567333Y-34488500D01*
X93662571Y-34440880D01*
X93853047Y-34440880D01*
X93948285Y-34488500D01*
X94043523Y-34583738D01*
X94091142Y-34774214D01*
X94091142Y-35107547D01*
X94043523Y-35298023D01*
X93948285Y-35393261D01*
X93853047Y-35440880D01*
X93662571Y-35440880D01*
X95043523Y-35440880D02*
X94472095Y-35440880D01*
X94757809Y-35440880D02*
X94757809Y-34440880D01*
X94662571Y-34583738D01*
X94567333Y-34678976D01*
X94472095Y-34726595D01*
X84796333Y-23693380D02*
X84463000Y-23217190D01*
X84224904Y-23693380D02*
X84224904Y-22693380D01*
X84605857Y-22693380D01*
X84701095Y-22741000D01*
X84748714Y-22788619D01*
X84796333Y-22883857D01*
X84796333Y-23026714D01*
X84748714Y-23121952D01*
X84701095Y-23169571D01*
X84605857Y-23217190D01*
X84224904Y-23217190D01*
X85748714Y-23693380D02*
X85177285Y-23693380D01*
X85463000Y-23693380D02*
X85463000Y-22693380D01*
X85367761Y-22836238D01*
X85272523Y-22931476D01*
X85177285Y-22979095D01*
X81240404Y-34742380D02*
X81240404Y-33742380D01*
X81478500Y-33742380D01*
X81621357Y-33790000D01*
X81716595Y-33885238D01*
X81764214Y-33980476D01*
X81811833Y-34170952D01*
X81811833Y-34313809D01*
X81764214Y-34504285D01*
X81716595Y-34599523D01*
X81621357Y-34694761D01*
X81478500Y-34742380D01*
X81240404Y-34742380D01*
X82764214Y-34742380D02*
X82192785Y-34742380D01*
X82478500Y-34742380D02*
X82478500Y-33742380D01*
X82383261Y-33885238D01*
X82288023Y-33980476D01*
X82192785Y-34028095D01*
D11*
X119204761Y-33857142D02*
X119490476Y-33952380D01*
X119585714Y-34047619D01*
X119680952Y-34238095D01*
X119680952Y-34523809D01*
X119585714Y-34714285D01*
X119490476Y-34809523D01*
X119300000Y-34904761D01*
X118538095Y-34904761D01*
X118538095Y-32904761D01*
X119204761Y-32904761D01*
X119395238Y-33000000D01*
X119490476Y-33095238D01*
X119585714Y-33285714D01*
X119585714Y-33476190D01*
X119490476Y-33666666D01*
X119395238Y-33761904D01*
X119204761Y-33857142D01*
X118538095Y-33857142D01*
X120538095Y-34142857D02*
X122061904Y-34142857D01*
X119204761Y-27157142D02*
X119490476Y-27252380D01*
X119585714Y-27347619D01*
X119680952Y-27538095D01*
X119680952Y-27823809D01*
X119585714Y-28014285D01*
X119490476Y-28109523D01*
X119300000Y-28204761D01*
X118538095Y-28204761D01*
X118538095Y-26204761D01*
X119204761Y-26204761D01*
X119395238Y-26300000D01*
X119490476Y-26395238D01*
X119585714Y-26585714D01*
X119585714Y-26776190D01*
X119490476Y-26966666D01*
X119395238Y-27061904D01*
X119204761Y-27157142D01*
X118538095Y-27157142D01*
X120538095Y-27442857D02*
X122061904Y-27442857D01*
X121300000Y-28204761D02*
X121300000Y-26680952D01*
X80137095Y-37100857D02*
X81660904Y-37100857D01*
X80899000Y-37862761D02*
X80899000Y-36338952D01*
X80137095Y-40400857D02*
X81660904Y-40400857D01*
D12*
X94067500Y-26497000D02*
X90157500Y-26497000D01*
X94067500Y-28367000D02*
X94067500Y-26497000D01*
X90157500Y-28367000D02*
X94067500Y-28367000D01*
X117203500Y-39648000D02*
X117203500Y-35738000D01*
X115333500Y-39648000D02*
X117203500Y-39648000D01*
X115333500Y-35738000D02*
X115333500Y-39648000D01*
X96140500Y-41275000D02*
G75*
G03X96140500Y-41275000I-700000J0D01*
G01*
X90436500Y-36639500D02*
X89486500Y-36639500D01*
X84696500Y-36639500D02*
X85646500Y-36639500D01*
X89486500Y-35719500D02*
X85646500Y-35719500D01*
X89486500Y-37559500D02*
X89486500Y-35719500D01*
X85646500Y-37559500D02*
X89486500Y-37559500D01*
X85646500Y-35719500D02*
X85646500Y-37559500D01*
X87769500Y-23241000D02*
X86819500Y-23241000D01*
X82029500Y-23241000D02*
X82979500Y-23241000D01*
X86819500Y-22321000D02*
X82979500Y-22321000D01*
X86819500Y-24161000D02*
X86819500Y-22321000D01*
X82979500Y-24161000D02*
X86819500Y-24161000D01*
X82979500Y-22321000D02*
X82979500Y-24161000D01*
D10*
X112220000Y-22400000D02*
X114320000Y-22400000D01*
X99020000Y-22400000D02*
X99020000Y-24700000D01*
X96520000Y-22400000D02*
X99020000Y-22400000D01*
X96520000Y-24500000D02*
X96520000Y-22400000D01*
X111920000Y-22400000D02*
X112220000Y-22400000D01*
X111920000Y-24500000D02*
X111920000Y-22400000D01*
X111920000Y-24700000D02*
X111920000Y-24400000D01*
X99020000Y-24700000D02*
X111920000Y-24700000D01*
D12*
X96520000Y-24500000D02*
X96520000Y-36830000D01*
X114300000Y-36830000D02*
X114320000Y-22400000D01*
X96520000Y-40640000D02*
X114300000Y-40640000D01*
X96520000Y-36830000D02*
X96520000Y-40640000D01*
X96520000Y-40640000D02*
X114300000Y-40640000D01*
X114300000Y-40640000D02*
X114300000Y-36830000D01*
X77750000Y-32850000D02*
X77750000Y-26840000D01*
X84570000Y-30600000D02*
X84570000Y-26840000D01*
X77750000Y-26840000D02*
X79010000Y-26840000D01*
X84570000Y-26840000D02*
X83310000Y-26840000D01*
X95877500Y-34101500D02*
X95877500Y-35561500D01*
X92717500Y-34101500D02*
X92717500Y-36261500D01*
X92717500Y-34101500D02*
X93647500Y-34101500D01*
X95877500Y-34101500D02*
X94947500Y-34101500D01*
X83480000Y-35210000D02*
X83480000Y-33370000D01*
X83240000Y-35210000D02*
X83240000Y-33370000D01*
X83360000Y-35210000D02*
X83360000Y-33370000D01*
X79476000Y-34290000D02*
X80656000Y-34290000D01*
X85116000Y-34290000D02*
X83936000Y-34290000D01*
X80656000Y-35210000D02*
X83936000Y-35210000D01*
X80656000Y-33370000D02*
X80656000Y-35210000D01*
X83936000Y-33370000D02*
X80656000Y-33370000D01*
X83936000Y-35210000D02*
X83936000Y-33370000D01*
D10*
X116800000Y-32630000D02*
X116300000Y-32130000D01*
X117600000Y-32630000D02*
X116800000Y-32630000D01*
X118100000Y-32130000D02*
X117600000Y-32630000D01*
X118100000Y-28530000D02*
X118100000Y-32130000D01*
X117600000Y-28030000D02*
X118100000Y-28530000D01*
X116800000Y-28030000D02*
X117600000Y-28030000D01*
X116300000Y-28530000D02*
X116800000Y-28030000D01*
X116300000Y-32130000D02*
X116300000Y-28530000D01*
D12*
X77130500Y-35979500D02*
X78460500Y-35979500D01*
X77130500Y-37309500D02*
X77130500Y-35979500D01*
X77130500Y-38579500D02*
X79790500Y-38579500D01*
X79790500Y-38579500D02*
X79790500Y-41179500D01*
X77130500Y-38579500D02*
X77130500Y-41179500D01*
X77130500Y-41179500D02*
X79790500Y-41179500D01*
D10*
X91590833Y-29539142D02*
X91543214Y-29586761D01*
X91400357Y-29634380D01*
X91305119Y-29634380D01*
X91162261Y-29586761D01*
X91067023Y-29491523D01*
X91019404Y-29396285D01*
X90971785Y-29205809D01*
X90971785Y-29062952D01*
X91019404Y-28872476D01*
X91067023Y-28777238D01*
X91162261Y-28682000D01*
X91305119Y-28634380D01*
X91400357Y-28634380D01*
X91543214Y-28682000D01*
X91590833Y-28729619D01*
X91971785Y-28729619D02*
X92019404Y-28682000D01*
X92114642Y-28634380D01*
X92352738Y-28634380D01*
X92447976Y-28682000D01*
X92495595Y-28729619D01*
X92543214Y-28824857D01*
X92543214Y-28920095D01*
X92495595Y-29062952D01*
X91924166Y-29634380D01*
X92543214Y-29634380D01*
X114875642Y-37504666D02*
X114923261Y-37552285D01*
X114970880Y-37695142D01*
X114970880Y-37790380D01*
X114923261Y-37933238D01*
X114828023Y-38028476D01*
X114732785Y-38076095D01*
X114542309Y-38123714D01*
X114399452Y-38123714D01*
X114208976Y-38076095D01*
X114113738Y-38028476D01*
X114018500Y-37933238D01*
X113970880Y-37790380D01*
X113970880Y-37695142D01*
X114018500Y-37552285D01*
X114066119Y-37504666D01*
X114970880Y-36552285D02*
X114970880Y-37123714D01*
X114970880Y-36838000D02*
X113970880Y-36838000D01*
X114113738Y-36933238D01*
X114208976Y-37028476D01*
X114256595Y-37123714D01*
X94178595Y-39279380D02*
X94750023Y-39279380D01*
X94464309Y-40279380D02*
X94464309Y-39279380D01*
X95083357Y-40279380D02*
X95083357Y-39279380D01*
X95464309Y-39279380D01*
X95559547Y-39327000D01*
X95607166Y-39374619D01*
X95654785Y-39469857D01*
X95654785Y-39612714D01*
X95607166Y-39707952D01*
X95559547Y-39755571D01*
X95464309Y-39803190D01*
X95083357Y-39803190D01*
X96607166Y-40279380D02*
X96035738Y-40279380D01*
X96321452Y-40279380D02*
X96321452Y-39279380D01*
X96226214Y-39422238D01*
X96130976Y-39517476D01*
X96035738Y-39565095D01*
X87336333Y-37091880D02*
X87003000Y-36615690D01*
X86764904Y-37091880D02*
X86764904Y-36091880D01*
X87145857Y-36091880D01*
X87241095Y-36139500D01*
X87288714Y-36187119D01*
X87336333Y-36282357D01*
X87336333Y-36425214D01*
X87288714Y-36520452D01*
X87241095Y-36568071D01*
X87145857Y-36615690D01*
X86764904Y-36615690D01*
X87717285Y-36187119D02*
X87764904Y-36139500D01*
X87860142Y-36091880D01*
X88098238Y-36091880D01*
X88193476Y-36139500D01*
X88241095Y-36187119D01*
X88288714Y-36282357D01*
X88288714Y-36377595D01*
X88241095Y-36520452D01*
X87669666Y-37091880D01*
X88288714Y-37091880D01*
X84775833Y-23691880D02*
X84442500Y-23215690D01*
X84204404Y-23691880D02*
X84204404Y-22691880D01*
X84585357Y-22691880D01*
X84680595Y-22739500D01*
X84728214Y-22787119D01*
X84775833Y-22882357D01*
X84775833Y-23025214D01*
X84728214Y-23120452D01*
X84680595Y-23168071D01*
X84585357Y-23215690D01*
X84204404Y-23215690D01*
X85728214Y-23691880D02*
X85156785Y-23691880D01*
X85442500Y-23691880D02*
X85442500Y-22691880D01*
X85347261Y-22834738D01*
X85252023Y-22929976D01*
X85156785Y-22977595D01*
X112172380Y-31352380D02*
X112172380Y-31161904D01*
X112220000Y-31066666D01*
X112315238Y-30971428D01*
X112505714Y-30923809D01*
X112839047Y-30923809D01*
X113029523Y-30971428D01*
X113124761Y-31066666D01*
X113172380Y-31161904D01*
X113172380Y-31352380D01*
X113124761Y-31447619D01*
X113029523Y-31542857D01*
X112839047Y-31590476D01*
X112505714Y-31590476D01*
X112315238Y-31542857D01*
X112220000Y-31447619D01*
X112172380Y-31352380D01*
X112505714Y-30066666D02*
X113172380Y-30066666D01*
X112505714Y-30495238D02*
X113029523Y-30495238D01*
X113124761Y-30447619D01*
X113172380Y-30352380D01*
X113172380Y-30209523D01*
X113124761Y-30114285D01*
X113077142Y-30066666D01*
X112505714Y-29733333D02*
X112505714Y-29352380D01*
X112172380Y-29590476D02*
X113029523Y-29590476D01*
X113124761Y-29542857D01*
X113172380Y-29447619D01*
X113172380Y-29352380D01*
X112791428Y-29019047D02*
X112791428Y-28257142D01*
X97572380Y-31352380D02*
X97572380Y-31161904D01*
X97620000Y-31066666D01*
X97715238Y-30971428D01*
X97905714Y-30923809D01*
X98239047Y-30923809D01*
X98429523Y-30971428D01*
X98524761Y-31066666D01*
X98572380Y-31161904D01*
X98572380Y-31352380D01*
X98524761Y-31447619D01*
X98429523Y-31542857D01*
X98239047Y-31590476D01*
X97905714Y-31590476D01*
X97715238Y-31542857D01*
X97620000Y-31447619D01*
X97572380Y-31352380D01*
X97905714Y-30066666D02*
X98572380Y-30066666D01*
X97905714Y-30495238D02*
X98429523Y-30495238D01*
X98524761Y-30447619D01*
X98572380Y-30352380D01*
X98572380Y-30209523D01*
X98524761Y-30114285D01*
X98477142Y-30066666D01*
X97905714Y-29733333D02*
X97905714Y-29352380D01*
X97572380Y-29590476D02*
X98429523Y-29590476D01*
X98524761Y-29542857D01*
X98572380Y-29447619D01*
X98572380Y-29352380D01*
X98191428Y-29019047D02*
X98191428Y-28257142D01*
X98572380Y-28638095D02*
X97810476Y-28638095D01*
X109148571Y-29647619D02*
X109196190Y-29504761D01*
X109243809Y-29457142D01*
X109339047Y-29409523D01*
X109481904Y-29409523D01*
X109577142Y-29457142D01*
X109624761Y-29504761D01*
X109672380Y-29600000D01*
X109672380Y-29980952D01*
X108672380Y-29980952D01*
X108672380Y-29647619D01*
X108720000Y-29552380D01*
X108767619Y-29504761D01*
X108862857Y-29457142D01*
X108958095Y-29457142D01*
X109053333Y-29504761D01*
X109100952Y-29552380D01*
X109148571Y-29647619D01*
X109148571Y-29980952D01*
X109291428Y-28980952D02*
X109291428Y-28219047D01*
X101548571Y-29647619D02*
X101596190Y-29504761D01*
X101643809Y-29457142D01*
X101739047Y-29409523D01*
X101881904Y-29409523D01*
X101977142Y-29457142D01*
X102024761Y-29504761D01*
X102072380Y-29600000D01*
X102072380Y-29980952D01*
X101072380Y-29980952D01*
X101072380Y-29647619D01*
X101120000Y-29552380D01*
X101167619Y-29504761D01*
X101262857Y-29457142D01*
X101358095Y-29457142D01*
X101453333Y-29504761D01*
X101500952Y-29552380D01*
X101548571Y-29647619D01*
X101548571Y-29980952D01*
X101691428Y-28980952D02*
X101691428Y-28219047D01*
X102072380Y-28600000D02*
X101310476Y-28600000D01*
X80391095Y-28202380D02*
X80391095Y-29011904D01*
X80438714Y-29107142D01*
X80486333Y-29154761D01*
X80581571Y-29202380D01*
X80772047Y-29202380D01*
X80867285Y-29154761D01*
X80914904Y-29107142D01*
X80962523Y-29011904D01*
X80962523Y-28202380D01*
X81391095Y-28297619D02*
X81438714Y-28250000D01*
X81533952Y-28202380D01*
X81772047Y-28202380D01*
X81867285Y-28250000D01*
X81914904Y-28297619D01*
X81962523Y-28392857D01*
X81962523Y-28488095D01*
X81914904Y-28630952D01*
X81343476Y-29202380D01*
X81962523Y-29202380D01*
M02*
