G04 #@! TF.GenerationSoftware,KiCad,Pcbnew,(5.1.5)-3*
G04 #@! TF.CreationDate,2020-04-25T18:25:03+02:00*
G04 #@! TF.ProjectId,AGB_LIPO,4147425f-4c49-4504-9f2e-6b696361645f,rev?*
G04 #@! TF.SameCoordinates,Original*
G04 #@! TF.FileFunction,Copper,L1,Top*
G04 #@! TF.FilePolarity,Positive*
%FSLAX46Y46*%
G04 Gerber Fmt 4.6, Leading zero omitted, Abs format (unit mm)*
G04 Created by KiCad (PCBNEW (5.1.5)-3) date 2020-04-25 18:25:03*
%MOMM*%
%LPD*%
G04 APERTURE LIST*
%ADD10C,0.100000*%
%ADD11R,2.800000X2.800000*%
%ADD12R,1.500000X2.000000*%
%ADD13R,3.800000X2.000000*%
%ADD14O,1.600000X1.600000*%
%ADD15C,1.600000*%
%ADD16C,1.000000*%
%ADD17R,0.800000X0.900000*%
%ADD18O,1.500000X1.500000*%
%ADD19R,1.500000X1.500000*%
%ADD20C,1.400000*%
%ADD21O,1.700000X1.700000*%
%ADD22R,1.700000X1.700000*%
%ADD23C,0.800000*%
%ADD24C,1.000000*%
G04 APERTURE END LIST*
D10*
G36*
X125928500Y-41250000D02*
G01*
X119678500Y-41250000D01*
X119678500Y-36000000D01*
X125928500Y-36000000D01*
X125928500Y-41250000D01*
G37*
X125928500Y-41250000D02*
X119678500Y-41250000D01*
X119678500Y-36000000D01*
X125928500Y-36000000D01*
X125928500Y-41250000D01*
G36*
X125992000Y-25750000D02*
G01*
X119742000Y-25750000D01*
X119742000Y-20500000D01*
X125992000Y-20500000D01*
X125992000Y-25750000D01*
G37*
X125992000Y-25750000D02*
X119742000Y-25750000D01*
X119742000Y-20500000D01*
X125992000Y-20500000D01*
X125992000Y-25750000D01*
D11*
X98220000Y-26200000D03*
X112720000Y-26200000D03*
X101720000Y-26200000D03*
X109320000Y-26200000D03*
D12*
X78860000Y-31900000D03*
X83460000Y-31900000D03*
X81160000Y-31900000D03*
D13*
X81160000Y-25600000D03*
D14*
X95080000Y-22290000D03*
D15*
X79840000Y-22290000D03*
D16*
X89580000Y-35730000D03*
D17*
X92420000Y-33760000D03*
X93370000Y-35760000D03*
X91470000Y-35760000D03*
D18*
X79720000Y-34330000D03*
D19*
X87340000Y-34330000D03*
D20*
X117200000Y-29060000D03*
X117200000Y-31600000D03*
D21*
X78460500Y-39849500D03*
D22*
X78460500Y-37309500D03*
D23*
X121642000Y-21100000D03*
X125392000Y-25100000D03*
X124142000Y-25100000D03*
X121642000Y-22450000D03*
X125392000Y-23750000D03*
X124142000Y-21100000D03*
X124142000Y-22450000D03*
X125392000Y-21100000D03*
X121642000Y-25100000D03*
X120392000Y-21100000D03*
X125392000Y-22450000D03*
X122892000Y-25100000D03*
X120392000Y-25100000D03*
X120392000Y-22450000D03*
X124142000Y-23750000D03*
X122892000Y-21100000D03*
X122892000Y-22450000D03*
X121578500Y-36600000D03*
X120328500Y-39250000D03*
X125328500Y-40600000D03*
X124078500Y-40600000D03*
X121578500Y-37950000D03*
X125328500Y-39250000D03*
X124078500Y-36600000D03*
X124078500Y-37950000D03*
X125328500Y-36600000D03*
X121578500Y-40600000D03*
X120328500Y-36600000D03*
X125328500Y-37950000D03*
X122828500Y-40600000D03*
X120328500Y-40600000D03*
X124078500Y-39250000D03*
X122828500Y-39250000D03*
X122828500Y-36600000D03*
X121578500Y-39250000D03*
X122828500Y-37950000D03*
X122892000Y-23750000D03*
X120392000Y-23750000D03*
X121642000Y-23750000D03*
X120328500Y-37950000D03*
X95785133Y-33655133D03*
X94720000Y-35760000D03*
X84050000Y-25790000D03*
D24*
X97150500Y-39849500D02*
X78460500Y-39849500D01*
X109150000Y-25600000D02*
X109150000Y-27850000D01*
X109150000Y-27850000D02*
X97150500Y-39849500D01*
X101650000Y-27850000D02*
X101650000Y-25600000D01*
X78460500Y-37309500D02*
X96421500Y-37309500D01*
X101650000Y-32081000D02*
X101650000Y-27850000D01*
X96421500Y-37309500D02*
X101650000Y-32081000D01*
X117200000Y-29060000D02*
X117200000Y-25550000D01*
X117200000Y-25550000D02*
X119250000Y-23500000D01*
X119250000Y-23500000D02*
X122500000Y-23500000D01*
X117200000Y-31600000D02*
X117200000Y-34700000D01*
X117200000Y-34700000D02*
X120250000Y-37750000D01*
X109470002Y-22290000D02*
X95080000Y-22290000D01*
X112720000Y-26200000D02*
X112720000Y-25539998D01*
X112720000Y-25539998D02*
X109470002Y-22290000D01*
X89879999Y-27490001D02*
X94280001Y-23089999D01*
X82739997Y-27490001D02*
X89879999Y-27490001D01*
X94280001Y-23089999D02*
X95080000Y-22290000D01*
X78850000Y-31379998D02*
X82739997Y-27490001D01*
X78850000Y-32090000D02*
X78850000Y-31379998D01*
X91470000Y-35760000D02*
X88980000Y-35760000D01*
X81170001Y-35950001D02*
X80469999Y-35249999D01*
X80469999Y-35249999D02*
X79720000Y-34500000D01*
X88789999Y-35950001D02*
X81170001Y-35950001D01*
X88980000Y-35760000D02*
X88789999Y-35950001D01*
X95680266Y-33760000D02*
X95785133Y-33655133D01*
X92420000Y-33760000D02*
X95680266Y-33760000D01*
X85860000Y-34500000D02*
X83450000Y-32090000D01*
X87340000Y-34500000D02*
X85860000Y-34500000D01*
X94770000Y-35760000D02*
X94800000Y-35730000D01*
X93370000Y-35760000D02*
X94720000Y-35760000D01*
X94720000Y-35760000D02*
X94770000Y-35760000D01*
X81150000Y-25790000D02*
X84050000Y-25790000D01*
M02*
