G04 #@! TF.GenerationSoftware,KiCad,Pcbnew,(5.1.5)-3*
G04 #@! TF.CreationDate,2020-06-17T17:40:25+02:00*
G04 #@! TF.ProjectId,AGB_LIPO,4147425f-4c49-4504-9f2e-6b696361645f,rev?*
G04 #@! TF.SameCoordinates,Original*
G04 #@! TF.FileFunction,Legend,Bot*
G04 #@! TF.FilePolarity,Positive*
%FSLAX46Y46*%
G04 Gerber Fmt 4.6, Leading zero omitted, Abs format (unit mm)*
G04 Created by KiCad (PCBNEW (5.1.5)-3) date 2020-06-17 17:40:25*
%MOMM*%
%LPD*%
G04 APERTURE LIST*
%ADD10C,0.125000*%
%ADD11C,0.150000*%
G04 APERTURE END LIST*
D10*
X127298809Y-91001785D02*
X127227380Y-91025595D01*
X127203571Y-91049404D01*
X127179761Y-91097023D01*
X127179761Y-91168452D01*
X127203571Y-91216071D01*
X127227380Y-91239880D01*
X127275000Y-91263690D01*
X127465476Y-91263690D01*
X127465476Y-90763690D01*
X127298809Y-90763690D01*
X127251190Y-90787500D01*
X127227380Y-90811309D01*
X127203571Y-90858928D01*
X127203571Y-90906547D01*
X127227380Y-90954166D01*
X127251190Y-90977976D01*
X127298809Y-91001785D01*
X127465476Y-91001785D01*
X126751190Y-91263690D02*
X126751190Y-91001785D01*
X126775000Y-90954166D01*
X126822619Y-90930357D01*
X126917857Y-90930357D01*
X126965476Y-90954166D01*
X126751190Y-91239880D02*
X126798809Y-91263690D01*
X126917857Y-91263690D01*
X126965476Y-91239880D01*
X126989285Y-91192261D01*
X126989285Y-91144642D01*
X126965476Y-91097023D01*
X126917857Y-91073214D01*
X126798809Y-91073214D01*
X126751190Y-91049404D01*
X126536904Y-91239880D02*
X126489285Y-91263690D01*
X126394047Y-91263690D01*
X126346428Y-91239880D01*
X126322619Y-91192261D01*
X126322619Y-91168452D01*
X126346428Y-91120833D01*
X126394047Y-91097023D01*
X126465476Y-91097023D01*
X126513095Y-91073214D01*
X126536904Y-91025595D01*
X126536904Y-91001785D01*
X126513095Y-90954166D01*
X126465476Y-90930357D01*
X126394047Y-90930357D01*
X126346428Y-90954166D01*
X125917857Y-91239880D02*
X125965476Y-91263690D01*
X126060714Y-91263690D01*
X126108333Y-91239880D01*
X126132142Y-91192261D01*
X126132142Y-91001785D01*
X126108333Y-90954166D01*
X126060714Y-90930357D01*
X125965476Y-90930357D01*
X125917857Y-90954166D01*
X125894047Y-91001785D01*
X125894047Y-91049404D01*
X126132142Y-91097023D01*
X125465476Y-91263690D02*
X125465476Y-90763690D01*
X125465476Y-91239880D02*
X125513095Y-91263690D01*
X125608333Y-91263690D01*
X125655952Y-91239880D01*
X125679761Y-91216071D01*
X125703571Y-91168452D01*
X125703571Y-91025595D01*
X125679761Y-90977976D01*
X125655952Y-90954166D01*
X125608333Y-90930357D01*
X125513095Y-90930357D01*
X125465476Y-90954166D01*
X124775000Y-91263690D02*
X124822619Y-91239880D01*
X124846428Y-91216071D01*
X124870238Y-91168452D01*
X124870238Y-91025595D01*
X124846428Y-90977976D01*
X124822619Y-90954166D01*
X124775000Y-90930357D01*
X124703571Y-90930357D01*
X124655952Y-90954166D01*
X124632142Y-90977976D01*
X124608333Y-91025595D01*
X124608333Y-91168452D01*
X124632142Y-91216071D01*
X124655952Y-91239880D01*
X124703571Y-91263690D01*
X124775000Y-91263690D01*
X124394047Y-90930357D02*
X124394047Y-91263690D01*
X124394047Y-90977976D02*
X124370238Y-90954166D01*
X124322619Y-90930357D01*
X124251190Y-90930357D01*
X124203571Y-90954166D01*
X124179761Y-91001785D01*
X124179761Y-91263690D01*
X123560714Y-91263690D02*
X123560714Y-90763690D01*
X123394047Y-91120833D01*
X123227380Y-90763690D01*
X123227380Y-91263690D01*
X122775000Y-91263690D02*
X122775000Y-91001785D01*
X122798809Y-90954166D01*
X122846428Y-90930357D01*
X122941666Y-90930357D01*
X122989285Y-90954166D01*
X122775000Y-91239880D02*
X122822619Y-91263690D01*
X122941666Y-91263690D01*
X122989285Y-91239880D01*
X123013095Y-91192261D01*
X123013095Y-91144642D01*
X122989285Y-91097023D01*
X122941666Y-91073214D01*
X122822619Y-91073214D01*
X122775000Y-91049404D01*
X122536904Y-91263690D02*
X122536904Y-90763690D01*
X122489285Y-91073214D02*
X122346428Y-91263690D01*
X122346428Y-90930357D02*
X122536904Y-91120833D01*
X122132142Y-91263690D02*
X122132142Y-90763690D01*
X121917857Y-91263690D02*
X121917857Y-91001785D01*
X121941666Y-90954166D01*
X121989285Y-90930357D01*
X122060714Y-90930357D01*
X122108333Y-90954166D01*
X122132142Y-90977976D01*
X121608333Y-91263690D02*
X121655952Y-91239880D01*
X121679761Y-91216071D01*
X121703571Y-91168452D01*
X121703571Y-91025595D01*
X121679761Y-90977976D01*
X121655952Y-90954166D01*
X121608333Y-90930357D01*
X121536904Y-90930357D01*
X121489285Y-90954166D01*
X121465476Y-90977976D01*
X121441666Y-91025595D01*
X121441666Y-91168452D01*
X121465476Y-91216071D01*
X121489285Y-91239880D01*
X121536904Y-91263690D01*
X121608333Y-91263690D01*
X121203571Y-90763690D02*
X121251190Y-90858928D01*
X121013095Y-91239880D02*
X120965476Y-91263690D01*
X120870238Y-91263690D01*
X120822619Y-91239880D01*
X120798809Y-91192261D01*
X120798809Y-91168452D01*
X120822619Y-91120833D01*
X120870238Y-91097023D01*
X120941666Y-91097023D01*
X120989285Y-91073214D01*
X121013095Y-91025595D01*
X121013095Y-91001785D01*
X120989285Y-90954166D01*
X120941666Y-90930357D01*
X120870238Y-90930357D01*
X120822619Y-90954166D01*
X120203571Y-91263690D02*
X120203571Y-90763690D01*
X120203571Y-90954166D02*
X120155952Y-90930357D01*
X120060714Y-90930357D01*
X120013095Y-90954166D01*
X119989285Y-90977976D01*
X119965476Y-91025595D01*
X119965476Y-91168452D01*
X119989285Y-91216071D01*
X120013095Y-91239880D01*
X120060714Y-91263690D01*
X120155952Y-91263690D01*
X120203571Y-91239880D01*
X119679761Y-91263690D02*
X119727380Y-91239880D01*
X119751190Y-91216071D01*
X119775000Y-91168452D01*
X119775000Y-91025595D01*
X119751190Y-90977976D01*
X119727380Y-90954166D01*
X119679761Y-90930357D01*
X119608333Y-90930357D01*
X119560714Y-90954166D01*
X119536904Y-90977976D01*
X119513095Y-91025595D01*
X119513095Y-91168452D01*
X119536904Y-91216071D01*
X119560714Y-91239880D01*
X119608333Y-91263690D01*
X119679761Y-91263690D01*
X119084523Y-91263690D02*
X119084523Y-91001785D01*
X119108333Y-90954166D01*
X119155952Y-90930357D01*
X119251190Y-90930357D01*
X119298809Y-90954166D01*
X119084523Y-91239880D02*
X119132142Y-91263690D01*
X119251190Y-91263690D01*
X119298809Y-91239880D01*
X119322619Y-91192261D01*
X119322619Y-91144642D01*
X119298809Y-91097023D01*
X119251190Y-91073214D01*
X119132142Y-91073214D01*
X119084523Y-91049404D01*
X118846428Y-91263690D02*
X118846428Y-90930357D01*
X118846428Y-91025595D02*
X118822619Y-90977976D01*
X118798809Y-90954166D01*
X118751190Y-90930357D01*
X118703571Y-90930357D01*
X118322619Y-91263690D02*
X118322619Y-90763690D01*
X118322619Y-91239880D02*
X118370238Y-91263690D01*
X118465476Y-91263690D01*
X118513095Y-91239880D01*
X118536904Y-91216071D01*
X118560714Y-91168452D01*
X118560714Y-91025595D01*
X118536904Y-90977976D01*
X118513095Y-90954166D01*
X118465476Y-90930357D01*
X118370238Y-90930357D01*
X118322619Y-90954166D01*
X118084523Y-91216071D02*
X118060714Y-91239880D01*
X118084523Y-91263690D01*
X118108333Y-91239880D01*
X118084523Y-91216071D01*
X118084523Y-91263690D01*
X131477380Y-92138690D02*
X131477380Y-91638690D01*
X131263095Y-92138690D02*
X131263095Y-91876785D01*
X131286904Y-91829166D01*
X131334523Y-91805357D01*
X131405952Y-91805357D01*
X131453571Y-91829166D01*
X131477380Y-91852976D01*
X131096428Y-91805357D02*
X130905952Y-91805357D01*
X131025000Y-91638690D02*
X131025000Y-92067261D01*
X131001190Y-92114880D01*
X130953571Y-92138690D01*
X130905952Y-92138690D01*
X130810714Y-91805357D02*
X130620238Y-91805357D01*
X130739285Y-91638690D02*
X130739285Y-92067261D01*
X130715476Y-92114880D01*
X130667857Y-92138690D01*
X130620238Y-92138690D01*
X130453571Y-91805357D02*
X130453571Y-92305357D01*
X130453571Y-91829166D02*
X130405952Y-91805357D01*
X130310714Y-91805357D01*
X130263095Y-91829166D01*
X130239285Y-91852976D01*
X130215476Y-91900595D01*
X130215476Y-92043452D01*
X130239285Y-92091071D01*
X130263095Y-92114880D01*
X130310714Y-92138690D01*
X130405952Y-92138690D01*
X130453571Y-92114880D01*
X130025000Y-92114880D02*
X129977380Y-92138690D01*
X129882142Y-92138690D01*
X129834523Y-92114880D01*
X129810714Y-92067261D01*
X129810714Y-92043452D01*
X129834523Y-91995833D01*
X129882142Y-91972023D01*
X129953571Y-91972023D01*
X130001190Y-91948214D01*
X130025000Y-91900595D01*
X130025000Y-91876785D01*
X130001190Y-91829166D01*
X129953571Y-91805357D01*
X129882142Y-91805357D01*
X129834523Y-91829166D01*
X129596428Y-92091071D02*
X129572619Y-92114880D01*
X129596428Y-92138690D01*
X129620238Y-92114880D01*
X129596428Y-92091071D01*
X129596428Y-92138690D01*
X129596428Y-91829166D02*
X129572619Y-91852976D01*
X129596428Y-91876785D01*
X129620238Y-91852976D01*
X129596428Y-91829166D01*
X129596428Y-91876785D01*
X129001190Y-91614880D02*
X129429761Y-92257738D01*
X128477380Y-91614880D02*
X128905952Y-92257738D01*
X128096428Y-91805357D02*
X128096428Y-92210119D01*
X128120238Y-92257738D01*
X128144047Y-92281547D01*
X128191666Y-92305357D01*
X128263095Y-92305357D01*
X128310714Y-92281547D01*
X128096428Y-92114880D02*
X128144047Y-92138690D01*
X128239285Y-92138690D01*
X128286904Y-92114880D01*
X128310714Y-92091071D01*
X128334523Y-92043452D01*
X128334523Y-91900595D01*
X128310714Y-91852976D01*
X128286904Y-91829166D01*
X128239285Y-91805357D01*
X128144047Y-91805357D01*
X128096428Y-91829166D01*
X127858333Y-92138690D02*
X127858333Y-91805357D01*
X127858333Y-91638690D02*
X127882142Y-91662500D01*
X127858333Y-91686309D01*
X127834523Y-91662500D01*
X127858333Y-91638690D01*
X127858333Y-91686309D01*
X127691666Y-91805357D02*
X127501190Y-91805357D01*
X127620238Y-91638690D02*
X127620238Y-92067261D01*
X127596428Y-92114880D01*
X127548809Y-92138690D01*
X127501190Y-92138690D01*
X127334523Y-92138690D02*
X127334523Y-91638690D01*
X127120238Y-92138690D02*
X127120238Y-91876785D01*
X127144047Y-91829166D01*
X127191666Y-91805357D01*
X127263095Y-91805357D01*
X127310714Y-91829166D01*
X127334523Y-91852976D01*
X126667857Y-91805357D02*
X126667857Y-92138690D01*
X126882142Y-91805357D02*
X126882142Y-92067261D01*
X126858333Y-92114880D01*
X126810714Y-92138690D01*
X126739285Y-92138690D01*
X126691666Y-92114880D01*
X126667857Y-92091071D01*
X126429761Y-92138690D02*
X126429761Y-91638690D01*
X126429761Y-91829166D02*
X126382142Y-91805357D01*
X126286904Y-91805357D01*
X126239285Y-91829166D01*
X126215476Y-91852976D01*
X126191666Y-91900595D01*
X126191666Y-92043452D01*
X126215476Y-92091071D01*
X126239285Y-92114880D01*
X126286904Y-92138690D01*
X126382142Y-92138690D01*
X126429761Y-92114880D01*
X125977380Y-92091071D02*
X125953571Y-92114880D01*
X125977380Y-92138690D01*
X126001190Y-92114880D01*
X125977380Y-92091071D01*
X125977380Y-92138690D01*
X125525000Y-92114880D02*
X125572619Y-92138690D01*
X125667857Y-92138690D01*
X125715476Y-92114880D01*
X125739285Y-92091071D01*
X125763095Y-92043452D01*
X125763095Y-91900595D01*
X125739285Y-91852976D01*
X125715476Y-91829166D01*
X125667857Y-91805357D01*
X125572619Y-91805357D01*
X125525000Y-91829166D01*
X125239285Y-92138690D02*
X125286904Y-92114880D01*
X125310714Y-92091071D01*
X125334523Y-92043452D01*
X125334523Y-91900595D01*
X125310714Y-91852976D01*
X125286904Y-91829166D01*
X125239285Y-91805357D01*
X125167857Y-91805357D01*
X125120238Y-91829166D01*
X125096428Y-91852976D01*
X125072619Y-91900595D01*
X125072619Y-92043452D01*
X125096428Y-92091071D01*
X125120238Y-92114880D01*
X125167857Y-92138690D01*
X125239285Y-92138690D01*
X124858333Y-92138690D02*
X124858333Y-91805357D01*
X124858333Y-91852976D02*
X124834523Y-91829166D01*
X124786904Y-91805357D01*
X124715476Y-91805357D01*
X124667857Y-91829166D01*
X124644047Y-91876785D01*
X124644047Y-92138690D01*
X124644047Y-91876785D02*
X124620238Y-91829166D01*
X124572619Y-91805357D01*
X124501190Y-91805357D01*
X124453571Y-91829166D01*
X124429761Y-91876785D01*
X124429761Y-92138690D01*
X123834523Y-91614880D02*
X124263095Y-92257738D01*
X123667857Y-92138690D02*
X123667857Y-91805357D01*
X123667857Y-91852976D02*
X123644047Y-91829166D01*
X123596428Y-91805357D01*
X123525000Y-91805357D01*
X123477380Y-91829166D01*
X123453571Y-91876785D01*
X123453571Y-92138690D01*
X123453571Y-91876785D02*
X123429761Y-91829166D01*
X123382142Y-91805357D01*
X123310714Y-91805357D01*
X123263095Y-91829166D01*
X123239285Y-91876785D01*
X123239285Y-92138690D01*
X122786904Y-92138690D02*
X122786904Y-91876785D01*
X122810714Y-91829166D01*
X122858333Y-91805357D01*
X122953571Y-91805357D01*
X123001190Y-91829166D01*
X122786904Y-92114880D02*
X122834523Y-92138690D01*
X122953571Y-92138690D01*
X123001190Y-92114880D01*
X123025000Y-92067261D01*
X123025000Y-92019642D01*
X123001190Y-91972023D01*
X122953571Y-91948214D01*
X122834523Y-91948214D01*
X122786904Y-91924404D01*
X122548809Y-92138690D02*
X122548809Y-91638690D01*
X122501190Y-91948214D02*
X122358333Y-92138690D01*
X122358333Y-91805357D02*
X122548809Y-91995833D01*
X122144047Y-92138690D02*
X122144047Y-91638690D01*
X121929761Y-92138690D02*
X121929761Y-91876785D01*
X121953571Y-91829166D01*
X122001190Y-91805357D01*
X122072619Y-91805357D01*
X122120238Y-91829166D01*
X122144047Y-91852976D01*
X121620238Y-92138690D02*
X121667857Y-92114880D01*
X121691666Y-92091071D01*
X121715476Y-92043452D01*
X121715476Y-91900595D01*
X121691666Y-91852976D01*
X121667857Y-91829166D01*
X121620238Y-91805357D01*
X121548809Y-91805357D01*
X121501190Y-91829166D01*
X121477380Y-91852976D01*
X121453571Y-91900595D01*
X121453571Y-92043452D01*
X121477380Y-92091071D01*
X121501190Y-92114880D01*
X121548809Y-92138690D01*
X121620238Y-92138690D01*
X121286904Y-91805357D02*
X121191666Y-92138690D01*
X121096428Y-91900595D01*
X121001190Y-92138690D01*
X120905952Y-91805357D01*
X120501190Y-92138690D02*
X120501190Y-91876785D01*
X120525000Y-91829166D01*
X120572619Y-91805357D01*
X120667857Y-91805357D01*
X120715476Y-91829166D01*
X120501190Y-92114880D02*
X120548809Y-92138690D01*
X120667857Y-92138690D01*
X120715476Y-92114880D01*
X120739285Y-92067261D01*
X120739285Y-92019642D01*
X120715476Y-91972023D01*
X120667857Y-91948214D01*
X120548809Y-91948214D01*
X120501190Y-91924404D01*
X120286904Y-92114880D02*
X120239285Y-92138690D01*
X120144047Y-92138690D01*
X120096428Y-92114880D01*
X120072619Y-92067261D01*
X120072619Y-92043452D01*
X120096428Y-91995833D01*
X120144047Y-91972023D01*
X120215476Y-91972023D01*
X120263095Y-91948214D01*
X120286904Y-91900595D01*
X120286904Y-91876785D01*
X120263095Y-91829166D01*
X120215476Y-91805357D01*
X120144047Y-91805357D01*
X120096428Y-91829166D01*
X119929761Y-91805357D02*
X119739285Y-91805357D01*
X119858333Y-91638690D02*
X119858333Y-92067261D01*
X119834523Y-92114880D01*
X119786904Y-92138690D01*
X119739285Y-92138690D01*
X119358333Y-92138690D02*
X119358333Y-91876785D01*
X119382142Y-91829166D01*
X119429761Y-91805357D01*
X119525000Y-91805357D01*
X119572619Y-91829166D01*
X119358333Y-92114880D02*
X119405952Y-92138690D01*
X119525000Y-92138690D01*
X119572619Y-92114880D01*
X119596428Y-92067261D01*
X119596428Y-92019642D01*
X119572619Y-91972023D01*
X119525000Y-91948214D01*
X119405952Y-91948214D01*
X119358333Y-91924404D01*
X119120238Y-92138690D02*
X119120238Y-91638690D01*
X119072619Y-91948214D02*
X118929761Y-92138690D01*
X118929761Y-91805357D02*
X119120238Y-91995833D01*
X118525000Y-92114880D02*
X118572619Y-92138690D01*
X118667857Y-92138690D01*
X118715476Y-92114880D01*
X118739285Y-92067261D01*
X118739285Y-91876785D01*
X118715476Y-91829166D01*
X118667857Y-91805357D01*
X118572619Y-91805357D01*
X118525000Y-91829166D01*
X118501190Y-91876785D01*
X118501190Y-91924404D01*
X118739285Y-91972023D01*
X118286904Y-91805357D02*
X118286904Y-92138690D01*
X118286904Y-91852976D02*
X118263095Y-91829166D01*
X118215476Y-91805357D01*
X118144047Y-91805357D01*
X118096428Y-91829166D01*
X118072619Y-91876785D01*
X118072619Y-92138690D01*
X117477380Y-91614880D02*
X117905952Y-92257738D01*
X117334523Y-91995833D02*
X117096428Y-91995833D01*
X117382142Y-92138690D02*
X117215476Y-91638690D01*
X117048809Y-92138690D01*
X116620238Y-91662500D02*
X116667857Y-91638690D01*
X116739285Y-91638690D01*
X116810714Y-91662500D01*
X116858333Y-91710119D01*
X116882142Y-91757738D01*
X116905952Y-91852976D01*
X116905952Y-91924404D01*
X116882142Y-92019642D01*
X116858333Y-92067261D01*
X116810714Y-92114880D01*
X116739285Y-92138690D01*
X116691666Y-92138690D01*
X116620238Y-92114880D01*
X116596428Y-92091071D01*
X116596428Y-91924404D01*
X116691666Y-91924404D01*
X116215476Y-91876785D02*
X116144047Y-91900595D01*
X116120238Y-91924404D01*
X116096428Y-91972023D01*
X116096428Y-92043452D01*
X116120238Y-92091071D01*
X116144047Y-92114880D01*
X116191666Y-92138690D01*
X116382142Y-92138690D01*
X116382142Y-91638690D01*
X116215476Y-91638690D01*
X116167857Y-91662500D01*
X116144047Y-91686309D01*
X116120238Y-91733928D01*
X116120238Y-91781547D01*
X116144047Y-91829166D01*
X116167857Y-91852976D01*
X116215476Y-91876785D01*
X116382142Y-91876785D01*
X116001190Y-92186309D02*
X115620238Y-92186309D01*
X115263095Y-92138690D02*
X115501190Y-92138690D01*
X115501190Y-91638690D01*
X115096428Y-92138690D02*
X115096428Y-91638690D01*
X114858333Y-92138690D02*
X114858333Y-91638690D01*
X114667857Y-91638690D01*
X114620238Y-91662500D01*
X114596428Y-91686309D01*
X114572619Y-91733928D01*
X114572619Y-91805357D01*
X114596428Y-91852976D01*
X114620238Y-91876785D01*
X114667857Y-91900595D01*
X114858333Y-91900595D01*
X114263095Y-91638690D02*
X114167857Y-91638690D01*
X114120238Y-91662500D01*
X114072619Y-91710119D01*
X114048809Y-91805357D01*
X114048809Y-91972023D01*
X114072619Y-92067261D01*
X114120238Y-92114880D01*
X114167857Y-92138690D01*
X114263095Y-92138690D01*
X114310714Y-92114880D01*
X114358333Y-92067261D01*
X114382142Y-91972023D01*
X114382142Y-91805357D01*
X114358333Y-91710119D01*
X114310714Y-91662500D01*
X114263095Y-91638690D01*
X126251190Y-93013690D02*
X126417857Y-92775595D01*
X126536904Y-93013690D02*
X126536904Y-92513690D01*
X126346428Y-92513690D01*
X126298809Y-92537500D01*
X126275000Y-92561309D01*
X126251190Y-92608928D01*
X126251190Y-92680357D01*
X126275000Y-92727976D01*
X126298809Y-92751785D01*
X126346428Y-92775595D01*
X126536904Y-92775595D01*
X125846428Y-92989880D02*
X125894047Y-93013690D01*
X125989285Y-93013690D01*
X126036904Y-92989880D01*
X126060714Y-92942261D01*
X126060714Y-92751785D01*
X126036904Y-92704166D01*
X125989285Y-92680357D01*
X125894047Y-92680357D01*
X125846428Y-92704166D01*
X125822619Y-92751785D01*
X125822619Y-92799404D01*
X126060714Y-92847023D01*
X125394047Y-92989880D02*
X125441666Y-93013690D01*
X125536904Y-93013690D01*
X125584523Y-92989880D01*
X125608333Y-92966071D01*
X125632142Y-92918452D01*
X125632142Y-92775595D01*
X125608333Y-92727976D01*
X125584523Y-92704166D01*
X125536904Y-92680357D01*
X125441666Y-92680357D01*
X125394047Y-92704166D01*
X125179761Y-93013690D02*
X125179761Y-92680357D01*
X125179761Y-92775595D02*
X125155952Y-92727976D01*
X125132142Y-92704166D01*
X125084523Y-92680357D01*
X125036904Y-92680357D01*
X124679761Y-92989880D02*
X124727380Y-93013690D01*
X124822619Y-93013690D01*
X124870238Y-92989880D01*
X124894047Y-92942261D01*
X124894047Y-92751785D01*
X124870238Y-92704166D01*
X124822619Y-92680357D01*
X124727380Y-92680357D01*
X124679761Y-92704166D01*
X124655952Y-92751785D01*
X124655952Y-92799404D01*
X124894047Y-92847023D01*
X124227380Y-93013690D02*
X124227380Y-92751785D01*
X124251190Y-92704166D01*
X124298809Y-92680357D01*
X124394047Y-92680357D01*
X124441666Y-92704166D01*
X124227380Y-92989880D02*
X124275000Y-93013690D01*
X124394047Y-93013690D01*
X124441666Y-92989880D01*
X124465476Y-92942261D01*
X124465476Y-92894642D01*
X124441666Y-92847023D01*
X124394047Y-92823214D01*
X124275000Y-92823214D01*
X124227380Y-92799404D01*
X124060714Y-92680357D02*
X123870238Y-92680357D01*
X123989285Y-92513690D02*
X123989285Y-92942261D01*
X123965476Y-92989880D01*
X123917857Y-93013690D01*
X123870238Y-93013690D01*
X123513095Y-92989880D02*
X123560714Y-93013690D01*
X123655952Y-93013690D01*
X123703571Y-92989880D01*
X123727380Y-92942261D01*
X123727380Y-92751785D01*
X123703571Y-92704166D01*
X123655952Y-92680357D01*
X123560714Y-92680357D01*
X123513095Y-92704166D01*
X123489285Y-92751785D01*
X123489285Y-92799404D01*
X123727380Y-92847023D01*
X123060714Y-93013690D02*
X123060714Y-92513690D01*
X123060714Y-92989880D02*
X123108333Y-93013690D01*
X123203571Y-93013690D01*
X123251190Y-92989880D01*
X123275000Y-92966071D01*
X123298809Y-92918452D01*
X123298809Y-92775595D01*
X123275000Y-92727976D01*
X123251190Y-92704166D01*
X123203571Y-92680357D01*
X123108333Y-92680357D01*
X123060714Y-92704166D01*
X122441666Y-93013690D02*
X122441666Y-92513690D01*
X122441666Y-92704166D02*
X122394047Y-92680357D01*
X122298809Y-92680357D01*
X122251190Y-92704166D01*
X122227380Y-92727976D01*
X122203571Y-92775595D01*
X122203571Y-92918452D01*
X122227380Y-92966071D01*
X122251190Y-92989880D01*
X122298809Y-93013690D01*
X122394047Y-93013690D01*
X122441666Y-92989880D01*
X122036904Y-92680357D02*
X121917857Y-93013690D01*
X121798809Y-92680357D02*
X121917857Y-93013690D01*
X121965476Y-93132738D01*
X121989285Y-93156547D01*
X122036904Y-93180357D01*
X120989285Y-93013690D02*
X121227380Y-93013690D01*
X121227380Y-92513690D01*
X120751190Y-93013690D02*
X120798809Y-92989880D01*
X120822619Y-92966071D01*
X120846428Y-92918452D01*
X120846428Y-92775595D01*
X120822619Y-92727976D01*
X120798809Y-92704166D01*
X120751190Y-92680357D01*
X120679761Y-92680357D01*
X120632142Y-92704166D01*
X120608333Y-92727976D01*
X120584523Y-92775595D01*
X120584523Y-92918452D01*
X120608333Y-92966071D01*
X120632142Y-92989880D01*
X120679761Y-93013690D01*
X120751190Y-93013690D01*
X120370238Y-93013690D02*
X120370238Y-92513690D01*
X120370238Y-92704166D02*
X120322619Y-92680357D01*
X120227380Y-92680357D01*
X120179761Y-92704166D01*
X120155952Y-92727976D01*
X120132142Y-92775595D01*
X120132142Y-92918452D01*
X120155952Y-92966071D01*
X120179761Y-92989880D01*
X120227380Y-93013690D01*
X120322619Y-93013690D01*
X120370238Y-92989880D01*
X119846428Y-93013690D02*
X119894047Y-92989880D01*
X119917857Y-92966071D01*
X119941666Y-92918452D01*
X119941666Y-92775595D01*
X119917857Y-92727976D01*
X119894047Y-92704166D01*
X119846428Y-92680357D01*
X119775000Y-92680357D01*
X119727380Y-92704166D01*
X119703571Y-92727976D01*
X119679761Y-92775595D01*
X119679761Y-92918452D01*
X119703571Y-92966071D01*
X119727380Y-92989880D01*
X119775000Y-93013690D01*
X119846428Y-93013690D01*
X119251190Y-93013690D02*
X119251190Y-92513690D01*
X119251190Y-92989880D02*
X119298809Y-93013690D01*
X119394047Y-93013690D01*
X119441666Y-92989880D01*
X119465476Y-92966071D01*
X119489285Y-92918452D01*
X119489285Y-92775595D01*
X119465476Y-92727976D01*
X119441666Y-92704166D01*
X119394047Y-92680357D01*
X119298809Y-92680357D01*
X119251190Y-92704166D01*
X119013095Y-92966071D02*
X118989285Y-92989880D01*
X119013095Y-93013690D01*
X119036904Y-92989880D01*
X119013095Y-92966071D01*
X119013095Y-93013690D01*
X130048809Y-93888690D02*
X130048809Y-93388690D01*
X129834523Y-93888690D02*
X129834523Y-93626785D01*
X129858333Y-93579166D01*
X129905952Y-93555357D01*
X129977380Y-93555357D01*
X130025000Y-93579166D01*
X130048809Y-93602976D01*
X129667857Y-93555357D02*
X129477380Y-93555357D01*
X129596428Y-93388690D02*
X129596428Y-93817261D01*
X129572619Y-93864880D01*
X129525000Y-93888690D01*
X129477380Y-93888690D01*
X129382142Y-93555357D02*
X129191666Y-93555357D01*
X129310714Y-93388690D02*
X129310714Y-93817261D01*
X129286904Y-93864880D01*
X129239285Y-93888690D01*
X129191666Y-93888690D01*
X129025000Y-93555357D02*
X129025000Y-94055357D01*
X129025000Y-93579166D02*
X128977380Y-93555357D01*
X128882142Y-93555357D01*
X128834523Y-93579166D01*
X128810714Y-93602976D01*
X128786904Y-93650595D01*
X128786904Y-93793452D01*
X128810714Y-93841071D01*
X128834523Y-93864880D01*
X128882142Y-93888690D01*
X128977380Y-93888690D01*
X129025000Y-93864880D01*
X128596428Y-93864880D02*
X128548809Y-93888690D01*
X128453571Y-93888690D01*
X128405952Y-93864880D01*
X128382142Y-93817261D01*
X128382142Y-93793452D01*
X128405952Y-93745833D01*
X128453571Y-93722023D01*
X128525000Y-93722023D01*
X128572619Y-93698214D01*
X128596428Y-93650595D01*
X128596428Y-93626785D01*
X128572619Y-93579166D01*
X128525000Y-93555357D01*
X128453571Y-93555357D01*
X128405952Y-93579166D01*
X128167857Y-93841071D02*
X128144047Y-93864880D01*
X128167857Y-93888690D01*
X128191666Y-93864880D01*
X128167857Y-93841071D01*
X128167857Y-93888690D01*
X128167857Y-93579166D02*
X128144047Y-93602976D01*
X128167857Y-93626785D01*
X128191666Y-93602976D01*
X128167857Y-93579166D01*
X128167857Y-93626785D01*
X127572619Y-93364880D02*
X128001190Y-94007738D01*
X127048809Y-93364880D02*
X127477380Y-94007738D01*
X126667857Y-93555357D02*
X126667857Y-93960119D01*
X126691666Y-94007738D01*
X126715476Y-94031547D01*
X126763095Y-94055357D01*
X126834523Y-94055357D01*
X126882142Y-94031547D01*
X126667857Y-93864880D02*
X126715476Y-93888690D01*
X126810714Y-93888690D01*
X126858333Y-93864880D01*
X126882142Y-93841071D01*
X126905952Y-93793452D01*
X126905952Y-93650595D01*
X126882142Y-93602976D01*
X126858333Y-93579166D01*
X126810714Y-93555357D01*
X126715476Y-93555357D01*
X126667857Y-93579166D01*
X126429761Y-93888690D02*
X126429761Y-93555357D01*
X126429761Y-93388690D02*
X126453571Y-93412500D01*
X126429761Y-93436309D01*
X126405952Y-93412500D01*
X126429761Y-93388690D01*
X126429761Y-93436309D01*
X126263095Y-93555357D02*
X126072619Y-93555357D01*
X126191666Y-93388690D02*
X126191666Y-93817261D01*
X126167857Y-93864880D01*
X126120238Y-93888690D01*
X126072619Y-93888690D01*
X125905952Y-93888690D02*
X125905952Y-93388690D01*
X125691666Y-93888690D02*
X125691666Y-93626785D01*
X125715476Y-93579166D01*
X125763095Y-93555357D01*
X125834523Y-93555357D01*
X125882142Y-93579166D01*
X125905952Y-93602976D01*
X125239285Y-93555357D02*
X125239285Y-93888690D01*
X125453571Y-93555357D02*
X125453571Y-93817261D01*
X125429761Y-93864880D01*
X125382142Y-93888690D01*
X125310714Y-93888690D01*
X125263095Y-93864880D01*
X125239285Y-93841071D01*
X125001190Y-93888690D02*
X125001190Y-93388690D01*
X125001190Y-93579166D02*
X124953571Y-93555357D01*
X124858333Y-93555357D01*
X124810714Y-93579166D01*
X124786904Y-93602976D01*
X124763095Y-93650595D01*
X124763095Y-93793452D01*
X124786904Y-93841071D01*
X124810714Y-93864880D01*
X124858333Y-93888690D01*
X124953571Y-93888690D01*
X125001190Y-93864880D01*
X124548809Y-93841071D02*
X124525000Y-93864880D01*
X124548809Y-93888690D01*
X124572619Y-93864880D01*
X124548809Y-93841071D01*
X124548809Y-93888690D01*
X124096428Y-93864880D02*
X124144047Y-93888690D01*
X124239285Y-93888690D01*
X124286904Y-93864880D01*
X124310714Y-93841071D01*
X124334523Y-93793452D01*
X124334523Y-93650595D01*
X124310714Y-93602976D01*
X124286904Y-93579166D01*
X124239285Y-93555357D01*
X124144047Y-93555357D01*
X124096428Y-93579166D01*
X123810714Y-93888690D02*
X123858333Y-93864880D01*
X123882142Y-93841071D01*
X123905952Y-93793452D01*
X123905952Y-93650595D01*
X123882142Y-93602976D01*
X123858333Y-93579166D01*
X123810714Y-93555357D01*
X123739285Y-93555357D01*
X123691666Y-93579166D01*
X123667857Y-93602976D01*
X123644047Y-93650595D01*
X123644047Y-93793452D01*
X123667857Y-93841071D01*
X123691666Y-93864880D01*
X123739285Y-93888690D01*
X123810714Y-93888690D01*
X123429761Y-93888690D02*
X123429761Y-93555357D01*
X123429761Y-93602976D02*
X123405952Y-93579166D01*
X123358333Y-93555357D01*
X123286904Y-93555357D01*
X123239285Y-93579166D01*
X123215476Y-93626785D01*
X123215476Y-93888690D01*
X123215476Y-93626785D02*
X123191666Y-93579166D01*
X123144047Y-93555357D01*
X123072619Y-93555357D01*
X123025000Y-93579166D01*
X123001190Y-93626785D01*
X123001190Y-93888690D01*
X122405952Y-93364880D02*
X122834523Y-94007738D01*
X122001190Y-93888690D02*
X122239285Y-93888690D01*
X122239285Y-93388690D01*
X121763095Y-93888690D02*
X121810714Y-93864880D01*
X121834523Y-93841071D01*
X121858333Y-93793452D01*
X121858333Y-93650595D01*
X121834523Y-93602976D01*
X121810714Y-93579166D01*
X121763095Y-93555357D01*
X121691666Y-93555357D01*
X121644047Y-93579166D01*
X121620238Y-93602976D01*
X121596428Y-93650595D01*
X121596428Y-93793452D01*
X121620238Y-93841071D01*
X121644047Y-93864880D01*
X121691666Y-93888690D01*
X121763095Y-93888690D01*
X121382142Y-93888690D02*
X121382142Y-93388690D01*
X121382142Y-93579166D02*
X121334523Y-93555357D01*
X121239285Y-93555357D01*
X121191666Y-93579166D01*
X121167857Y-93602976D01*
X121144047Y-93650595D01*
X121144047Y-93793452D01*
X121167857Y-93841071D01*
X121191666Y-93864880D01*
X121239285Y-93888690D01*
X121334523Y-93888690D01*
X121382142Y-93864880D01*
X120858333Y-93888690D02*
X120905952Y-93864880D01*
X120929761Y-93841071D01*
X120953571Y-93793452D01*
X120953571Y-93650595D01*
X120929761Y-93602976D01*
X120905952Y-93579166D01*
X120858333Y-93555357D01*
X120786904Y-93555357D01*
X120739285Y-93579166D01*
X120715476Y-93602976D01*
X120691666Y-93650595D01*
X120691666Y-93793452D01*
X120715476Y-93841071D01*
X120739285Y-93864880D01*
X120786904Y-93888690D01*
X120858333Y-93888690D01*
X120263095Y-93888690D02*
X120263095Y-93388690D01*
X120263095Y-93864880D02*
X120310714Y-93888690D01*
X120405952Y-93888690D01*
X120453571Y-93864880D01*
X120477380Y-93841071D01*
X120501190Y-93793452D01*
X120501190Y-93650595D01*
X120477380Y-93602976D01*
X120453571Y-93579166D01*
X120405952Y-93555357D01*
X120310714Y-93555357D01*
X120263095Y-93579166D01*
X120025000Y-93888690D02*
X120025000Y-93388690D01*
X119834523Y-93388690D01*
X119786904Y-93412500D01*
X119763095Y-93436309D01*
X119739285Y-93483928D01*
X119739285Y-93555357D01*
X119763095Y-93602976D01*
X119786904Y-93626785D01*
X119834523Y-93650595D01*
X120025000Y-93650595D01*
X119453571Y-93888690D02*
X119501190Y-93864880D01*
X119525000Y-93817261D01*
X119525000Y-93388690D01*
X118905952Y-93364880D02*
X119334523Y-94007738D01*
X118763095Y-93745833D02*
X118525000Y-93745833D01*
X118810714Y-93888690D02*
X118644047Y-93388690D01*
X118477380Y-93888690D01*
X118048809Y-93412500D02*
X118096428Y-93388690D01*
X118167857Y-93388690D01*
X118239285Y-93412500D01*
X118286904Y-93460119D01*
X118310714Y-93507738D01*
X118334523Y-93602976D01*
X118334523Y-93674404D01*
X118310714Y-93769642D01*
X118286904Y-93817261D01*
X118239285Y-93864880D01*
X118167857Y-93888690D01*
X118120238Y-93888690D01*
X118048809Y-93864880D01*
X118025000Y-93841071D01*
X118025000Y-93674404D01*
X118120238Y-93674404D01*
X117644047Y-93626785D02*
X117572619Y-93650595D01*
X117548809Y-93674404D01*
X117525000Y-93722023D01*
X117525000Y-93793452D01*
X117548809Y-93841071D01*
X117572619Y-93864880D01*
X117620238Y-93888690D01*
X117810714Y-93888690D01*
X117810714Y-93388690D01*
X117644047Y-93388690D01*
X117596428Y-93412500D01*
X117572619Y-93436309D01*
X117548809Y-93483928D01*
X117548809Y-93531547D01*
X117572619Y-93579166D01*
X117596428Y-93602976D01*
X117644047Y-93626785D01*
X117810714Y-93626785D01*
X117429761Y-93936309D02*
X117048809Y-93936309D01*
X116691666Y-93888690D02*
X116929761Y-93888690D01*
X116929761Y-93388690D01*
X116525000Y-93888690D02*
X116525000Y-93388690D01*
X116286904Y-93888690D02*
X116286904Y-93388690D01*
X116096428Y-93388690D01*
X116048809Y-93412500D01*
X116025000Y-93436309D01*
X116001190Y-93483928D01*
X116001190Y-93555357D01*
X116025000Y-93602976D01*
X116048809Y-93626785D01*
X116096428Y-93650595D01*
X116286904Y-93650595D01*
X115691666Y-93388690D02*
X115596428Y-93388690D01*
X115548809Y-93412500D01*
X115501190Y-93460119D01*
X115477380Y-93555357D01*
X115477380Y-93722023D01*
X115501190Y-93817261D01*
X115548809Y-93864880D01*
X115596428Y-93888690D01*
X115691666Y-93888690D01*
X115739285Y-93864880D01*
X115786904Y-93817261D01*
X115810714Y-93722023D01*
X115810714Y-93555357D01*
X115786904Y-93460119D01*
X115739285Y-93412500D01*
X115691666Y-93388690D01*
D11*
X131010619Y-105696380D02*
X130439190Y-105696380D01*
X130724904Y-106696380D02*
X130724904Y-105696380D01*
X130105857Y-106696380D02*
X130105857Y-105696380D01*
X129677285Y-106696380D02*
X129677285Y-106172571D01*
X129724904Y-106077333D01*
X129820142Y-106029714D01*
X129963000Y-106029714D01*
X130058238Y-106077333D01*
X130105857Y-106124952D01*
X129201095Y-106696380D02*
X129201095Y-106029714D01*
X129201095Y-105696380D02*
X129248714Y-105744000D01*
X129201095Y-105791619D01*
X129153476Y-105744000D01*
X129201095Y-105696380D01*
X129201095Y-105791619D01*
X128772523Y-106648761D02*
X128677285Y-106696380D01*
X128486809Y-106696380D01*
X128391571Y-106648761D01*
X128343952Y-106553523D01*
X128343952Y-106505904D01*
X128391571Y-106410666D01*
X128486809Y-106363047D01*
X128629666Y-106363047D01*
X128724904Y-106315428D01*
X128772523Y-106220190D01*
X128772523Y-106172571D01*
X128724904Y-106077333D01*
X128629666Y-106029714D01*
X128486809Y-106029714D01*
X128391571Y-106077333D01*
X127201095Y-106648761D02*
X127105857Y-106696380D01*
X126915380Y-106696380D01*
X126820142Y-106648761D01*
X126772523Y-106553523D01*
X126772523Y-106505904D01*
X126820142Y-106410666D01*
X126915380Y-106363047D01*
X127058238Y-106363047D01*
X127153476Y-106315428D01*
X127201095Y-106220190D01*
X127201095Y-106172571D01*
X127153476Y-106077333D01*
X127058238Y-106029714D01*
X126915380Y-106029714D01*
X126820142Y-106077333D01*
X126343952Y-106696380D02*
X126343952Y-106029714D01*
X126343952Y-105696380D02*
X126391571Y-105744000D01*
X126343952Y-105791619D01*
X126296333Y-105744000D01*
X126343952Y-105696380D01*
X126343952Y-105791619D01*
X125439190Y-106696380D02*
X125439190Y-105696380D01*
X125439190Y-106648761D02*
X125534428Y-106696380D01*
X125724904Y-106696380D01*
X125820142Y-106648761D01*
X125867761Y-106601142D01*
X125915380Y-106505904D01*
X125915380Y-106220190D01*
X125867761Y-106124952D01*
X125820142Y-106077333D01*
X125724904Y-106029714D01*
X125534428Y-106029714D01*
X125439190Y-106077333D01*
X124582047Y-106648761D02*
X124677285Y-106696380D01*
X124867761Y-106696380D01*
X124963000Y-106648761D01*
X125010619Y-106553523D01*
X125010619Y-106172571D01*
X124963000Y-106077333D01*
X124867761Y-106029714D01*
X124677285Y-106029714D01*
X124582047Y-106077333D01*
X124534428Y-106172571D01*
X124534428Y-106267809D01*
X125010619Y-106363047D01*
X122915380Y-106696380D02*
X122915380Y-105696380D01*
X122915380Y-106648761D02*
X123010619Y-106696380D01*
X123201095Y-106696380D01*
X123296333Y-106648761D01*
X123343952Y-106601142D01*
X123391571Y-106505904D01*
X123391571Y-106220190D01*
X123343952Y-106124952D01*
X123296333Y-106077333D01*
X123201095Y-106029714D01*
X123010619Y-106029714D01*
X122915380Y-106077333D01*
X122296333Y-106696380D02*
X122391571Y-106648761D01*
X122439190Y-106601142D01*
X122486809Y-106505904D01*
X122486809Y-106220190D01*
X122439190Y-106124952D01*
X122391571Y-106077333D01*
X122296333Y-106029714D01*
X122153476Y-106029714D01*
X122058238Y-106077333D01*
X122010619Y-106124952D01*
X121963000Y-106220190D01*
X121963000Y-106505904D01*
X122010619Y-106601142D01*
X122058238Y-106648761D01*
X122153476Y-106696380D01*
X122296333Y-106696380D01*
X121629666Y-106029714D02*
X121439190Y-106696380D01*
X121248714Y-106220190D01*
X121058238Y-106696380D01*
X120867761Y-106029714D01*
X120486809Y-106029714D02*
X120486809Y-106696380D01*
X120486809Y-106124952D02*
X120439190Y-106077333D01*
X120343952Y-106029714D01*
X120201095Y-106029714D01*
X120105857Y-106077333D01*
X120058238Y-106172571D01*
X120058238Y-106696380D01*
X128820142Y-108346380D02*
X128820142Y-107346380D01*
X128820142Y-108298761D02*
X128915380Y-108346380D01*
X129105857Y-108346380D01*
X129201095Y-108298761D01*
X129248714Y-108251142D01*
X129296333Y-108155904D01*
X129296333Y-107870190D01*
X129248714Y-107774952D01*
X129201095Y-107727333D01*
X129105857Y-107679714D01*
X128915380Y-107679714D01*
X128820142Y-107727333D01*
X128201095Y-108346380D02*
X128296333Y-108298761D01*
X128343952Y-108251142D01*
X128391571Y-108155904D01*
X128391571Y-107870190D01*
X128343952Y-107774952D01*
X128296333Y-107727333D01*
X128201095Y-107679714D01*
X128058238Y-107679714D01*
X127963000Y-107727333D01*
X127915380Y-107774952D01*
X127867761Y-107870190D01*
X127867761Y-108155904D01*
X127915380Y-108251142D01*
X127963000Y-108298761D01*
X128058238Y-108346380D01*
X128201095Y-108346380D01*
X126677285Y-107679714D02*
X126677285Y-108346380D01*
X126677285Y-107774952D02*
X126629666Y-107727333D01*
X126534428Y-107679714D01*
X126391571Y-107679714D01*
X126296333Y-107727333D01*
X126248714Y-107822571D01*
X126248714Y-108346380D01*
X125629666Y-108346380D02*
X125724904Y-108298761D01*
X125772523Y-108251142D01*
X125820142Y-108155904D01*
X125820142Y-107870190D01*
X125772523Y-107774952D01*
X125724904Y-107727333D01*
X125629666Y-107679714D01*
X125486809Y-107679714D01*
X125391571Y-107727333D01*
X125343952Y-107774952D01*
X125296333Y-107870190D01*
X125296333Y-108155904D01*
X125343952Y-108251142D01*
X125391571Y-108298761D01*
X125486809Y-108346380D01*
X125629666Y-108346380D01*
X125010619Y-107679714D02*
X124629666Y-107679714D01*
X124867761Y-107346380D02*
X124867761Y-108203523D01*
X124820142Y-108298761D01*
X124724904Y-108346380D01*
X124629666Y-108346380D01*
X123153476Y-108298761D02*
X123248714Y-108346380D01*
X123439190Y-108346380D01*
X123534428Y-108298761D01*
X123582047Y-108203523D01*
X123582047Y-107822571D01*
X123534428Y-107727333D01*
X123439190Y-107679714D01*
X123248714Y-107679714D01*
X123153476Y-107727333D01*
X123105857Y-107822571D01*
X123105857Y-107917809D01*
X123582047Y-108013047D01*
X122248714Y-108346380D02*
X122248714Y-107822571D01*
X122296333Y-107727333D01*
X122391571Y-107679714D01*
X122582047Y-107679714D01*
X122677285Y-107727333D01*
X122248714Y-108298761D02*
X122343952Y-108346380D01*
X122582047Y-108346380D01*
X122677285Y-108298761D01*
X122724904Y-108203523D01*
X122724904Y-108108285D01*
X122677285Y-108013047D01*
X122582047Y-107965428D01*
X122343952Y-107965428D01*
X122248714Y-107917809D01*
X121915380Y-107679714D02*
X121534428Y-107679714D01*
X121772523Y-107346380D02*
X121772523Y-108203523D01*
X121724904Y-108298761D01*
X121629666Y-108346380D01*
X121534428Y-108346380D01*
X153705000Y-92699000D02*
X136705000Y-92699000D01*
X136705000Y-118701000D02*
X153705000Y-118701000D01*
X142325000Y-113573000D02*
X142325000Y-118145000D01*
X147913000Y-113573000D02*
X142325000Y-113573000D01*
X147913000Y-118399000D02*
X147913000Y-113573000D01*
X148421000Y-118653000D02*
X147913000Y-118399000D01*
X148421000Y-119161000D02*
X148421000Y-118653000D01*
X142325000Y-118399000D02*
X142325000Y-118145000D01*
X141817000Y-118653000D02*
X142325000Y-118399000D01*
X141817000Y-119161000D02*
X141817000Y-118653000D01*
X141845000Y-119175000D02*
X148395000Y-119175000D01*
X153705000Y-118705000D02*
X153705000Y-92705000D01*
X136705000Y-118695000D02*
X136705000Y-92705000D01*
X143527380Y-105909095D02*
X144336904Y-105909095D01*
X144432142Y-105956714D01*
X144479761Y-106004333D01*
X144527380Y-106099571D01*
X144527380Y-106290047D01*
X144479761Y-106385285D01*
X144432142Y-106432904D01*
X144336904Y-106480523D01*
X143527380Y-106480523D01*
X144527380Y-107480523D02*
X144527380Y-106909095D01*
X144527380Y-107194809D02*
X143527380Y-107194809D01*
X143670238Y-107099571D01*
X143765476Y-107004333D01*
X143813095Y-106909095D01*
X151787380Y-111692142D02*
X150787380Y-111692142D01*
X151787380Y-112168333D02*
X150787380Y-112168333D01*
X151787380Y-112739761D01*
X150787380Y-112739761D01*
X151406428Y-113215952D02*
X151406428Y-113977857D01*
X151787380Y-113596904D02*
X151025476Y-113596904D01*
X138897380Y-111162142D02*
X137897380Y-111162142D01*
X138897380Y-111638333D02*
X137897380Y-111638333D01*
X138897380Y-112209761D01*
X137897380Y-112209761D01*
X138516428Y-112685952D02*
X138516428Y-113447857D01*
X151005380Y-96915952D02*
X151005380Y-97106428D01*
X151053000Y-97201666D01*
X151148238Y-97296904D01*
X151338714Y-97344523D01*
X151672047Y-97344523D01*
X151862523Y-97296904D01*
X151957761Y-97201666D01*
X152005380Y-97106428D01*
X152005380Y-96915952D01*
X151957761Y-96820714D01*
X151862523Y-96725476D01*
X151672047Y-96677857D01*
X151338714Y-96677857D01*
X151148238Y-96725476D01*
X151053000Y-96820714D01*
X151005380Y-96915952D01*
X151005380Y-97773095D02*
X151814904Y-97773095D01*
X151910142Y-97820714D01*
X151957761Y-97868333D01*
X152005380Y-97963571D01*
X152005380Y-98154047D01*
X151957761Y-98249285D01*
X151910142Y-98296904D01*
X151814904Y-98344523D01*
X151005380Y-98344523D01*
X151005380Y-98677857D02*
X151005380Y-99249285D01*
X152005380Y-98963571D02*
X151005380Y-98963571D01*
X151624428Y-99582619D02*
X151624428Y-100344523D01*
X152005380Y-99963571D02*
X151243476Y-99963571D01*
X138101380Y-96595952D02*
X138101380Y-96786428D01*
X138149000Y-96881666D01*
X138244238Y-96976904D01*
X138434714Y-97024523D01*
X138768047Y-97024523D01*
X138958523Y-96976904D01*
X139053761Y-96881666D01*
X139101380Y-96786428D01*
X139101380Y-96595952D01*
X139053761Y-96500714D01*
X138958523Y-96405476D01*
X138768047Y-96357857D01*
X138434714Y-96357857D01*
X138244238Y-96405476D01*
X138149000Y-96500714D01*
X138101380Y-96595952D01*
X138101380Y-97453095D02*
X138910904Y-97453095D01*
X139006142Y-97500714D01*
X139053761Y-97548333D01*
X139101380Y-97643571D01*
X139101380Y-97834047D01*
X139053761Y-97929285D01*
X139006142Y-97976904D01*
X138910904Y-98024523D01*
X138101380Y-98024523D01*
X138101380Y-98357857D02*
X138101380Y-98929285D01*
X139101380Y-98643571D02*
X138101380Y-98643571D01*
X138720428Y-99262619D02*
X138720428Y-100024523D01*
X147145571Y-94183380D02*
X147193190Y-94326238D01*
X147240809Y-94373857D01*
X147336047Y-94421476D01*
X147478904Y-94421476D01*
X147574142Y-94373857D01*
X147621761Y-94326238D01*
X147669380Y-94231000D01*
X147669380Y-93850047D01*
X146669380Y-93850047D01*
X146669380Y-94183380D01*
X146717000Y-94278619D01*
X146764619Y-94326238D01*
X146859857Y-94373857D01*
X146955095Y-94373857D01*
X147050333Y-94326238D01*
X147097952Y-94278619D01*
X147145571Y-94183380D01*
X147145571Y-93850047D01*
X147288428Y-94850047D02*
X147288428Y-95611952D01*
X147669380Y-95231000D02*
X146907476Y-95231000D01*
X143843571Y-94183380D02*
X143891190Y-94326238D01*
X143938809Y-94373857D01*
X144034047Y-94421476D01*
X144176904Y-94421476D01*
X144272142Y-94373857D01*
X144319761Y-94326238D01*
X144367380Y-94231000D01*
X144367380Y-93850047D01*
X143367380Y-93850047D01*
X143367380Y-94183380D01*
X143415000Y-94278619D01*
X143462619Y-94326238D01*
X143557857Y-94373857D01*
X143653095Y-94373857D01*
X143748333Y-94326238D01*
X143795952Y-94278619D01*
X143843571Y-94183380D01*
X143843571Y-93850047D01*
X143986428Y-94850047D02*
X143986428Y-95611952D01*
X145571380Y-111485857D02*
X144904714Y-111485857D01*
X144999952Y-111485857D02*
X144952333Y-111533476D01*
X144904714Y-111628714D01*
X144904714Y-111771571D01*
X144952333Y-111866809D01*
X145047571Y-111914428D01*
X145571380Y-111914428D01*
X145047571Y-111914428D02*
X144952333Y-111962047D01*
X144904714Y-112057285D01*
X144904714Y-112200142D01*
X144952333Y-112295380D01*
X145047571Y-112343000D01*
X145571380Y-112343000D01*
X145571380Y-112819190D02*
X144904714Y-112819190D01*
X144571380Y-112819190D02*
X144619000Y-112771571D01*
X144666619Y-112819190D01*
X144619000Y-112866809D01*
X144571380Y-112819190D01*
X144666619Y-112819190D01*
X145523761Y-113723952D02*
X145571380Y-113628714D01*
X145571380Y-113438238D01*
X145523761Y-113343000D01*
X145476142Y-113295380D01*
X145380904Y-113247761D01*
X145095190Y-113247761D01*
X144999952Y-113295380D01*
X144952333Y-113343000D01*
X144904714Y-113438238D01*
X144904714Y-113628714D01*
X144952333Y-113723952D01*
X145571380Y-114152523D02*
X144904714Y-114152523D01*
X145095190Y-114152523D02*
X144999952Y-114200142D01*
X144952333Y-114247761D01*
X144904714Y-114343000D01*
X144904714Y-114438238D01*
X145571380Y-114914428D02*
X145523761Y-114819190D01*
X145476142Y-114771571D01*
X145380904Y-114723952D01*
X145095190Y-114723952D01*
X144999952Y-114771571D01*
X144952333Y-114819190D01*
X144904714Y-114914428D01*
X144904714Y-115057285D01*
X144952333Y-115152523D01*
X144999952Y-115200142D01*
X145095190Y-115247761D01*
X145380904Y-115247761D01*
X145476142Y-115200142D01*
X145523761Y-115152523D01*
X145571380Y-115057285D01*
X145571380Y-114914428D01*
X144571380Y-115676333D02*
X145380904Y-115676333D01*
X145476142Y-115723952D01*
X145523761Y-115771571D01*
X145571380Y-115866809D01*
X145571380Y-116057285D01*
X145523761Y-116152523D01*
X145476142Y-116200142D01*
X145380904Y-116247761D01*
X144571380Y-116247761D01*
X145523761Y-116676333D02*
X145571380Y-116819190D01*
X145571380Y-117057285D01*
X145523761Y-117152523D01*
X145476142Y-117200142D01*
X145380904Y-117247761D01*
X145285666Y-117247761D01*
X145190428Y-117200142D01*
X145142809Y-117152523D01*
X145095190Y-117057285D01*
X145047571Y-116866809D01*
X144999952Y-116771571D01*
X144952333Y-116723952D01*
X144857095Y-116676333D01*
X144761857Y-116676333D01*
X144666619Y-116723952D01*
X144619000Y-116771571D01*
X144571380Y-116866809D01*
X144571380Y-117104904D01*
X144619000Y-117247761D01*
X145047571Y-118009666D02*
X145095190Y-118152523D01*
X145142809Y-118200142D01*
X145238047Y-118247761D01*
X145380904Y-118247761D01*
X145476142Y-118200142D01*
X145523761Y-118152523D01*
X145571380Y-118057285D01*
X145571380Y-117676333D01*
X144571380Y-117676333D01*
X144571380Y-118009666D01*
X144619000Y-118104904D01*
X144666619Y-118152523D01*
X144761857Y-118200142D01*
X144857095Y-118200142D01*
X144952333Y-118152523D01*
X144999952Y-118104904D01*
X145047571Y-118009666D01*
X145047571Y-117676333D01*
M02*
