G04 #@! TF.GenerationSoftware,KiCad,Pcbnew,(5.1.5)-3*
G04 #@! TF.CreationDate,2020-04-26T21:29:02+02:00*
G04 #@! TF.ProjectId,AGB_LIPO,4147425f-4c49-4504-9f2e-6b696361645f,rev?*
G04 #@! TF.SameCoordinates,Original*
G04 #@! TF.FileFunction,Copper,L2,Bot*
G04 #@! TF.FilePolarity,Positive*
%FSLAX46Y46*%
G04 Gerber Fmt 4.6, Leading zero omitted, Abs format (unit mm)*
G04 Created by KiCad (PCBNEW (5.1.5)-3) date 2020-04-26 21:29:02*
%MOMM*%
%LPD*%
G04 APERTURE LIST*
%ADD10C,0.100000*%
%ADD11O,1.400000X1.400000*%
%ADD12C,1.400000*%
%ADD13R,2.800000X2.800000*%
%ADD14C,1.000000*%
%ADD15O,1.500000X1.500000*%
%ADD16R,1.500000X1.500000*%
%ADD17O,1.700000X1.700000*%
%ADD18R,1.700000X1.700000*%
%ADD19C,0.800000*%
%ADD20C,1.000000*%
G04 APERTURE END LIST*
D10*
G36*
X125928500Y-41250000D02*
G01*
X119678500Y-41250000D01*
X119678500Y-36000000D01*
X125928500Y-36000000D01*
X125928500Y-41250000D01*
G37*
X125928500Y-41250000D02*
X119678500Y-41250000D01*
X119678500Y-36000000D01*
X125928500Y-36000000D01*
X125928500Y-41250000D01*
G36*
X125992000Y-25750000D02*
G01*
X119742000Y-25750000D01*
X119742000Y-20500000D01*
X125992000Y-20500000D01*
X125992000Y-25750000D01*
G37*
X125992000Y-25750000D02*
X119742000Y-25750000D01*
X119742000Y-20500000D01*
X125992000Y-20500000D01*
X125992000Y-25750000D01*
D11*
X87460000Y-22290000D03*
D12*
X79840000Y-22290000D03*
D13*
X98220000Y-26200000D03*
X112720000Y-26200000D03*
X101720000Y-26200000D03*
X109320000Y-26200000D03*
D14*
X89408000Y-34290000D03*
D15*
X79720000Y-34330000D03*
D16*
X87340000Y-34330000D03*
D12*
X117200000Y-29060000D03*
X117200000Y-31600000D03*
D17*
X78460500Y-39849500D03*
D18*
X78460500Y-37309500D03*
D19*
X121642000Y-21100000D03*
X125392000Y-25100000D03*
X124142000Y-25100000D03*
X121642000Y-22450000D03*
X125392000Y-23750000D03*
X124142000Y-21100000D03*
X124142000Y-22450000D03*
X125392000Y-21100000D03*
X121642000Y-25100000D03*
X120392000Y-21100000D03*
X125392000Y-22450000D03*
X122892000Y-25100000D03*
X120392000Y-25100000D03*
X120392000Y-22450000D03*
X124142000Y-23750000D03*
X122892000Y-21100000D03*
X122892000Y-22450000D03*
X121578500Y-36600000D03*
X120328500Y-39250000D03*
X125328500Y-40600000D03*
X124078500Y-40600000D03*
X121578500Y-37950000D03*
X125328500Y-39250000D03*
X124078500Y-36600000D03*
X124078500Y-37950000D03*
X125328500Y-36600000D03*
X121578500Y-40600000D03*
X120328500Y-36600000D03*
X125328500Y-37950000D03*
X122828500Y-40600000D03*
X120328500Y-40600000D03*
X124078500Y-39250000D03*
X122828500Y-39250000D03*
X122828500Y-36600000D03*
X121578500Y-39250000D03*
X122828500Y-37950000D03*
X94720000Y-35760000D03*
X120328500Y-37950000D03*
X95785133Y-33655133D03*
X122892000Y-23750000D03*
X120392000Y-23750000D03*
X121642000Y-23750000D03*
X84050000Y-25790000D03*
D20*
X79720000Y-22410000D02*
X79840000Y-22290000D01*
X79720000Y-34500000D02*
X79720000Y-22410000D01*
X88050001Y-36960001D02*
X87340000Y-36250000D01*
X87340000Y-36250000D02*
X87340000Y-34500000D01*
X92954314Y-36960001D02*
X88050001Y-36960001D01*
X94154315Y-35760000D02*
X92954314Y-36960001D01*
X94720000Y-35760000D02*
X94154315Y-35760000D01*
X112400000Y-26800000D02*
X112400000Y-25600000D01*
X117200000Y-31600000D02*
X112400000Y-26800000D01*
X98220000Y-28600000D02*
X98220000Y-26200000D01*
X98220000Y-31220265D02*
X98220000Y-28600000D01*
X95785133Y-33655133D02*
X98220000Y-31220265D01*
X95705337Y-33734928D02*
X95785133Y-33655133D01*
X117200000Y-29060000D02*
X117200000Y-24700000D01*
X117200000Y-24700000D02*
X114090000Y-21590000D01*
X98000002Y-21590000D02*
X114090000Y-21590000D01*
X98000002Y-21590000D02*
X93790002Y-25800000D01*
X93790002Y-25800000D02*
X84060000Y-25800000D01*
X84060000Y-25800000D02*
X84050000Y-25790000D01*
M02*
