G04 #@! TF.GenerationSoftware,KiCad,Pcbnew,(5.1.5)-3*
G04 #@! TF.CreationDate,2020-04-29T21:15:24+02:00*
G04 #@! TF.ProjectId,AGB_LIPO,4147425f-4c49-4504-9f2e-6b696361645f,rev?*
G04 #@! TF.SameCoordinates,Original*
G04 #@! TF.FileFunction,Copper,L1,Top*
G04 #@! TF.FilePolarity,Positive*
%FSLAX46Y46*%
G04 Gerber Fmt 4.6, Leading zero omitted, Abs format (unit mm)*
G04 Created by KiCad (PCBNEW (5.1.5)-3) date 2020-04-29 21:15:24*
%MOMM*%
%LPD*%
G04 APERTURE LIST*
%ADD10C,0.100000*%
%ADD11C,1.000000*%
%ADD12O,1.400000X1.400000*%
%ADD13C,1.400000*%
%ADD14R,2.800000X2.800000*%
%ADD15R,1.500000X2.000000*%
%ADD16R,3.800000X2.000000*%
%ADD17R,0.800000X0.900000*%
%ADD18O,1.500000X1.500000*%
%ADD19R,1.500000X1.500000*%
%ADD20O,1.700000X1.700000*%
%ADD21R,1.700000X1.700000*%
%ADD22C,0.800000*%
%ADD23C,1.000000*%
G04 APERTURE END LIST*
D10*
G36*
X125928500Y-41250000D02*
G01*
X119678500Y-41250000D01*
X119678500Y-36000000D01*
X125928500Y-36000000D01*
X125928500Y-41250000D01*
G37*
X125928500Y-41250000D02*
X119678500Y-41250000D01*
X119678500Y-36000000D01*
X125928500Y-36000000D01*
X125928500Y-41250000D01*
G36*
X125992000Y-25750000D02*
G01*
X119742000Y-25750000D01*
X119742000Y-20500000D01*
X125992000Y-20500000D01*
X125992000Y-25750000D01*
G37*
X125992000Y-25750000D02*
X119742000Y-25750000D01*
X119742000Y-20500000D01*
X125992000Y-20500000D01*
X125992000Y-25750000D01*
G04 #@! TA.AperFunction,SMDPad,CuDef*
G36*
X90882005Y-26758204D02*
G01*
X90906273Y-26761804D01*
X90930072Y-26767765D01*
X90953171Y-26776030D01*
X90975350Y-26786520D01*
X90996393Y-26799132D01*
X91016099Y-26813747D01*
X91034277Y-26830223D01*
X91050753Y-26848401D01*
X91065368Y-26868107D01*
X91077980Y-26889150D01*
X91088470Y-26911329D01*
X91096735Y-26934428D01*
X91102696Y-26958227D01*
X91106296Y-26982495D01*
X91107500Y-27006999D01*
X91107500Y-27857001D01*
X91106296Y-27881505D01*
X91102696Y-27905773D01*
X91096735Y-27929572D01*
X91088470Y-27952671D01*
X91077980Y-27974850D01*
X91065368Y-27995893D01*
X91050753Y-28015599D01*
X91034277Y-28033777D01*
X91016099Y-28050253D01*
X90996393Y-28064868D01*
X90975350Y-28077480D01*
X90953171Y-28087970D01*
X90930072Y-28096235D01*
X90906273Y-28102196D01*
X90882005Y-28105796D01*
X90857501Y-28107000D01*
X89957499Y-28107000D01*
X89932995Y-28105796D01*
X89908727Y-28102196D01*
X89884928Y-28096235D01*
X89861829Y-28087970D01*
X89839650Y-28077480D01*
X89818607Y-28064868D01*
X89798901Y-28050253D01*
X89780723Y-28033777D01*
X89764247Y-28015599D01*
X89749632Y-27995893D01*
X89737020Y-27974850D01*
X89726530Y-27952671D01*
X89718265Y-27929572D01*
X89712304Y-27905773D01*
X89708704Y-27881505D01*
X89707500Y-27857001D01*
X89707500Y-27006999D01*
X89708704Y-26982495D01*
X89712304Y-26958227D01*
X89718265Y-26934428D01*
X89726530Y-26911329D01*
X89737020Y-26889150D01*
X89749632Y-26868107D01*
X89764247Y-26848401D01*
X89780723Y-26830223D01*
X89798901Y-26813747D01*
X89818607Y-26799132D01*
X89839650Y-26786520D01*
X89861829Y-26776030D01*
X89884928Y-26767765D01*
X89908727Y-26761804D01*
X89932995Y-26758204D01*
X89957499Y-26757000D01*
X90857501Y-26757000D01*
X90882005Y-26758204D01*
G37*
G04 #@! TD.AperFunction*
G04 #@! TA.AperFunction,SMDPad,CuDef*
G36*
X93582005Y-26758204D02*
G01*
X93606273Y-26761804D01*
X93630072Y-26767765D01*
X93653171Y-26776030D01*
X93675350Y-26786520D01*
X93696393Y-26799132D01*
X93716099Y-26813747D01*
X93734277Y-26830223D01*
X93750753Y-26848401D01*
X93765368Y-26868107D01*
X93777980Y-26889150D01*
X93788470Y-26911329D01*
X93796735Y-26934428D01*
X93802696Y-26958227D01*
X93806296Y-26982495D01*
X93807500Y-27006999D01*
X93807500Y-27857001D01*
X93806296Y-27881505D01*
X93802696Y-27905773D01*
X93796735Y-27929572D01*
X93788470Y-27952671D01*
X93777980Y-27974850D01*
X93765368Y-27995893D01*
X93750753Y-28015599D01*
X93734277Y-28033777D01*
X93716099Y-28050253D01*
X93696393Y-28064868D01*
X93675350Y-28077480D01*
X93653171Y-28087970D01*
X93630072Y-28096235D01*
X93606273Y-28102196D01*
X93582005Y-28105796D01*
X93557501Y-28107000D01*
X92657499Y-28107000D01*
X92632995Y-28105796D01*
X92608727Y-28102196D01*
X92584928Y-28096235D01*
X92561829Y-28087970D01*
X92539650Y-28077480D01*
X92518607Y-28064868D01*
X92498901Y-28050253D01*
X92480723Y-28033777D01*
X92464247Y-28015599D01*
X92449632Y-27995893D01*
X92437020Y-27974850D01*
X92426530Y-27952671D01*
X92418265Y-27929572D01*
X92412304Y-27905773D01*
X92408704Y-27881505D01*
X92407500Y-27857001D01*
X92407500Y-27006999D01*
X92408704Y-26982495D01*
X92412304Y-26958227D01*
X92418265Y-26934428D01*
X92426530Y-26911329D01*
X92437020Y-26889150D01*
X92449632Y-26868107D01*
X92464247Y-26848401D01*
X92480723Y-26830223D01*
X92498901Y-26813747D01*
X92518607Y-26799132D01*
X92539650Y-26786520D01*
X92561829Y-26776030D01*
X92584928Y-26767765D01*
X92608727Y-26761804D01*
X92632995Y-26758204D01*
X92657499Y-26757000D01*
X93557501Y-26757000D01*
X93582005Y-26758204D01*
G37*
G04 #@! TD.AperFunction*
G04 #@! TA.AperFunction,SMDPad,CuDef*
G36*
X116718005Y-35289204D02*
G01*
X116742273Y-35292804D01*
X116766072Y-35298765D01*
X116789171Y-35307030D01*
X116811350Y-35317520D01*
X116832393Y-35330132D01*
X116852099Y-35344747D01*
X116870277Y-35361223D01*
X116886753Y-35379401D01*
X116901368Y-35399107D01*
X116913980Y-35420150D01*
X116924470Y-35442329D01*
X116932735Y-35465428D01*
X116938696Y-35489227D01*
X116942296Y-35513495D01*
X116943500Y-35537999D01*
X116943500Y-36438001D01*
X116942296Y-36462505D01*
X116938696Y-36486773D01*
X116932735Y-36510572D01*
X116924470Y-36533671D01*
X116913980Y-36555850D01*
X116901368Y-36576893D01*
X116886753Y-36596599D01*
X116870277Y-36614777D01*
X116852099Y-36631253D01*
X116832393Y-36645868D01*
X116811350Y-36658480D01*
X116789171Y-36668970D01*
X116766072Y-36677235D01*
X116742273Y-36683196D01*
X116718005Y-36686796D01*
X116693501Y-36688000D01*
X115843499Y-36688000D01*
X115818995Y-36686796D01*
X115794727Y-36683196D01*
X115770928Y-36677235D01*
X115747829Y-36668970D01*
X115725650Y-36658480D01*
X115704607Y-36645868D01*
X115684901Y-36631253D01*
X115666723Y-36614777D01*
X115650247Y-36596599D01*
X115635632Y-36576893D01*
X115623020Y-36555850D01*
X115612530Y-36533671D01*
X115604265Y-36510572D01*
X115598304Y-36486773D01*
X115594704Y-36462505D01*
X115593500Y-36438001D01*
X115593500Y-35537999D01*
X115594704Y-35513495D01*
X115598304Y-35489227D01*
X115604265Y-35465428D01*
X115612530Y-35442329D01*
X115623020Y-35420150D01*
X115635632Y-35399107D01*
X115650247Y-35379401D01*
X115666723Y-35361223D01*
X115684901Y-35344747D01*
X115704607Y-35330132D01*
X115725650Y-35317520D01*
X115747829Y-35307030D01*
X115770928Y-35298765D01*
X115794727Y-35292804D01*
X115818995Y-35289204D01*
X115843499Y-35288000D01*
X116693501Y-35288000D01*
X116718005Y-35289204D01*
G37*
G04 #@! TD.AperFunction*
G04 #@! TA.AperFunction,SMDPad,CuDef*
G36*
X116718005Y-37989204D02*
G01*
X116742273Y-37992804D01*
X116766072Y-37998765D01*
X116789171Y-38007030D01*
X116811350Y-38017520D01*
X116832393Y-38030132D01*
X116852099Y-38044747D01*
X116870277Y-38061223D01*
X116886753Y-38079401D01*
X116901368Y-38099107D01*
X116913980Y-38120150D01*
X116924470Y-38142329D01*
X116932735Y-38165428D01*
X116938696Y-38189227D01*
X116942296Y-38213495D01*
X116943500Y-38237999D01*
X116943500Y-39138001D01*
X116942296Y-39162505D01*
X116938696Y-39186773D01*
X116932735Y-39210572D01*
X116924470Y-39233671D01*
X116913980Y-39255850D01*
X116901368Y-39276893D01*
X116886753Y-39296599D01*
X116870277Y-39314777D01*
X116852099Y-39331253D01*
X116832393Y-39345868D01*
X116811350Y-39358480D01*
X116789171Y-39368970D01*
X116766072Y-39377235D01*
X116742273Y-39383196D01*
X116718005Y-39386796D01*
X116693501Y-39388000D01*
X115843499Y-39388000D01*
X115818995Y-39386796D01*
X115794727Y-39383196D01*
X115770928Y-39377235D01*
X115747829Y-39368970D01*
X115725650Y-39358480D01*
X115704607Y-39345868D01*
X115684901Y-39331253D01*
X115666723Y-39314777D01*
X115650247Y-39296599D01*
X115635632Y-39276893D01*
X115623020Y-39255850D01*
X115612530Y-39233671D01*
X115604265Y-39210572D01*
X115598304Y-39186773D01*
X115594704Y-39162505D01*
X115593500Y-39138001D01*
X115593500Y-38237999D01*
X115594704Y-38213495D01*
X115598304Y-38189227D01*
X115604265Y-38165428D01*
X115612530Y-38142329D01*
X115623020Y-38120150D01*
X115635632Y-38099107D01*
X115650247Y-38079401D01*
X115666723Y-38061223D01*
X115684901Y-38044747D01*
X115704607Y-38030132D01*
X115725650Y-38017520D01*
X115747829Y-38007030D01*
X115770928Y-37998765D01*
X115794727Y-37992804D01*
X115818995Y-37989204D01*
X115843499Y-37988000D01*
X116693501Y-37988000D01*
X116718005Y-37989204D01*
G37*
G04 #@! TD.AperFunction*
D11*
X95440500Y-41275000D03*
D12*
X91376500Y-36639500D03*
D13*
X83756500Y-36639500D03*
D12*
X88709500Y-23241000D03*
D13*
X81089500Y-23241000D03*
D14*
X98220000Y-26200000D03*
X112720000Y-26200000D03*
X101720000Y-26200000D03*
X109320000Y-26200000D03*
D15*
X78860000Y-31900000D03*
X83460000Y-31900000D03*
X81160000Y-31900000D03*
D16*
X81160000Y-25600000D03*
D17*
X94297500Y-33861500D03*
X95247500Y-35861500D03*
X93347500Y-35861500D03*
D18*
X78486000Y-34290000D03*
D19*
X86106000Y-34290000D03*
D13*
X117200000Y-29060000D03*
X117200000Y-31600000D03*
D20*
X78460500Y-39849500D03*
D21*
X78460500Y-37309500D03*
D22*
X121642000Y-21100000D03*
X125392000Y-25100000D03*
X124142000Y-25100000D03*
X121642000Y-22450000D03*
X125392000Y-23750000D03*
X124142000Y-21100000D03*
X124142000Y-22450000D03*
X125392000Y-21100000D03*
X121642000Y-25100000D03*
X120392000Y-21100000D03*
X125392000Y-22450000D03*
X122892000Y-25100000D03*
X120392000Y-25100000D03*
X120392000Y-22450000D03*
X124142000Y-23750000D03*
X122892000Y-21100000D03*
X122892000Y-22450000D03*
X121578500Y-36600000D03*
X120328500Y-39250000D03*
X125328500Y-40600000D03*
X124078500Y-40600000D03*
X121578500Y-37950000D03*
X125328500Y-39250000D03*
X124078500Y-36600000D03*
X124078500Y-37950000D03*
X125328500Y-36600000D03*
X121578500Y-40600000D03*
X120328500Y-36600000D03*
X125328500Y-37950000D03*
X122828500Y-40600000D03*
X120328500Y-40600000D03*
X124078500Y-39250000D03*
X122828500Y-39250000D03*
X122828500Y-36600000D03*
X121578500Y-39250000D03*
X122828500Y-37950000D03*
X78486000Y-23241000D03*
X98220000Y-31220265D03*
X120328500Y-37950000D03*
X122892000Y-23750000D03*
X120392000Y-23750000D03*
X121642000Y-23750000D03*
X84050000Y-25790000D03*
X118808500Y-39878000D03*
X96388000Y-34671000D03*
X95123000Y-26116500D03*
D23*
X97150500Y-39849500D02*
X78460500Y-39849500D01*
X109150000Y-25600000D02*
X109150000Y-27850000D01*
X109150000Y-27850000D02*
X97150500Y-39849500D01*
X101650000Y-27850000D02*
X101650000Y-25600000D01*
X101720000Y-33344500D02*
X101720000Y-26200000D01*
X96583500Y-38481000D02*
X101720000Y-33344500D01*
X79883000Y-38481000D02*
X96583500Y-38481000D01*
X78460500Y-37309500D02*
X78711500Y-37309500D01*
X78711500Y-37309500D02*
X79883000Y-38481000D01*
X81089500Y-23241000D02*
X78486000Y-23241000D01*
X78486000Y-23241000D02*
X78486000Y-23241000D01*
X97820001Y-31620264D02*
X98220000Y-31220265D01*
X95831003Y-33607830D02*
X97818569Y-31620264D01*
X97818569Y-31620264D02*
X97820001Y-31620264D01*
X95669079Y-33607830D02*
X95831003Y-33607830D01*
X95415409Y-33861500D02*
X95669079Y-33607830D01*
X94297500Y-33861500D02*
X95415409Y-33861500D01*
X92154500Y-35861500D02*
X91376500Y-36639500D01*
X93347500Y-35861500D02*
X92154500Y-35861500D01*
X109470002Y-22290000D02*
X95080000Y-22290000D01*
X112720000Y-26200000D02*
X112720000Y-25539998D01*
X112720000Y-25539998D02*
X109470002Y-22290000D01*
X82739997Y-27490001D02*
X89879999Y-27490001D01*
X78850000Y-31379998D02*
X82739997Y-27490001D01*
X78850000Y-32090000D02*
X78850000Y-31379998D01*
X89879999Y-27490001D02*
X95080000Y-22290000D01*
X89879999Y-24411499D02*
X88709500Y-23241000D01*
X89879999Y-27490001D02*
X89879999Y-24411499D01*
X117200000Y-35006500D02*
X116268500Y-35938000D01*
X117200000Y-31600000D02*
X117200000Y-35006500D01*
X119228499Y-37415684D02*
X119762815Y-37950000D01*
X119762815Y-37950000D02*
X120328500Y-37950000D01*
X119228499Y-36233999D02*
X119228499Y-37415684D01*
X118001000Y-35006500D02*
X119228499Y-36233999D01*
X117200000Y-35006500D02*
X118001000Y-35006500D01*
X117200000Y-29060000D02*
X117200000Y-25550000D01*
X117200000Y-25550000D02*
X119250000Y-23500000D01*
X119250000Y-23500000D02*
X122500000Y-23500000D01*
X81150000Y-25790000D02*
X84050000Y-25790000D01*
X118808500Y-39878000D02*
X118808500Y-39878000D01*
X117668500Y-38738000D02*
X118808500Y-39878000D01*
X116268500Y-38738000D02*
X117668500Y-38738000D01*
X85850000Y-34290000D02*
X83460000Y-31900000D01*
X86106000Y-34290000D02*
X85850000Y-34290000D01*
X95247500Y-35811500D02*
X96388000Y-34671000D01*
X95247500Y-35861500D02*
X95247500Y-35811500D01*
X96388000Y-34671000D02*
X96388000Y-34671000D01*
X93807500Y-27432000D02*
X95123000Y-26116500D01*
X93107500Y-27432000D02*
X93807500Y-27432000D01*
X95123000Y-26116500D02*
X95123000Y-26116500D01*
M02*
