G04 #@! TF.GenerationSoftware,KiCad,Pcbnew,(5.1.5)-3*
G04 #@! TF.CreationDate,2020-04-29T21:29:53+02:00*
G04 #@! TF.ProjectId,AGB_LIPO,4147425f-4c49-4504-9f2e-6b696361645f,rev?*
G04 #@! TF.SameCoordinates,Original*
G04 #@! TF.FileFunction,Copper,L2,Bot*
G04 #@! TF.FilePolarity,Positive*
%FSLAX46Y46*%
G04 Gerber Fmt 4.6, Leading zero omitted, Abs format (unit mm)*
G04 Created by KiCad (PCBNEW (5.1.5)-3) date 2020-04-29 21:29:53*
%MOMM*%
%LPD*%
G04 APERTURE LIST*
%ADD10C,0.100000*%
%ADD11C,1.000000*%
%ADD12O,1.400000X1.400000*%
%ADD13C,1.400000*%
%ADD14R,2.800000X2.800000*%
%ADD15O,1.500000X1.500000*%
%ADD16R,1.500000X1.500000*%
%ADD17O,1.700000X1.700000*%
%ADD18R,1.700000X1.700000*%
%ADD19C,0.800000*%
%ADD20C,1.000000*%
G04 APERTURE END LIST*
D10*
G36*
X125928500Y-41250000D02*
G01*
X119678500Y-41250000D01*
X119678500Y-36000000D01*
X125928500Y-36000000D01*
X125928500Y-41250000D01*
G37*
X125928500Y-41250000D02*
X119678500Y-41250000D01*
X119678500Y-36000000D01*
X125928500Y-36000000D01*
X125928500Y-41250000D01*
G36*
X125992000Y-25750000D02*
G01*
X119742000Y-25750000D01*
X119742000Y-20500000D01*
X125992000Y-20500000D01*
X125992000Y-25750000D01*
G37*
X125992000Y-25750000D02*
X119742000Y-25750000D01*
X119742000Y-20500000D01*
X125992000Y-20500000D01*
X125992000Y-25750000D01*
D11*
X95440500Y-41275000D03*
D12*
X91376500Y-36639500D03*
D13*
X83756500Y-36639500D03*
D12*
X88709500Y-23241000D03*
D13*
X81089500Y-23241000D03*
D14*
X98220000Y-26200000D03*
X112720000Y-26200000D03*
X101720000Y-26200000D03*
X109320000Y-26200000D03*
D15*
X78486000Y-34290000D03*
D16*
X86106000Y-34290000D03*
D13*
X117200000Y-29060000D03*
X117200000Y-31600000D03*
D17*
X78460500Y-39849500D03*
D18*
X78460500Y-37309500D03*
D19*
X121642000Y-21100000D03*
X125392000Y-25100000D03*
X124142000Y-25100000D03*
X121642000Y-22450000D03*
X125392000Y-23750000D03*
X124142000Y-21100000D03*
X124142000Y-22450000D03*
X125392000Y-21100000D03*
X121642000Y-25100000D03*
X120392000Y-21100000D03*
X125392000Y-22450000D03*
X122892000Y-25100000D03*
X120392000Y-25100000D03*
X120392000Y-22450000D03*
X124142000Y-23750000D03*
X122892000Y-21100000D03*
X122892000Y-22450000D03*
X121578500Y-36600000D03*
X120328500Y-39250000D03*
X125328500Y-40600000D03*
X124078500Y-40600000D03*
X121578500Y-37950000D03*
X125328500Y-39250000D03*
X124078500Y-36600000D03*
X124078500Y-37950000D03*
X125328500Y-36600000D03*
X121578500Y-40600000D03*
X120328500Y-36600000D03*
X125328500Y-37950000D03*
X122828500Y-40600000D03*
X120328500Y-40600000D03*
X124078500Y-39250000D03*
X122828500Y-39250000D03*
X122828500Y-36600000D03*
X121578500Y-39250000D03*
X122828500Y-37950000D03*
X78486000Y-23241000D03*
X98220000Y-31220265D03*
X120328500Y-37950000D03*
X122892000Y-23750000D03*
X120392000Y-23750000D03*
X121642000Y-23750000D03*
X84050000Y-25790000D03*
X118808500Y-39878000D03*
X96388000Y-34671000D03*
X95123000Y-26116500D03*
D20*
X78486000Y-23241000D02*
X78486000Y-34290000D01*
X81407000Y-34290000D02*
X83756500Y-36639500D01*
X78486000Y-34290000D02*
X81407000Y-34290000D01*
X94733394Y-41275000D02*
X95440500Y-41275000D01*
X83756500Y-37629449D02*
X87402051Y-41275000D01*
X87402051Y-41275000D02*
X94733394Y-41275000D01*
X83756500Y-36639500D02*
X83756500Y-37629449D01*
X98220000Y-28600000D02*
X98220000Y-26200000D01*
X98220000Y-31220265D02*
X98220000Y-31220265D01*
X98220000Y-31220265D02*
X98220000Y-28600000D01*
X112400000Y-26800000D02*
X112400000Y-25600000D01*
X117200000Y-31600000D02*
X112400000Y-26800000D01*
X117200000Y-29060000D02*
X117200000Y-24700000D01*
X117200000Y-24700000D02*
X114090000Y-21590000D01*
X98000002Y-21590000D02*
X114090000Y-21590000D01*
X98000002Y-21590000D02*
X93790002Y-25800000D01*
X93790002Y-25800000D02*
X84060000Y-25800000D01*
X84060000Y-25800000D02*
X84050000Y-25790000D01*
X118808500Y-30668500D02*
X118808500Y-39878000D01*
X117200000Y-29060000D02*
X118808500Y-30668500D01*
X86487000Y-34671000D02*
X86106000Y-34290000D01*
X96388000Y-34671000D02*
X86487000Y-34671000D01*
X95123000Y-26164072D02*
X95146786Y-26140286D01*
X95123000Y-27163002D02*
X95123000Y-26164072D01*
X97019990Y-29059992D02*
X95123000Y-27163002D01*
X96388000Y-34671000D02*
X97019990Y-34039010D01*
X97019990Y-34039010D02*
X97019990Y-29059992D01*
M02*
