M48
; DRILL file {KiCad (5.1.5)-3} date 29.04.2020 21:15:26
; FORMAT={-:-/ absolute / inch / decimal}
; #@! TF.CreationDate,2020-04-29T21:15:26+02:00
; #@! TF.GenerationSoftware,Kicad,Pcbnew,(5.1.5)-3
; #@! TF.FileFunction,Plated,1,2,PTH
FMAT,2
INCH
T1C0.0157
T2C0.0197
T3C0.0276
T4C0.0295
T5C0.0315
T6C0.0394
T7C0.0606
%
G90
G05
T1
X3.09Y-0.915
X3.3091Y-1.0154
X3.745Y-1.0282
X3.7948Y-1.365
X3.8669Y-1.2291
X4.6775Y-1.57
X4.7373Y-1.4409
X4.7373Y-1.4941
X4.7373Y-1.5453
X4.7373Y-1.5984
X4.7398Y-0.8307
X4.7398Y-0.8839
X4.7398Y-0.935
X4.7398Y-0.9882
X4.7866Y-1.4409
X4.7866Y-1.4941
X4.7866Y-1.5453
X4.7866Y-1.5984
X4.7891Y-0.8307
X4.7891Y-0.8839
X4.7891Y-0.935
X4.7891Y-0.9882
X4.8358Y-1.4409
X4.8358Y-1.4941
X4.8358Y-1.5453
X4.8358Y-1.5984
X4.8383Y-0.8307
X4.8383Y-0.8839
X4.8383Y-0.935
X4.8383Y-0.9882
X4.885Y-1.4409
X4.885Y-1.4941
X4.885Y-1.5453
X4.885Y-1.5984
X4.8875Y-0.8307
X4.8875Y-0.8839
X4.8875Y-0.935
X4.8875Y-0.9882
X4.9342Y-1.4409
X4.9342Y-1.4941
X4.9342Y-1.5453
X4.9342Y-1.5984
X4.9367Y-0.8307
X4.9367Y-0.8839
X4.9367Y-0.935
X4.9367Y-0.9882
T2
X3.7575Y-1.625
T3
X3.1925Y-0.915
X3.4925Y-0.915
X3.2975Y-1.4425
X3.5975Y-1.4425
T4
X3.09Y-1.35
X3.39Y-1.35
T5
X4.6142Y-1.1441
X4.6142Y-1.2441
T6
X3.089Y-1.4689
X3.089Y-1.5689
T7
X3.8669Y-1.0315
X4.0047Y-1.0315
X4.3039Y-1.0315
X4.4378Y-1.0315
T0
M30
